M48
; DRILL file {KiCad 9.0.7} date 2026-01-07T19:43:05+0100
; FORMAT={-:-/ absolute / metric / decimal}
; #@! TF.CreationDate,2026-01-07T19:43:05+01:00
; #@! TF.GenerationSoftware,Kicad,Pcbnew,9.0.7
; #@! TF.FileFunction,Plated,1,2,PTH
FMAT,2
METRIC
; #@! TA.AperFunction,Plated,PTH,ViaDrill
T1C0.300
; #@! TA.AperFunction,Plated,PTH,ComponentDrill
T2C0.750
; #@! TA.AperFunction,Plated,PTH,ComponentDrill
T3C0.800
; #@! TA.AperFunction,Plated,PTH,ComponentDrill
T4C1.000
; #@! TA.AperFunction,Plated,PTH,ComponentDrill
T5C1.100
; #@! TA.AperFunction,Plated,PTH,ComponentDrill
T6C1.200
; #@! TA.AperFunction,Plated,PTH,ComponentDrill
T7C1.300
; #@! TA.AperFunction,Plated,PTH,ComponentDrill
T8C1.320
; #@! TA.AperFunction,Plated,PTH,ComponentDrill
T9C1.420
; #@! TA.AperFunction,Plated,PTH,ComponentDrill
T10C1.600
; #@! TA.AperFunction,Plated,PTH,ComponentDrill
T11C2.150
; #@! TA.AperFunction,Plated,PTH,ComponentDrill
T12C2.973
%
G90
G05
T1
X32.766Y-60.96
X38.354Y-66.548
X54.356Y-72.898
X54.404Y-71.861
X54.61Y-58.674
X55.004Y-72.39
X55.004Y-73.406
X55.556Y-72.898
X55.604Y-71.861
X56.204Y-72.39
X56.204Y-73.406
X56.756Y-72.898
X56.804Y-71.861
X57.404Y-72.39
X57.404Y-73.406
X58.42Y-65.024
X67.487Y-63.831
X68.548Y-62.77
X73.152Y-64.262
X80.01Y-64.516
X81.318Y-63.208
X86.106Y-67.818
X87.122Y-64.262
X88.9Y-67.818
X90.17Y-65.024
X94.488Y-64.77
X113.422Y-70.496
X113.792Y-73.152
T2
X32.638Y-69.128
X33.908Y-69.128
X35.178Y-69.128
T3
X131.123Y-41.138
X131.123Y-56.138
T4
X42.178Y-25.343
X42.178Y-47.343
X42.207Y-36.378
X47.178Y-25.343
X47.178Y-47.343
X47.207Y-36.378
X71.678Y-24.878
X71.678Y-35.878
X76.678Y-24.878
X76.678Y-35.878
X96.085Y-29.102
X96.085Y-50.654
X97.882Y-27.306
X97.882Y-30.898
X97.882Y-48.858
X97.882Y-52.45
X101.474Y-27.306
X101.474Y-30.898
X101.474Y-48.858
X101.474Y-52.45
X103.27Y-29.102
X103.27Y-50.654
X118.503Y-31.128
X118.595Y-49.908
X123.503Y-31.128
X123.595Y-49.908
T5
X47.178Y-59.548
X47.178Y-69.708
T6
X29.678Y-17.378
X29.678Y-55.378
X59.178Y-17.378
X59.178Y-55.378
X71.678Y-50.628
X79.178Y-50.628
X120.428Y-64.128
X120.428Y-66.628
X120.428Y-69.128
T7
X85.309Y-39.878
X114.046Y-39.878
T8
X84.778Y-70.609
X87.478Y-70.609
X90.178Y-70.609
T9
X125.078Y-19.628
X127.628Y-19.628
X130.178Y-19.628
T10
X86.938Y-23.378
X86.938Y-56.398
X92.018Y-23.378
X92.018Y-56.398
X97.098Y-23.378
X97.098Y-56.398
X102.178Y-23.378
X102.178Y-56.398
X107.258Y-56.398
X107.258Y-23.378
X112.338Y-23.378
X112.338Y-56.398
T11
X24.178Y-61.878
X24.178Y-67.878
X131.123Y-26.763
X131.123Y-32.763
T12
X127.428Y-62.228
X127.428Y-71.028
M30
