%TF.GenerationSoftware,KiCad,Pcbnew,9.0.7*%
%TF.CreationDate,2026-01-07T19:43:00+01:00*%
%TF.ProjectId,power-electronics2,706f7765-722d-4656-9c65-6374726f6e69,rev?*%
%TF.SameCoordinates,Original*%
%TF.FileFunction,Soldermask,Top*%
%TF.FilePolarity,Negative*%
%FSLAX46Y46*%
G04 Gerber Fmt 4.6, Leading zero omitted, Abs format (unit mm)*
G04 Created by KiCad (PCBNEW 9.0.7) date 2026-01-07 19:43:00*
%MOMM*%
%LPD*%
G01*
G04 APERTURE LIST*
G04 Aperture macros list*
%AMRoundRect*
0 Rectangle with rounded corners*
0 $1 Rounding radius*
0 $2 $3 $4 $5 $6 $7 $8 $9 X,Y pos of 4 corners*
0 Add a 4 corners polygon primitive as box body*
4,1,4,$2,$3,$4,$5,$6,$7,$8,$9,$2,$3,0*
0 Add four circle primitives for the rounded corners*
1,1,$1+$1,$2,$3*
1,1,$1+$1,$4,$5*
1,1,$1+$1,$6,$7*
1,1,$1+$1,$8,$9*
0 Add four rect primitives between the rounded corners*
20,1,$1+$1,$2,$3,$4,$5,0*
20,1,$1+$1,$4,$5,$6,$7,0*
20,1,$1+$1,$6,$7,$8,$9,0*
20,1,$1+$1,$8,$9,$2,$3,0*%
G04 Aperture macros list end*
%ADD10R,4.050000X5.500000*%
%ADD11RoundRect,0.250000X-0.450000X0.350000X-0.450000X-0.350000X0.450000X-0.350000X0.450000X0.350000X0*%
%ADD12C,2.400000*%
%ADD13R,1.525000X0.650000*%
%ADD14RoundRect,0.250000X0.475000X-0.337500X0.475000X0.337500X-0.475000X0.337500X-0.475000X-0.337500X0*%
%ADD15RoundRect,0.250000X-0.475000X0.337500X-0.475000X-0.337500X0.475000X-0.337500X0.475000X0.337500X0*%
%ADD16R,2.130000X2.130000*%
%ADD17C,2.130000*%
%ADD18RoundRect,0.250000X0.550000X0.550000X-0.550000X0.550000X-0.550000X-0.550000X0.550000X-0.550000X0*%
%ADD19RoundRect,0.250000X-0.350000X-0.450000X0.350000X-0.450000X0.350000X0.450000X-0.350000X0.450000X0*%
%ADD20RoundRect,0.250000X0.350000X0.450000X-0.350000X0.450000X-0.350000X-0.450000X0.350000X-0.450000X0*%
%ADD21RoundRect,0.249999X-0.850001X0.850001X-0.850001X-0.850001X0.850001X-0.850001X0.850001X0.850001X0*%
%ADD22C,2.200000*%
%ADD23R,1.050000X1.500000*%
%ADD24O,1.050000X1.500000*%
%ADD25RoundRect,0.250000X-0.750000X-0.750000X0.750000X-0.750000X0.750000X0.750000X-0.750000X0.750000X0*%
%ADD26C,2.000000*%
%ADD27R,1.550000X3.550000*%
%ADD28RoundRect,0.250000X0.337500X0.475000X-0.337500X0.475000X-0.337500X-0.475000X0.337500X-0.475000X0*%
%ADD29RoundRect,0.250000X-0.337500X-0.475000X0.337500X-0.475000X0.337500X0.475000X-0.337500X0.475000X0*%
%ADD30C,1.500000*%
%ADD31C,1.950000*%
%ADD32R,0.675000X0.620000*%
%ADD33C,1.600000*%
%ADD34R,2.400000X2.400000*%
%ADD35R,1.725000X0.700000*%
%ADD36RoundRect,0.250000X1.325000X-1.325000X1.325000X1.325000X-1.325000X1.325000X-1.325000X-1.325000X0*%
%ADD37C,3.150000*%
%ADD38R,1.980000X1.980000*%
%ADD39C,1.980000*%
%ADD40C,1.800000*%
%ADD41C,4.460000*%
%ADD42RoundRect,0.250000X-1.325000X1.325000X-1.325000X-1.325000X1.325000X-1.325000X1.325000X1.325000X0*%
%ADD43RoundRect,0.250001X-0.949999X-0.949999X0.949999X-0.949999X0.949999X0.949999X-0.949999X0.949999X0*%
G04 APERTURE END LIST*
D10*
%TO.C,R6*%
X60277589Y-70127999D03*
X69577591Y-70127999D03*
%TD*%
D11*
%TO.C,R2*%
X115427590Y-65377999D03*
X115427590Y-67377999D03*
%TD*%
D12*
%TO.C,L4*%
X29677590Y-55377999D03*
X29677590Y-17377999D03*
%TD*%
D11*
%TO.C,R12*%
X52427590Y-58627999D03*
X52427590Y-60627999D03*
%TD*%
D13*
%TO.C,IC4*%
X37715590Y-58972999D03*
X37715590Y-60242999D03*
X37715590Y-61512999D03*
X37715590Y-62782999D03*
X43139590Y-62782999D03*
X43139590Y-61512999D03*
X43139590Y-60242999D03*
X43139590Y-58972999D03*
%TD*%
D14*
%TO.C,C16*%
X38677590Y-69877999D03*
X38677590Y-67802999D03*
%TD*%
D15*
%TO.C,C13*%
X55427590Y-67627999D03*
X55427590Y-69702999D03*
%TD*%
D11*
%TO.C,R9*%
X61927590Y-63008000D03*
X61927590Y-65008000D03*
%TD*%
D15*
%TO.C,C14*%
X52427590Y-63052999D03*
X52427590Y-65127999D03*
%TD*%
D16*
%TO.C,D1*%
X125077589Y-19627999D03*
D17*
X127627589Y-19627999D03*
X130177590Y-19627999D03*
%TD*%
D18*
%TO.C,U1*%
X103737590Y-71667999D03*
X103737590Y-69127999D03*
X103737590Y-66587999D03*
X96117590Y-66587999D03*
X96117590Y-69127999D03*
X96117590Y-71667999D03*
%TD*%
D15*
%TO.C,C11*%
X57177590Y-63052999D03*
X57177590Y-65127999D03*
%TD*%
D19*
%TO.C,R14*%
X41927590Y-66377999D03*
X43927590Y-66377999D03*
%TD*%
D20*
%TO.C,R4*%
X111927590Y-65278000D03*
X109927590Y-65278000D03*
%TD*%
D21*
%TO.C,D2*%
X47177590Y-59547999D03*
D22*
X47177590Y-69707999D03*
%TD*%
D23*
%TO.C,Q2*%
X32637590Y-69127999D03*
D24*
X33907591Y-69127999D03*
X35177590Y-69127999D03*
%TD*%
D11*
%TO.C,R3*%
X115427590Y-71127999D03*
X115427590Y-73127999D03*
%TD*%
D25*
%TO.C,C1*%
X118502590Y-31127999D03*
D26*
X123502590Y-31127999D03*
%TD*%
D27*
%TO.C,R8*%
X73177590Y-71877999D03*
X78977590Y-71877999D03*
%TD*%
D19*
%TO.C,R15*%
X41927590Y-70877999D03*
X43927590Y-70877999D03*
%TD*%
D28*
%TO.C,C12*%
X57927590Y-59377999D03*
X55852590Y-59377999D03*
%TD*%
D25*
%TO.C,C7*%
X42206528Y-36377999D03*
D26*
X47206528Y-36377999D03*
%TD*%
D25*
%TO.C,C8*%
X71677590Y-24877999D03*
D26*
X76677590Y-24877999D03*
%TD*%
D25*
%TO.C,C6*%
X42177590Y-25342999D03*
D26*
X47177590Y-25342999D03*
%TD*%
D19*
%TO.C,R5*%
X82836000Y-65786000D03*
X84836000Y-65786000D03*
%TD*%
D29*
%TO.C,C10*%
X109852590Y-72877999D03*
X111927590Y-72877999D03*
%TD*%
D30*
%TO.C,L1*%
X97881539Y-27305641D03*
X96085488Y-29101692D03*
X97881539Y-30897743D03*
X97881539Y-48858256D03*
X96085488Y-50654307D03*
X97881539Y-52450358D03*
X101473641Y-52450358D03*
X103269693Y-50654307D03*
X101473641Y-48858256D03*
X101473641Y-30897743D03*
X103269693Y-29101692D03*
X101473641Y-27305641D03*
D31*
X85309180Y-39878000D03*
X114046000Y-39878000D03*
%TD*%
D32*
%TO.C,IC2*%
X112065590Y-70627999D03*
X112065590Y-68727999D03*
X109789589Y-69677999D03*
%TD*%
D20*
%TO.C,R10*%
X63230000Y-58674000D03*
X61230000Y-58674000D03*
%TD*%
D33*
%TO.C,C2*%
X131122590Y-41137999D03*
X131122590Y-56137999D03*
%TD*%
D25*
%TO.C,C9*%
X71677590Y-35877999D03*
D26*
X76677590Y-35877999D03*
%TD*%
D34*
%TO.C,H1*%
X112337590Y-23377999D03*
D12*
X107257591Y-23377999D03*
X102177590Y-23377999D03*
X97097590Y-23377999D03*
X92017590Y-23377999D03*
X86937590Y-23377999D03*
X86937590Y-56397999D03*
X92017590Y-56397999D03*
X97097590Y-56397999D03*
X102177590Y-56397999D03*
X107257590Y-56397998D03*
X112337590Y-56397999D03*
%TD*%
D11*
%TO.C,R11*%
X82550000Y-59960000D03*
X82550000Y-61960000D03*
%TD*%
D35*
%TO.C,IC1*%
X65615590Y-60472999D03*
X65615590Y-61742999D03*
X65615590Y-63012999D03*
X65615590Y-64282999D03*
X71239590Y-64282999D03*
X71239590Y-63012999D03*
X71239590Y-61742999D03*
X71239590Y-60472999D03*
%TD*%
D27*
%TO.C,R7*%
X73177590Y-67627999D03*
X78977590Y-67627999D03*
%TD*%
D20*
%TO.C,R13*%
X34798000Y-62877999D03*
X32798000Y-62877999D03*
%TD*%
D36*
%TO.C,J2*%
X131122590Y-32762999D03*
D37*
X131122590Y-26762999D03*
%TD*%
D38*
%TO.C,Q1*%
X90177590Y-70608999D03*
D39*
X87477590Y-70608999D03*
X84777589Y-70608999D03*
%TD*%
D25*
%TO.C,C4*%
X42177590Y-47342999D03*
D26*
X47177590Y-47342999D03*
%TD*%
D19*
%TO.C,R1*%
X38677590Y-55377999D03*
X40677590Y-55377999D03*
%TD*%
D25*
%TO.C,C3*%
X118594913Y-49907999D03*
D26*
X123594913Y-49907999D03*
%TD*%
D40*
%TO.C,VR1*%
X120427590Y-64127999D03*
X120427590Y-66627999D03*
X120427590Y-69127999D03*
D41*
X127427590Y-62227999D03*
X127427590Y-71027999D03*
%TD*%
D12*
%TO.C,L3*%
X59177590Y-17377999D03*
X59177590Y-55377999D03*
%TD*%
D42*
%TO.C,J1*%
X24177590Y-61877999D03*
D37*
X24177590Y-67877999D03*
%TD*%
D43*
%TO.C,C5*%
X71677590Y-50627999D03*
D12*
X79177590Y-50627999D03*
%TD*%
D28*
%TO.C,C15*%
X34927590Y-59127999D03*
X32852590Y-59127999D03*
%TD*%
M02*
