%TF.GenerationSoftware,KiCad,Pcbnew,9.0.7*%
%TF.CreationDate,2026-01-07T19:42:59+01:00*%
%TF.ProjectId,power-electronics2,706f7765-722d-4656-9c65-6374726f6e69,rev?*%
%TF.SameCoordinates,Original*%
%TF.FileFunction,Copper,L1,Top*%
%TF.FilePolarity,Positive*%
%FSLAX46Y46*%
G04 Gerber Fmt 4.6, Leading zero omitted, Abs format (unit mm)*
G04 Created by KiCad (PCBNEW 9.0.7) date 2026-01-07 19:42:59*
%MOMM*%
%LPD*%
G01*
G04 APERTURE LIST*
G04 Aperture macros list*
%AMRoundRect*
0 Rectangle with rounded corners*
0 $1 Rounding radius*
0 $2 $3 $4 $5 $6 $7 $8 $9 X,Y pos of 4 corners*
0 Add a 4 corners polygon primitive as box body*
4,1,4,$2,$3,$4,$5,$6,$7,$8,$9,$2,$3,0*
0 Add four circle primitives for the rounded corners*
1,1,$1+$1,$2,$3*
1,1,$1+$1,$4,$5*
1,1,$1+$1,$6,$7*
1,1,$1+$1,$8,$9*
0 Add four rect primitives between the rounded corners*
20,1,$1+$1,$2,$3,$4,$5,0*
20,1,$1+$1,$4,$5,$6,$7,0*
20,1,$1+$1,$6,$7,$8,$9,0*
20,1,$1+$1,$8,$9,$2,$3,0*%
G04 Aperture macros list end*
%TA.AperFunction,Conductor*%
%ADD10C,0.200000*%
%TD*%
%TA.AperFunction,SMDPad,CuDef*%
%ADD11R,4.050000X5.500000*%
%TD*%
%TA.AperFunction,SMDPad,CuDef*%
%ADD12RoundRect,0.250000X-0.450000X0.350000X-0.450000X-0.350000X0.450000X-0.350000X0.450000X0.350000X0*%
%TD*%
%TA.AperFunction,ComponentPad*%
%ADD13C,2.400000*%
%TD*%
%TA.AperFunction,SMDPad,CuDef*%
%ADD14R,1.525000X0.650000*%
%TD*%
%TA.AperFunction,SMDPad,CuDef*%
%ADD15RoundRect,0.250000X0.475000X-0.337500X0.475000X0.337500X-0.475000X0.337500X-0.475000X-0.337500X0*%
%TD*%
%TA.AperFunction,SMDPad,CuDef*%
%ADD16RoundRect,0.250000X-0.475000X0.337500X-0.475000X-0.337500X0.475000X-0.337500X0.475000X0.337500X0*%
%TD*%
%TA.AperFunction,ComponentPad*%
%ADD17R,2.130000X2.130000*%
%TD*%
%TA.AperFunction,ComponentPad*%
%ADD18C,2.130000*%
%TD*%
%TA.AperFunction,SMDPad,CuDef*%
%ADD19RoundRect,0.250000X0.550000X0.550000X-0.550000X0.550000X-0.550000X-0.550000X0.550000X-0.550000X0*%
%TD*%
%TA.AperFunction,SMDPad,CuDef*%
%ADD20RoundRect,0.250000X-0.350000X-0.450000X0.350000X-0.450000X0.350000X0.450000X-0.350000X0.450000X0*%
%TD*%
%TA.AperFunction,SMDPad,CuDef*%
%ADD21RoundRect,0.250000X0.350000X0.450000X-0.350000X0.450000X-0.350000X-0.450000X0.350000X-0.450000X0*%
%TD*%
%TA.AperFunction,ComponentPad*%
%ADD22RoundRect,0.249999X-0.850001X0.850001X-0.850001X-0.850001X0.850001X-0.850001X0.850001X0.850001X0*%
%TD*%
%TA.AperFunction,ComponentPad*%
%ADD23C,2.200000*%
%TD*%
%TA.AperFunction,ComponentPad*%
%ADD24R,1.050000X1.500000*%
%TD*%
%TA.AperFunction,ComponentPad*%
%ADD25O,1.050000X1.500000*%
%TD*%
%TA.AperFunction,ComponentPad*%
%ADD26RoundRect,0.250000X-0.750000X-0.750000X0.750000X-0.750000X0.750000X0.750000X-0.750000X0.750000X0*%
%TD*%
%TA.AperFunction,ComponentPad*%
%ADD27C,2.000000*%
%TD*%
%TA.AperFunction,SMDPad,CuDef*%
%ADD28R,1.550000X3.550000*%
%TD*%
%TA.AperFunction,SMDPad,CuDef*%
%ADD29RoundRect,0.250000X0.337500X0.475000X-0.337500X0.475000X-0.337500X-0.475000X0.337500X-0.475000X0*%
%TD*%
%TA.AperFunction,SMDPad,CuDef*%
%ADD30RoundRect,0.250000X-0.337500X-0.475000X0.337500X-0.475000X0.337500X0.475000X-0.337500X0.475000X0*%
%TD*%
%TA.AperFunction,ComponentPad*%
%ADD31C,1.500000*%
%TD*%
%TA.AperFunction,ComponentPad*%
%ADD32C,1.950000*%
%TD*%
%TA.AperFunction,SMDPad,CuDef*%
%ADD33R,0.675000X0.620000*%
%TD*%
%TA.AperFunction,ComponentPad*%
%ADD34C,1.600000*%
%TD*%
%TA.AperFunction,ComponentPad*%
%ADD35R,2.400000X2.400000*%
%TD*%
%TA.AperFunction,SMDPad,CuDef*%
%ADD36R,1.725000X0.700000*%
%TD*%
%TA.AperFunction,ComponentPad*%
%ADD37RoundRect,0.250000X1.325000X-1.325000X1.325000X1.325000X-1.325000X1.325000X-1.325000X-1.325000X0*%
%TD*%
%TA.AperFunction,ComponentPad*%
%ADD38C,3.150000*%
%TD*%
%TA.AperFunction,ComponentPad*%
%ADD39R,1.980000X1.980000*%
%TD*%
%TA.AperFunction,ComponentPad*%
%ADD40C,1.980000*%
%TD*%
%TA.AperFunction,ComponentPad*%
%ADD41C,1.800000*%
%TD*%
%TA.AperFunction,ComponentPad*%
%ADD42C,4.460000*%
%TD*%
%TA.AperFunction,ComponentPad*%
%ADD43RoundRect,0.250000X-1.325000X1.325000X-1.325000X-1.325000X1.325000X-1.325000X1.325000X1.325000X0*%
%TD*%
%TA.AperFunction,ComponentPad*%
%ADD44RoundRect,0.250001X-0.949999X-0.949999X0.949999X-0.949999X0.949999X0.949999X-0.949999X0.949999X0*%
%TD*%
%TA.AperFunction,ViaPad*%
%ADD45C,0.600000*%
%TD*%
%TA.AperFunction,Conductor*%
%ADD46C,0.500000*%
%TD*%
%TA.AperFunction,Conductor*%
%ADD47C,2.000000*%
%TD*%
%TA.AperFunction,Conductor*%
%ADD48C,0.254000*%
%TD*%
%TA.AperFunction,Conductor*%
%ADD49C,0.900000*%
%TD*%
%TA.AperFunction,Conductor*%
%ADD50C,3.000000*%
%TD*%
%TA.AperFunction,Conductor*%
%ADD51C,1.270000*%
%TD*%
G04 APERTURE END LIST*
D10*
%TO.N,Net-(C4-Pad1)*%
X46228000Y-18542000D02*
X42418000Y-22352000D01*
X38608000Y-17272000D01*
X46228000Y-18542000D01*
%TA.AperFunction,Conductor*%
G36*
X46228000Y-18542000D02*
G01*
X42418000Y-22352000D01*
X38608000Y-17272000D01*
X46228000Y-18542000D01*
G37*
%TD.AperFunction*%
%TO.N,GNDREF*%
X57658000Y-71120000D02*
X57658000Y-74168000D01*
X57404000Y-74422000D01*
X55372000Y-74422000D01*
X53848000Y-74422000D01*
X53848000Y-71882000D01*
X54610000Y-70866000D01*
X57404000Y-70866000D01*
X57658000Y-71120000D01*
%TA.AperFunction,Conductor*%
G36*
X57658000Y-71120000D02*
G01*
X57658000Y-74168000D01*
X57404000Y-74422000D01*
X55372000Y-74422000D01*
X53848000Y-74422000D01*
X53848000Y-71882000D01*
X54610000Y-70866000D01*
X57404000Y-70866000D01*
X57658000Y-71120000D01*
G37*
%TD.AperFunction*%
%TD*%
D11*
%TO.P,R6,1,1*%
%TO.N,GNDREF*%
X60277589Y-70127999D03*
%TO.P,R6,2,2*%
%TO.N,Net-(R6-Pad2)*%
X69577591Y-70127999D03*
%TD*%
D12*
%TO.P,R2,1*%
%TO.N,/Vo*%
X115427590Y-65377999D03*
%TO.P,R2,2*%
%TO.N,Net-(VR1-CCW)*%
X115427590Y-67377999D03*
%TD*%
D13*
%TO.P,L4,1,1*%
%TO.N,/Vi*%
X29677590Y-55377999D03*
%TO.P,L4,2,2*%
%TO.N,Net-(C4-Pad1)*%
X29677590Y-17377999D03*
%TD*%
D12*
%TO.P,R12,1*%
%TO.N,Net-(IC1-COMP)*%
X52427590Y-58627999D03*
%TO.P,R12,2*%
%TO.N,Net-(IC1-VFB)*%
X52427590Y-60627999D03*
%TD*%
D14*
%TO.P,IC4,1,VIN*%
%TO.N,/Vi*%
X37715590Y-58972999D03*
%TO.P,IC4,2,VOUT_1*%
%TO.N,/Vldo*%
X37715590Y-60242999D03*
%TO.P,IC4,3,VOUT_2*%
X37715590Y-61512999D03*
%TO.P,IC4,4,ADJ*%
%TO.N,Net-(IC4-ADJ)*%
X37715590Y-62782999D03*
%TO.P,IC4,5,NC_1*%
%TO.N,unconnected-(IC4-NC_1-Pad5)*%
X43139590Y-62782999D03*
%TO.P,IC4,6,VOUT_3*%
%TO.N,/Vldo*%
X43139590Y-61512999D03*
%TO.P,IC4,7,VOUT_4*%
X43139590Y-60242999D03*
%TO.P,IC4,8,NC_2*%
%TO.N,unconnected-(IC4-NC_2-Pad8)*%
X43139590Y-58972999D03*
%TD*%
D15*
%TO.P,C16,1*%
%TO.N,Net-(D2-A)*%
X38677590Y-69877999D03*
%TO.P,C16,2*%
%TO.N,GNDREF*%
X38677590Y-67802999D03*
%TD*%
D16*
%TO.P,C13,1*%
%TO.N,Net-(IC1-VFB)*%
X55427590Y-67627999D03*
%TO.P,C13,2*%
%TO.N,GNDREF*%
X55427590Y-69702999D03*
%TD*%
D12*
%TO.P,R9,1*%
%TO.N,Net-(IC1-ISENSE)*%
X61927590Y-63008000D03*
%TO.P,R9,2*%
%TO.N,Net-(Q1-S)*%
X61927590Y-65008000D03*
%TD*%
D16*
%TO.P,C14,1*%
%TO.N,Net-(IC1-COMP)*%
X52427590Y-63052999D03*
%TO.P,C14,2*%
%TO.N,Net-(IC1-VFB)*%
X52427590Y-65127999D03*
%TD*%
D17*
%TO.P,D1,1,A1*%
%TO.N,/Vs+*%
X125077589Y-19627999D03*
D18*
%TO.P,D1,2,K*%
%TO.N,/Vo*%
X127627589Y-19627999D03*
%TO.P,D1,3,A2*%
%TO.N,/Vs+*%
X130177590Y-19627999D03*
%TD*%
D19*
%TO.P,U1,1*%
%TO.N,Net-(R4-Pad2)*%
X103737590Y-71667999D03*
%TO.P,U1,2*%
%TO.N,Net-(IC2-CATHODE)*%
X103737590Y-69127999D03*
%TO.P,U1,3,NC*%
%TO.N,unconnected-(U1-NC-Pad3)*%
X103737590Y-66587999D03*
%TO.P,U1,4*%
%TO.N,GNDREF*%
X96117590Y-66587999D03*
%TO.P,U1,5*%
%TO.N,Net-(IC1-VFB)*%
X96117590Y-69127999D03*
%TO.P,U1,6*%
%TO.N,unconnected-(U1-Pad6)*%
X96117590Y-71667999D03*
%TD*%
D16*
%TO.P,C11,1*%
%TO.N,Net-(IC1-ISENSE)*%
X57177590Y-63052999D03*
%TO.P,C11,2*%
%TO.N,GNDREF*%
X57177590Y-65127999D03*
%TD*%
D20*
%TO.P,R14,1*%
%TO.N,Net-(IC4-ADJ)*%
X41927590Y-66377999D03*
%TO.P,R14,2*%
%TO.N,/Vldo*%
X43927590Y-66377999D03*
%TD*%
D21*
%TO.P,R4,1*%
%TO.N,/Vo*%
X111927590Y-65278000D03*
%TO.P,R4,2*%
%TO.N,Net-(R4-Pad2)*%
X109927590Y-65278000D03*
%TD*%
D22*
%TO.P,D2,1,K*%
%TO.N,/Vldo*%
X47177590Y-59547999D03*
D23*
%TO.P,D2,2,A*%
%TO.N,Net-(D2-A)*%
X47177590Y-69707999D03*
%TD*%
D24*
%TO.P,Q2,1,E*%
%TO.N,Net-(IC4-ADJ)*%
X32637590Y-69127999D03*
D25*
%TO.P,Q2,2,B*%
%TO.N,Net-(D2-A)*%
X33907591Y-69127999D03*
%TO.P,Q2,3,C*%
%TO.N,GNDREF*%
X35177590Y-69127999D03*
%TD*%
D12*
%TO.P,R3,1*%
%TO.N,Net-(VR1-CW)*%
X115427590Y-71127999D03*
%TO.P,R3,2*%
%TO.N,GND*%
X115427590Y-73127999D03*
%TD*%
D26*
%TO.P,C1,1*%
%TO.N,/Vo*%
X118502590Y-31127999D03*
D27*
%TO.P,C1,2*%
%TO.N,GND*%
X123502590Y-31127999D03*
%TD*%
D28*
%TO.P,R8,1,1*%
%TO.N,Net-(R6-Pad2)*%
X73177590Y-71877999D03*
%TO.P,R8,2,2*%
%TO.N,Net-(Q1-S)*%
X78977590Y-71877999D03*
%TD*%
D20*
%TO.P,R15,1*%
%TO.N,Net-(IC4-ADJ)*%
X41927590Y-70877999D03*
%TO.P,R15,2*%
%TO.N,/Vldo*%
X43927590Y-70877999D03*
%TD*%
D29*
%TO.P,C12,1*%
%TO.N,Net-(IC1-RT{slash}CT)*%
X57927590Y-59377999D03*
%TO.P,C12,2*%
%TO.N,GNDREF*%
X55852590Y-59377999D03*
%TD*%
D26*
%TO.P,C7,1*%
%TO.N,Net-(C4-Pad1)*%
X42206528Y-36377999D03*
D27*
%TO.P,C7,2*%
%TO.N,GNDREF*%
X47206528Y-36377999D03*
%TD*%
D26*
%TO.P,C8,1*%
%TO.N,/Vp+*%
X71677590Y-24877999D03*
D27*
%TO.P,C8,2*%
%TO.N,GNDREF*%
X76677590Y-24877999D03*
%TD*%
D26*
%TO.P,C6,1*%
%TO.N,Net-(C4-Pad1)*%
X42177590Y-25342999D03*
D27*
%TO.P,C6,2*%
%TO.N,GNDREF*%
X47177590Y-25342999D03*
%TD*%
D20*
%TO.P,R5,1*%
%TO.N,Net-(IC1-OUTPUT)*%
X82836000Y-65786000D03*
%TO.P,R5,2*%
%TO.N,Net-(Q1-G)*%
X84836000Y-65786000D03*
%TD*%
D30*
%TO.P,C10,1*%
%TO.N,Net-(IC2-CATHODE)*%
X109852590Y-72877999D03*
%TO.P,C10,2*%
%TO.N,Net-(IC2-REF)*%
X111927590Y-72877999D03*
%TD*%
D31*
%TO.P,L1,1,1*%
%TO.N,/Vp-*%
X97881539Y-27305641D03*
%TO.P,L1,2,2*%
%TO.N,/Vp+*%
X96085488Y-29101692D03*
%TO.P,L1,3,3*%
%TO.N,Net-(H1-Pad6)*%
X97881539Y-30897743D03*
%TO.P,L1,4,4*%
%TO.N,Net-(H1-Pad7)*%
X97881539Y-48858256D03*
%TO.P,L1,5,5*%
%TO.N,Net-(H1-Pad8)*%
X96085488Y-50654307D03*
%TO.P,L1,6,6*%
%TO.N,/Vp-*%
X97881539Y-52450358D03*
%TO.P,L1,7,7*%
%TO.N,GND*%
X101473641Y-52450358D03*
%TO.P,L1,8,8*%
%TO.N,Net-(H1-Pad11)*%
X103269693Y-50654307D03*
%TO.P,L1,9,9*%
%TO.N,Net-(H1-Pad12)*%
X101473641Y-48858256D03*
%TO.P,L1,10,10*%
%TO.N,Net-(H1-Pad1)*%
X101473641Y-30897743D03*
%TO.P,L1,11,11*%
%TO.N,/Vs+*%
X103269693Y-29101692D03*
%TO.P,L1,12,12*%
%TO.N,GND*%
X101473641Y-27305641D03*
D32*
%TO.P,L1,MH1,MH1*%
%TO.N,unconnected-(L1-PadMH1)*%
X85309180Y-39878000D03*
%TO.P,L1,MH2,MH2*%
%TO.N,unconnected-(L1-PadMH2)*%
X114046000Y-39878000D03*
%TD*%
D33*
%TO.P,IC2,1,ANODE*%
%TO.N,GND*%
X112065590Y-70627999D03*
%TO.P,IC2,2,REF*%
%TO.N,Net-(IC2-REF)*%
X112065590Y-68727999D03*
%TO.P,IC2,3,CATHODE*%
%TO.N,Net-(IC2-CATHODE)*%
X109789589Y-69677999D03*
%TD*%
D21*
%TO.P,R10,1*%
%TO.N,Net-(IC1-VREF)*%
X63230000Y-58674000D03*
%TO.P,R10,2*%
%TO.N,Net-(IC1-RT{slash}CT)*%
X61230000Y-58674000D03*
%TD*%
D34*
%TO.P,C2,1*%
%TO.N,/Vo*%
X131122590Y-41137999D03*
%TO.P,C2,2*%
%TO.N,GND*%
X131122590Y-56137999D03*
%TD*%
D26*
%TO.P,C9,1*%
%TO.N,/Vp+*%
X71677590Y-35877999D03*
D27*
%TO.P,C9,2*%
%TO.N,GNDREF*%
X76677590Y-35877999D03*
%TD*%
D35*
%TO.P,H1,1,1*%
%TO.N,Net-(H1-Pad1)*%
X112337590Y-23377999D03*
D13*
%TO.P,H1,2,2*%
%TO.N,/Vs+*%
X107257591Y-23377999D03*
%TO.P,H1,3,3*%
%TO.N,GND*%
X102177590Y-23377999D03*
%TO.P,H1,4,4*%
%TO.N,/Vp-*%
X97097590Y-23377999D03*
%TO.P,H1,5,5*%
%TO.N,/Vp+*%
X92017590Y-23377999D03*
%TO.P,H1,6,6*%
%TO.N,Net-(H1-Pad6)*%
X86937590Y-23377999D03*
%TO.P,H1,7,7*%
%TO.N,Net-(H1-Pad7)*%
X86937590Y-56397999D03*
%TO.P,H1,8,8*%
%TO.N,Net-(H1-Pad8)*%
X92017590Y-56397999D03*
%TO.P,H1,9,9*%
%TO.N,/Vp-*%
X97097590Y-56397999D03*
%TO.P,H1,10,10*%
%TO.N,GND*%
X102177590Y-56397999D03*
%TO.P,H1,11,11*%
%TO.N,Net-(H1-Pad11)*%
X107257590Y-56397998D03*
%TO.P,H1,12,12*%
%TO.N,Net-(H1-Pad12)*%
X112337590Y-56397999D03*
%TD*%
D12*
%TO.P,R11,1*%
%TO.N,/Vldo*%
X82550000Y-59960000D03*
%TO.P,R11,2*%
%TO.N,Net-(IC1-VFB)*%
X82550000Y-61960000D03*
%TD*%
D36*
%TO.P,IC1,1,COMP*%
%TO.N,Net-(IC1-COMP)*%
X65615590Y-60472999D03*
%TO.P,IC1,2,VFB*%
%TO.N,Net-(IC1-VFB)*%
X65615590Y-61742999D03*
%TO.P,IC1,3,ISENSE*%
%TO.N,Net-(IC1-ISENSE)*%
X65615590Y-63012999D03*
%TO.P,IC1,4,RT/CT*%
%TO.N,Net-(IC1-RT{slash}CT)*%
X65615590Y-64282999D03*
%TO.P,IC1,5,GROUND*%
%TO.N,GNDREF*%
X71239590Y-64282999D03*
%TO.P,IC1,6,OUTPUT*%
%TO.N,Net-(IC1-OUTPUT)*%
X71239590Y-63012999D03*
%TO.P,IC1,7,VI*%
%TO.N,/Vldo*%
X71239590Y-61742999D03*
%TO.P,IC1,8,VREF*%
%TO.N,Net-(IC1-VREF)*%
X71239590Y-60472999D03*
%TD*%
D28*
%TO.P,R7,1,1*%
%TO.N,Net-(R6-Pad2)*%
X73177590Y-67627999D03*
%TO.P,R7,2,2*%
%TO.N,Net-(Q1-S)*%
X78977590Y-67627999D03*
%TD*%
D21*
%TO.P,R13,1*%
%TO.N,Net-(IC4-ADJ)*%
X34798000Y-62877999D03*
%TO.P,R13,2*%
%TO.N,GNDREF*%
X32798000Y-62877999D03*
%TD*%
D37*
%TO.P,J2,1,Pin_1*%
%TO.N,/Vo*%
X131122590Y-32762999D03*
D38*
%TO.P,J2,2,Pin_2*%
%TO.N,GND*%
X131122590Y-26762999D03*
%TD*%
D39*
%TO.P,Q1,1,G*%
%TO.N,Net-(Q1-G)*%
X90177590Y-70608999D03*
D40*
%TO.P,Q1,2,D*%
%TO.N,/Vp-*%
X87477590Y-70608999D03*
%TO.P,Q1,3,S*%
%TO.N,Net-(Q1-S)*%
X84777589Y-70608999D03*
%TD*%
D26*
%TO.P,C4,1*%
%TO.N,Net-(C4-Pad1)*%
X42177590Y-47342999D03*
D27*
%TO.P,C4,2*%
%TO.N,GNDREF*%
X47177590Y-47342999D03*
%TD*%
D20*
%TO.P,R1,1*%
%TO.N,/Vi*%
X38677590Y-55377999D03*
%TO.P,R1,2*%
%TO.N,Net-(C4-Pad1)*%
X40677590Y-55377999D03*
%TD*%
D26*
%TO.P,C3,1*%
%TO.N,/Vo*%
X118594913Y-49907999D03*
D27*
%TO.P,C3,2*%
%TO.N,GND*%
X123594913Y-49907999D03*
%TD*%
D41*
%TO.P,VR1,1,CCW*%
%TO.N,Net-(VR1-CCW)*%
X120427590Y-64127999D03*
%TO.P,VR1,2,WIPER*%
%TO.N,Net-(IC2-REF)*%
X120427590Y-66627999D03*
%TO.P,VR1,3,CW*%
%TO.N,Net-(VR1-CW)*%
X120427590Y-69127999D03*
D42*
%TO.P,VR1,4*%
%TO.N,N/C*%
X127427590Y-62227999D03*
%TO.P,VR1,5*%
X127427590Y-71027999D03*
%TD*%
D13*
%TO.P,L3,1,1*%
%TO.N,Net-(C4-Pad1)*%
X59177590Y-17377999D03*
%TO.P,L3,2,2*%
%TO.N,/Vp+*%
X59177590Y-55377999D03*
%TD*%
D43*
%TO.P,J1,1,Pin_1*%
%TO.N,/Vi*%
X24177590Y-61877999D03*
D38*
%TO.P,J1,2,Pin_2*%
%TO.N,GNDREF*%
X24177590Y-67877999D03*
%TD*%
D44*
%TO.P,C5,1*%
%TO.N,/Vp+*%
X71677590Y-50627999D03*
D13*
%TO.P,C5,2*%
%TO.N,GNDREF*%
X79177590Y-50627999D03*
%TD*%
D29*
%TO.P,C15,1*%
%TO.N,/Vi*%
X34927590Y-59127999D03*
%TO.P,C15,2*%
%TO.N,GNDREF*%
X32852590Y-59127999D03*
%TD*%
D45*
%TO.N,GND*%
X113422438Y-70496438D03*
X113792000Y-73152000D03*
%TO.N,GNDREF*%
X56804000Y-71860850D03*
X54404000Y-71860850D03*
X54610000Y-58674000D03*
X38354000Y-66548000D03*
X57404000Y-73406000D03*
X94488000Y-64770000D03*
X32766000Y-60960000D03*
X58420000Y-65024000D03*
X56204000Y-73406000D03*
X55604000Y-71860850D03*
X57404000Y-72390000D03*
X54356000Y-72898000D03*
X73152000Y-64262000D03*
X55004000Y-72390000D03*
X55556000Y-72898000D03*
X56756000Y-72898000D03*
X56204000Y-72390000D03*
X55004000Y-73406000D03*
%TO.N,Net-(Q1-G)*%
X88900000Y-67818000D03*
X86106000Y-67818000D03*
%TO.N,Net-(IC1-RT{slash}CT)*%
X67487210Y-63830781D03*
X68547876Y-62770124D03*
%TO.N,Net-(IC1-VFB)*%
X87122000Y-64262000D03*
X80010000Y-64516000D03*
X90170000Y-65024000D03*
X81318331Y-63207669D03*
%TD*%
D46*
%TO.N,Net-(R4-Pad2)*%
X103737590Y-71667999D02*
X102000000Y-69930409D01*
X102000000Y-69930409D02*
X102000000Y-65500000D01*
X102000000Y-65500000D02*
X102500000Y-65000000D01*
X102500000Y-65000000D02*
X109649590Y-65000000D01*
X109649590Y-65000000D02*
X109927590Y-65278000D01*
%TO.N,Net-(IC2-REF)*%
X111927590Y-72877999D02*
X112274795Y-72877999D01*
X112274795Y-72877999D02*
X114276590Y-70876204D01*
X114276590Y-70876204D02*
X114276590Y-70480707D01*
X114276590Y-70480707D02*
X116029298Y-68727999D01*
X116029298Y-68727999D02*
X116077590Y-68727999D01*
D47*
%TO.N,/Vo*%
X118502590Y-49815676D02*
X118594913Y-49907999D01*
D46*
X115427590Y-65377999D02*
X112027589Y-65377999D01*
D47*
X127627589Y-22003000D02*
X118502590Y-31127999D01*
D46*
X118594913Y-49907999D02*
X118594913Y-62210676D01*
D47*
X118502590Y-31127999D02*
X118502590Y-49815676D01*
X127627589Y-19627999D02*
X127627589Y-29267998D01*
D46*
X118594913Y-62210676D02*
X115427590Y-65377999D01*
D47*
X127627589Y-19627999D02*
X127627589Y-22003000D01*
X131122590Y-32762999D02*
X131122590Y-41137999D01*
X127627589Y-29267998D02*
X131122590Y-32762999D01*
D48*
X112027589Y-65377999D02*
X111927590Y-65278000D01*
D46*
%TO.N,GND*%
X112065590Y-70627999D02*
X113290877Y-70627999D01*
D49*
X101473641Y-52450358D02*
X101473641Y-55694050D01*
D46*
X115427590Y-73127999D02*
X113816001Y-73127999D01*
D49*
X101473641Y-24892000D02*
X101473641Y-24081948D01*
D48*
X113290877Y-70627999D02*
X113422438Y-70496438D01*
X113816001Y-73127999D02*
X113792000Y-73152000D01*
D49*
X101473641Y-24892000D02*
X101473641Y-27305641D01*
X101473641Y-55694050D02*
X102177590Y-56397999D01*
X101473641Y-24081948D02*
X102177590Y-23377999D01*
D50*
%TO.N,GNDREF*%
X60174001Y-70127999D02*
X57404000Y-72898000D01*
D46*
X55313999Y-59377999D02*
X54610000Y-58674000D01*
D48*
X96117590Y-66587999D02*
X96117590Y-66399590D01*
D50*
X60277589Y-70127999D02*
X60174001Y-70127999D01*
D46*
X32766000Y-59214589D02*
X32852590Y-59127999D01*
X96117590Y-66399590D02*
X94488000Y-64770000D01*
X55852590Y-59377999D02*
X55313999Y-59377999D01*
X73131001Y-64282999D02*
X73152000Y-64262000D01*
X32927590Y-62877999D02*
X32927590Y-62830410D01*
X32927590Y-62830410D02*
X33020000Y-62738000D01*
X71239590Y-64282999D02*
X73131001Y-64282999D01*
D47*
X47206528Y-36377999D02*
X47206528Y-47314061D01*
X47206528Y-47314061D02*
X47177590Y-47342999D01*
X47177590Y-36349061D02*
X47206528Y-36377999D01*
X47177590Y-25342999D02*
X47177590Y-36349061D01*
D46*
X32798000Y-62877999D02*
X32798000Y-60992000D01*
X58316001Y-65127999D02*
X58420000Y-65024000D01*
X38677590Y-67802999D02*
X38677590Y-66871590D01*
X38677590Y-66871590D02*
X38354000Y-66548000D01*
X32766000Y-60960000D02*
X32766000Y-59214589D01*
X57177590Y-65127999D02*
X58316001Y-65127999D01*
X55427590Y-69702999D02*
X55427590Y-70921590D01*
X32798000Y-60992000D02*
X32766000Y-60960000D01*
%TO.N,Net-(IC1-OUTPUT)*%
X71239590Y-63012999D02*
X71607001Y-63012999D01*
X71607001Y-63012999D02*
X71628000Y-62992000D01*
X71239590Y-63012999D02*
X80062999Y-63012999D01*
X80062999Y-63012999D02*
X82836000Y-65786000D01*
D47*
%TO.N,/Vp+*%
X71677590Y-24877999D02*
X75578590Y-20976999D01*
X71677590Y-35877999D02*
X71677590Y-24877999D01*
X66927590Y-55377999D02*
X71677590Y-50627999D01*
X71677590Y-50627999D02*
X71677590Y-35877999D01*
D51*
X96085488Y-27445897D02*
X92017590Y-23377999D01*
D47*
X59177590Y-55377999D02*
X66927590Y-55377999D01*
D51*
X96085488Y-29101692D02*
X96085488Y-27445897D01*
D47*
X89616590Y-20976999D02*
X92017590Y-23377999D01*
X75578590Y-20976999D02*
X89616590Y-20976999D01*
D46*
%TO.N,Net-(IC2-REF)*%
X116077590Y-68727999D02*
X118327590Y-68727999D01*
X112065590Y-68727999D02*
X116077590Y-68727999D01*
X118327590Y-68727999D02*
X120427590Y-66627999D01*
%TO.N,Net-(IC2-CATHODE)*%
X109239589Y-69127999D02*
X109789589Y-69677999D01*
X109789589Y-69677999D02*
X109789589Y-72814998D01*
X103737590Y-69127999D02*
X109239589Y-69127999D01*
D48*
X109789589Y-72814998D02*
X109852590Y-72877999D01*
D47*
%TO.N,/Vs+*%
X111007591Y-19627999D02*
X125077589Y-19627999D01*
X125077589Y-19627999D02*
X125077589Y-18973391D01*
X126688981Y-17361999D02*
X128566197Y-17361999D01*
X107257591Y-23377999D02*
X111007591Y-19627999D01*
X107257591Y-25113794D02*
X103269693Y-29101692D01*
X128566197Y-17361999D02*
X130177590Y-18973392D01*
X107257591Y-23377999D02*
X107257591Y-25113794D01*
X125077589Y-18973391D02*
X126688981Y-17361999D01*
X130177590Y-18973392D02*
X130177590Y-19627999D01*
D46*
%TO.N,Net-(IC1-ISENSE)*%
X61927590Y-63008000D02*
X57222589Y-63008000D01*
X65615590Y-63012999D02*
X61932589Y-63012999D01*
X61932589Y-63012999D02*
X61927590Y-63008000D01*
X57222589Y-63008000D02*
X57177590Y-63052999D01*
%TO.N,Net-(Q1-G)*%
X84836000Y-65786000D02*
X84836000Y-66548000D01*
X88900000Y-67818000D02*
X89154000Y-67818000D01*
X89154000Y-67818000D02*
X90177590Y-68841590D01*
X84836000Y-66548000D02*
X86106000Y-67818000D01*
X90177590Y-68841590D02*
X90177590Y-70608999D01*
D50*
%TO.N,Net-(Q1-S)*%
X78977590Y-67627999D02*
X78977590Y-71877999D01*
X81958590Y-70608999D02*
X78977590Y-67627999D01*
D46*
X62753589Y-68849589D02*
X62753589Y-65953998D01*
X78977590Y-71877999D02*
X76751590Y-74103999D01*
X68007999Y-74103999D02*
X62753589Y-68849589D01*
X62753589Y-65953998D02*
X61927590Y-65127999D01*
D50*
X84777589Y-70608999D02*
X80246590Y-70608999D01*
X80246590Y-70608999D02*
X78977590Y-71877999D01*
D46*
X76751590Y-74103999D02*
X68007999Y-74103999D01*
D50*
X84777589Y-70608999D02*
X81958590Y-70608999D01*
D51*
%TO.N,/Vp-*%
X97881539Y-55614050D02*
X97097590Y-56397999D01*
X97881539Y-52450358D02*
X99467539Y-50864358D01*
X97097590Y-56397999D02*
X87477590Y-66017999D01*
X99467539Y-28891641D02*
X97881539Y-27305641D01*
X87477590Y-66017999D02*
X87477590Y-70608999D01*
D49*
X97881539Y-27305641D02*
X97881539Y-24161948D01*
X97881539Y-24161948D02*
X97097590Y-23377999D01*
D51*
X99467539Y-50864358D02*
X99467539Y-28891641D01*
X97881539Y-52450358D02*
X97881539Y-55614050D01*
D46*
%TO.N,Net-(VR1-CCW)*%
X117177590Y-67377999D02*
X120427590Y-64127999D01*
X115427590Y-67377999D02*
X117177590Y-67377999D01*
%TO.N,Net-(VR1-CW)*%
X118427590Y-71127999D02*
X120427590Y-69127999D01*
X115427590Y-71127999D02*
X118427590Y-71127999D01*
%TO.N,Net-(IC1-RT{slash}CT)*%
X67034992Y-64282999D02*
X67487210Y-63830781D01*
X68547876Y-61290785D02*
X66632091Y-59375000D01*
X60526001Y-59377999D02*
X61230000Y-58674000D01*
X68547876Y-62770124D02*
X68547876Y-61290785D01*
X65615590Y-64282999D02*
X67034992Y-64282999D01*
X62754000Y-60198000D02*
X61230000Y-58674000D01*
X64831000Y-59375000D02*
X64008000Y-60198000D01*
X66632091Y-59375000D02*
X64831000Y-59375000D01*
X64008000Y-60198000D02*
X62754000Y-60198000D01*
X57927590Y-59377999D02*
X60526001Y-59377999D01*
%TO.N,Net-(IC1-VFB)*%
X54610000Y-61742999D02*
X54095386Y-61742999D01*
X84836000Y-64262000D02*
X87122000Y-64262000D01*
X94273999Y-69127999D02*
X96117590Y-69127999D01*
X66460090Y-61742999D02*
X69995091Y-65278000D01*
X90170000Y-65024000D02*
X94273999Y-69127999D01*
X69995091Y-65278000D02*
X79248000Y-65278000D01*
X81318331Y-63191669D02*
X82550000Y-61960000D01*
X52427590Y-60627999D02*
X53603590Y-61803999D01*
X53664590Y-61742999D02*
X54610000Y-61742999D01*
X52427590Y-65127999D02*
X52927590Y-65127999D01*
X65615590Y-61742999D02*
X66460090Y-61742999D01*
X53848000Y-63707589D02*
X52427590Y-65127999D01*
X82550000Y-61976000D02*
X84836000Y-64262000D01*
X52927590Y-65127999D02*
X55427590Y-67627999D01*
X55427590Y-67627999D02*
X54986796Y-67187204D01*
X53603590Y-61803999D02*
X53664590Y-61742999D01*
X79248000Y-65278000D02*
X80010000Y-64516000D01*
X81318331Y-63207669D02*
X81318331Y-63191669D01*
X54095386Y-61742999D02*
X54102000Y-61749613D01*
X53848000Y-63707589D02*
X53848000Y-62048409D01*
X53848000Y-62003613D02*
X54102000Y-61749613D01*
X82550000Y-61960000D02*
X82550000Y-61976000D01*
X54610000Y-61742999D02*
X65615590Y-61742999D01*
X53848000Y-62048409D02*
X53848000Y-62003613D01*
X53848000Y-62048409D02*
X53603590Y-61803999D01*
%TO.N,Net-(IC1-COMP)*%
X64302090Y-60960000D02*
X54759591Y-60960000D01*
X65615590Y-60472999D02*
X65146590Y-60941999D01*
X50800000Y-61425409D02*
X52427590Y-63052999D01*
X64302090Y-60941999D02*
X64302090Y-60960000D01*
X52427590Y-58627999D02*
X50800000Y-60255589D01*
X54759591Y-60960000D02*
X52427590Y-58627999D01*
X50800000Y-60255589D02*
X50800000Y-61425409D01*
X65146590Y-60941999D02*
X64302090Y-60941999D01*
%TO.N,/Vi*%
X32009999Y-55377999D02*
X34927590Y-58295590D01*
D10*
X35082590Y-58972999D02*
X34927590Y-59127999D01*
D50*
X24177590Y-60877999D02*
X24177590Y-61877999D01*
D46*
X34927590Y-58295590D02*
X34927590Y-59127999D01*
X29677590Y-55377999D02*
X38677590Y-55377999D01*
X29677590Y-55377999D02*
X32009999Y-55377999D01*
D50*
X26779794Y-58275794D02*
X29677590Y-55377999D01*
X26779794Y-58275794D02*
X24177590Y-60877999D01*
D10*
X37715590Y-58972999D02*
X35082590Y-58972999D01*
D46*
%TO.N,Net-(D2-A)*%
X33907591Y-69127999D02*
X33907591Y-69463272D01*
X38677590Y-69877999D02*
X41443591Y-72644000D01*
X33907591Y-69463272D02*
X34773318Y-70328999D01*
X44241589Y-72644000D02*
X47177590Y-69707999D01*
X34773318Y-70328999D02*
X38226590Y-70328999D01*
X38226590Y-70328999D02*
X38677590Y-69877999D01*
X41443591Y-72644000D02*
X44241589Y-72644000D01*
%TO.N,/Vldo*%
X37715590Y-60242999D02*
X43139590Y-60242999D01*
X73395501Y-59192499D02*
X75946000Y-61742999D01*
X46482590Y-60242999D02*
X47177590Y-59547999D01*
X37715590Y-61512999D02*
X37715590Y-60242999D01*
X71239590Y-61742999D02*
X72602090Y-61742999D01*
X72602090Y-61742999D02*
X73395501Y-60949588D01*
X47177590Y-59547999D02*
X49321589Y-57404000D01*
X75946000Y-61742999D02*
X71239590Y-61742999D01*
X43139590Y-61512999D02*
X43859090Y-61512999D01*
X43927590Y-66377999D02*
X43927590Y-70877999D01*
X43859090Y-61512999D02*
X44958000Y-62611909D01*
X37715590Y-61512999D02*
X43139590Y-61512999D01*
X47386001Y-59547999D02*
X47177590Y-59547999D01*
D10*
X43139590Y-61512999D02*
X42926000Y-61512999D01*
D46*
X71607002Y-57404000D02*
X73395501Y-59192499D01*
X44958000Y-65347589D02*
X43927590Y-66377999D01*
X73395501Y-60949588D02*
X73395501Y-59192499D01*
X82550000Y-59960000D02*
X80767001Y-61742999D01*
X43139590Y-60242999D02*
X46482590Y-60242999D01*
X47386001Y-59547999D02*
X47752000Y-59182000D01*
X49321589Y-57404000D02*
X71607002Y-57404000D01*
X80767001Y-61742999D02*
X75946000Y-61742999D01*
X44958000Y-62611909D02*
X44958000Y-65347589D01*
X43139590Y-60242999D02*
X43139590Y-61512999D01*
D49*
%TO.N,Net-(H1-Pad12)*%
X101473641Y-48858256D02*
X104797847Y-48858256D01*
X104797847Y-48858256D02*
X112337590Y-56397999D01*
%TO.N,Net-(H1-Pad11)*%
X103269693Y-50654307D02*
X103269693Y-52410101D01*
X103269693Y-52410101D02*
X107257590Y-56397998D01*
%TO.N,Net-(H1-Pad1)*%
X101473641Y-30897743D02*
X104817846Y-30897743D01*
X104817846Y-30897743D02*
X112337590Y-23377999D01*
%TO.N,Net-(H1-Pad6)*%
X94457334Y-30897743D02*
X86937590Y-23377999D01*
X97881539Y-30897743D02*
X94457334Y-30897743D01*
D46*
%TO.N,Net-(IC1-VREF)*%
X63230000Y-58674000D02*
X69440591Y-58674000D01*
X69440591Y-58674000D02*
X71239590Y-60472999D01*
D49*
%TO.N,Net-(H1-Pad7)*%
X97881539Y-48858256D02*
X94477333Y-48858256D01*
X94477333Y-48858256D02*
X86937590Y-56397999D01*
%TO.N,Net-(H1-Pad8)*%
X96085488Y-52330101D02*
X92017590Y-56397999D01*
X96085488Y-50654307D02*
X96085488Y-52330101D01*
D46*
%TO.N,Net-(IC4-ADJ)*%
X34798000Y-62877999D02*
X37620590Y-62877999D01*
X32637590Y-65038409D02*
X34798000Y-62877999D01*
X38332590Y-62782999D02*
X41927590Y-66377999D01*
X37620590Y-62877999D02*
X37715590Y-62782999D01*
X32637590Y-69127999D02*
X32637590Y-65038409D01*
X37715590Y-62782999D02*
X38332590Y-62782999D01*
X41927590Y-66377999D02*
X41927590Y-70877999D01*
D50*
%TO.N,Net-(R6-Pad2)*%
X73177590Y-71877999D02*
X71327591Y-71877999D01*
X72077591Y-67627999D02*
X69577591Y-70127999D01*
X73177590Y-67627999D02*
X73177590Y-71877999D01*
X73177590Y-67627999D02*
X72077591Y-67627999D01*
X71327591Y-71877999D02*
X69577591Y-70127999D01*
D47*
%TO.N,Net-(C4-Pad1)*%
X42177590Y-22217589D02*
X42177590Y-22190409D01*
X42177590Y-25342999D02*
X42177590Y-36349061D01*
X42177590Y-22190409D02*
X46990000Y-17377999D01*
X42177590Y-36349061D02*
X42206528Y-36377999D01*
X42177590Y-25342999D02*
X42177590Y-22217589D01*
D50*
X29677590Y-17377999D02*
X37338000Y-17377999D01*
D47*
X42206528Y-36377999D02*
X42206528Y-47314061D01*
D46*
X40677590Y-48842999D02*
X42177590Y-47342999D01*
D50*
X46990000Y-17377999D02*
X59177590Y-17377999D01*
D47*
X42177590Y-22217589D02*
X37338000Y-17377999D01*
D46*
X40677590Y-55377999D02*
X40677590Y-48842999D01*
D50*
X37338000Y-17377999D02*
X46990000Y-17377999D01*
D47*
X42206528Y-47314061D02*
X42177590Y-47342999D01*
%TD*%
M02*
