%TF.GenerationSoftware,KiCad,Pcbnew,9.0.7*%
%TF.CreationDate,2026-01-07T19:43:00+01:00*%
%TF.ProjectId,power-electronics2,706f7765-722d-4656-9c65-6374726f6e69,rev?*%
%TF.SameCoordinates,Original*%
%TF.FileFunction,Copper,L2,Bot*%
%TF.FilePolarity,Positive*%
%FSLAX46Y46*%
G04 Gerber Fmt 4.6, Leading zero omitted, Abs format (unit mm)*
G04 Created by KiCad (PCBNEW 9.0.7) date 2026-01-07 19:43:00*
%MOMM*%
%LPD*%
G01*
G04 APERTURE LIST*
G04 Aperture macros list*
%AMRoundRect*
0 Rectangle with rounded corners*
0 $1 Rounding radius*
0 $2 $3 $4 $5 $6 $7 $8 $9 X,Y pos of 4 corners*
0 Add a 4 corners polygon primitive as box body*
4,1,4,$2,$3,$4,$5,$6,$7,$8,$9,$2,$3,0*
0 Add four circle primitives for the rounded corners*
1,1,$1+$1,$2,$3*
1,1,$1+$1,$4,$5*
1,1,$1+$1,$6,$7*
1,1,$1+$1,$8,$9*
0 Add four rect primitives between the rounded corners*
20,1,$1+$1,$2,$3,$4,$5,0*
20,1,$1+$1,$4,$5,$6,$7,0*
20,1,$1+$1,$6,$7,$8,$9,0*
20,1,$1+$1,$8,$9,$2,$3,0*%
G04 Aperture macros list end*
%TA.AperFunction,ComponentPad*%
%ADD10C,2.400000*%
%TD*%
%TA.AperFunction,ComponentPad*%
%ADD11R,2.130000X2.130000*%
%TD*%
%TA.AperFunction,ComponentPad*%
%ADD12C,2.130000*%
%TD*%
%TA.AperFunction,ComponentPad*%
%ADD13RoundRect,0.249999X-0.850001X0.850001X-0.850001X-0.850001X0.850001X-0.850001X0.850001X0.850001X0*%
%TD*%
%TA.AperFunction,ComponentPad*%
%ADD14C,2.200000*%
%TD*%
%TA.AperFunction,ComponentPad*%
%ADD15R,1.050000X1.500000*%
%TD*%
%TA.AperFunction,ComponentPad*%
%ADD16O,1.050000X1.500000*%
%TD*%
%TA.AperFunction,ComponentPad*%
%ADD17RoundRect,0.250000X-0.750000X-0.750000X0.750000X-0.750000X0.750000X0.750000X-0.750000X0.750000X0*%
%TD*%
%TA.AperFunction,ComponentPad*%
%ADD18C,2.000000*%
%TD*%
%TA.AperFunction,ComponentPad*%
%ADD19C,1.500000*%
%TD*%
%TA.AperFunction,ComponentPad*%
%ADD20C,1.950000*%
%TD*%
%TA.AperFunction,ComponentPad*%
%ADD21C,1.600000*%
%TD*%
%TA.AperFunction,ComponentPad*%
%ADD22R,2.400000X2.400000*%
%TD*%
%TA.AperFunction,ComponentPad*%
%ADD23RoundRect,0.250000X1.325000X-1.325000X1.325000X1.325000X-1.325000X1.325000X-1.325000X-1.325000X0*%
%TD*%
%TA.AperFunction,ComponentPad*%
%ADD24C,3.150000*%
%TD*%
%TA.AperFunction,ComponentPad*%
%ADD25R,1.980000X1.980000*%
%TD*%
%TA.AperFunction,ComponentPad*%
%ADD26C,1.980000*%
%TD*%
%TA.AperFunction,ComponentPad*%
%ADD27C,1.800000*%
%TD*%
%TA.AperFunction,ComponentPad*%
%ADD28C,4.460000*%
%TD*%
%TA.AperFunction,ComponentPad*%
%ADD29RoundRect,0.250000X-1.325000X1.325000X-1.325000X-1.325000X1.325000X-1.325000X1.325000X1.325000X0*%
%TD*%
%TA.AperFunction,ComponentPad*%
%ADD30RoundRect,0.250001X-0.949999X-0.949999X0.949999X-0.949999X0.949999X0.949999X-0.949999X0.949999X0*%
%TD*%
%TA.AperFunction,ViaPad*%
%ADD31C,0.600000*%
%TD*%
%TA.AperFunction,Conductor*%
%ADD32C,0.500000*%
%TD*%
G04 APERTURE END LIST*
D10*
%TO.P,L4,1,1*%
%TO.N,/Vi*%
X29677590Y-55377999D03*
%TO.P,L4,2,2*%
%TO.N,Net-(C4-Pad1)*%
X29677590Y-17377999D03*
%TD*%
D11*
%TO.P,D1,1,A1*%
%TO.N,/Vs+*%
X125077589Y-19627999D03*
D12*
%TO.P,D1,2,K*%
%TO.N,/Vo*%
X127627589Y-19627999D03*
%TO.P,D1,3,A2*%
%TO.N,/Vs+*%
X130177590Y-19627999D03*
%TD*%
D13*
%TO.P,D2,1,K*%
%TO.N,/Vldo*%
X47177590Y-59547999D03*
D14*
%TO.P,D2,2,A*%
%TO.N,Net-(D2-A)*%
X47177590Y-69707999D03*
%TD*%
D15*
%TO.P,Q2,1,E*%
%TO.N,Net-(IC4-ADJ)*%
X32637590Y-69127999D03*
D16*
%TO.P,Q2,2,B*%
%TO.N,Net-(D2-A)*%
X33907591Y-69127999D03*
%TO.P,Q2,3,C*%
%TO.N,GNDREF*%
X35177590Y-69127999D03*
%TD*%
D17*
%TO.P,C1,1*%
%TO.N,/Vo*%
X118502590Y-31127999D03*
D18*
%TO.P,C1,2*%
%TO.N,GND*%
X123502590Y-31127999D03*
%TD*%
D17*
%TO.P,C7,1*%
%TO.N,Net-(C4-Pad1)*%
X42206528Y-36377999D03*
D18*
%TO.P,C7,2*%
%TO.N,GNDREF*%
X47206528Y-36377999D03*
%TD*%
D17*
%TO.P,C8,1*%
%TO.N,/Vp+*%
X71677590Y-24877999D03*
D18*
%TO.P,C8,2*%
%TO.N,GNDREF*%
X76677590Y-24877999D03*
%TD*%
D17*
%TO.P,C6,1*%
%TO.N,Net-(C4-Pad1)*%
X42177590Y-25342999D03*
D18*
%TO.P,C6,2*%
%TO.N,GNDREF*%
X47177590Y-25342999D03*
%TD*%
D19*
%TO.P,L1,1,1*%
%TO.N,/Vp-*%
X97881539Y-27305641D03*
%TO.P,L1,2,2*%
%TO.N,/Vp+*%
X96085488Y-29101692D03*
%TO.P,L1,3,3*%
%TO.N,Net-(H1-Pad6)*%
X97881539Y-30897743D03*
%TO.P,L1,4,4*%
%TO.N,Net-(H1-Pad7)*%
X97881539Y-48858256D03*
%TO.P,L1,5,5*%
%TO.N,Net-(H1-Pad8)*%
X96085488Y-50654307D03*
%TO.P,L1,6,6*%
%TO.N,/Vp-*%
X97881539Y-52450358D03*
%TO.P,L1,7,7*%
%TO.N,GND*%
X101473641Y-52450358D03*
%TO.P,L1,8,8*%
%TO.N,Net-(H1-Pad11)*%
X103269693Y-50654307D03*
%TO.P,L1,9,9*%
%TO.N,Net-(H1-Pad12)*%
X101473641Y-48858256D03*
%TO.P,L1,10,10*%
%TO.N,Net-(H1-Pad1)*%
X101473641Y-30897743D03*
%TO.P,L1,11,11*%
%TO.N,/Vs+*%
X103269693Y-29101692D03*
%TO.P,L1,12,12*%
%TO.N,GND*%
X101473641Y-27305641D03*
D20*
%TO.P,L1,MH1,MH1*%
%TO.N,unconnected-(L1-PadMH1)*%
X85309180Y-39878000D03*
%TO.P,L1,MH2,MH2*%
%TO.N,unconnected-(L1-PadMH2)*%
X114046000Y-39878000D03*
%TD*%
D21*
%TO.P,C2,1*%
%TO.N,/Vo*%
X131122590Y-41137999D03*
%TO.P,C2,2*%
%TO.N,GND*%
X131122590Y-56137999D03*
%TD*%
D17*
%TO.P,C9,1*%
%TO.N,/Vp+*%
X71677590Y-35877999D03*
D18*
%TO.P,C9,2*%
%TO.N,GNDREF*%
X76677590Y-35877999D03*
%TD*%
D22*
%TO.P,H1,1,1*%
%TO.N,Net-(H1-Pad1)*%
X112337590Y-23377999D03*
D10*
%TO.P,H1,2,2*%
%TO.N,/Vs+*%
X107257591Y-23377999D03*
%TO.P,H1,3,3*%
%TO.N,GND*%
X102177590Y-23377999D03*
%TO.P,H1,4,4*%
%TO.N,/Vp-*%
X97097590Y-23377999D03*
%TO.P,H1,5,5*%
%TO.N,/Vp+*%
X92017590Y-23377999D03*
%TO.P,H1,6,6*%
%TO.N,Net-(H1-Pad6)*%
X86937590Y-23377999D03*
%TO.P,H1,7,7*%
%TO.N,Net-(H1-Pad7)*%
X86937590Y-56397999D03*
%TO.P,H1,8,8*%
%TO.N,Net-(H1-Pad8)*%
X92017590Y-56397999D03*
%TO.P,H1,9,9*%
%TO.N,/Vp-*%
X97097590Y-56397999D03*
%TO.P,H1,10,10*%
%TO.N,GND*%
X102177590Y-56397999D03*
%TO.P,H1,11,11*%
%TO.N,Net-(H1-Pad11)*%
X107257590Y-56397998D03*
%TO.P,H1,12,12*%
%TO.N,Net-(H1-Pad12)*%
X112337590Y-56397999D03*
%TD*%
D23*
%TO.P,J2,1,Pin_1*%
%TO.N,/Vo*%
X131122590Y-32762999D03*
D24*
%TO.P,J2,2,Pin_2*%
%TO.N,GND*%
X131122590Y-26762999D03*
%TD*%
D25*
%TO.P,Q1,1,G*%
%TO.N,Net-(Q1-G)*%
X90177590Y-70608999D03*
D26*
%TO.P,Q1,2,D*%
%TO.N,/Vp-*%
X87477590Y-70608999D03*
%TO.P,Q1,3,S*%
%TO.N,Net-(Q1-S)*%
X84777589Y-70608999D03*
%TD*%
D17*
%TO.P,C4,1*%
%TO.N,Net-(C4-Pad1)*%
X42177590Y-47342999D03*
D18*
%TO.P,C4,2*%
%TO.N,GNDREF*%
X47177590Y-47342999D03*
%TD*%
D17*
%TO.P,C3,1*%
%TO.N,/Vo*%
X118594913Y-49907999D03*
D18*
%TO.P,C3,2*%
%TO.N,GND*%
X123594913Y-49907999D03*
%TD*%
D27*
%TO.P,VR1,1,CCW*%
%TO.N,Net-(VR1-CCW)*%
X120427590Y-64127999D03*
%TO.P,VR1,2,WIPER*%
%TO.N,Net-(IC2-REF)*%
X120427590Y-66627999D03*
%TO.P,VR1,3,CW*%
%TO.N,Net-(VR1-CW)*%
X120427590Y-69127999D03*
D28*
%TO.P,VR1,4*%
%TO.N,N/C*%
X127427590Y-62227999D03*
%TO.P,VR1,5*%
X127427590Y-71027999D03*
%TD*%
D10*
%TO.P,L3,1,1*%
%TO.N,Net-(C4-Pad1)*%
X59177590Y-17377999D03*
%TO.P,L3,2,2*%
%TO.N,/Vp+*%
X59177590Y-55377999D03*
%TD*%
D29*
%TO.P,J1,1,Pin_1*%
%TO.N,/Vi*%
X24177590Y-61877999D03*
D24*
%TO.P,J1,2,Pin_2*%
%TO.N,GNDREF*%
X24177590Y-67877999D03*
%TD*%
D30*
%TO.P,C5,1*%
%TO.N,/Vp+*%
X71677590Y-50627999D03*
D10*
%TO.P,C5,2*%
%TO.N,GNDREF*%
X79177590Y-50627999D03*
%TD*%
D31*
%TO.N,GND*%
X113422438Y-70496438D03*
X113792000Y-73152000D03*
%TO.N,GNDREF*%
X56804000Y-71860850D03*
X54404000Y-71860850D03*
X54610000Y-58674000D03*
X38354000Y-66548000D03*
X57404000Y-73406000D03*
X94488000Y-64770000D03*
X32766000Y-60960000D03*
X58420000Y-65024000D03*
X56204000Y-73406000D03*
X55604000Y-71860850D03*
X57404000Y-72390000D03*
X54356000Y-72898000D03*
X73152000Y-64262000D03*
X55004000Y-72390000D03*
X55556000Y-72898000D03*
X56756000Y-72898000D03*
X56204000Y-72390000D03*
X55004000Y-73406000D03*
%TO.N,Net-(Q1-G)*%
X88900000Y-67818000D03*
X86106000Y-67818000D03*
%TO.N,Net-(IC1-RT{slash}CT)*%
X67487210Y-63830781D03*
X68547876Y-62770124D03*
%TO.N,Net-(IC1-VFB)*%
X87122000Y-64262000D03*
X80010000Y-64516000D03*
X90170000Y-65024000D03*
X81318331Y-63207669D03*
%TD*%
D32*
%TO.N,Net-(Q1-G)*%
X86106000Y-67818000D02*
X88900000Y-67818000D01*
%TO.N,Net-(IC1-RT{slash}CT)*%
X67487210Y-63830781D02*
X67487219Y-63830781D01*
X67487219Y-63830781D02*
X68547876Y-62770124D01*
%TO.N,Net-(IC1-VFB)*%
X80010000Y-64516000D02*
X81318331Y-63207669D01*
X89408000Y-64262000D02*
X90170000Y-65024000D01*
X87122000Y-64262000D02*
X89408000Y-64262000D01*
%TD*%
%TA.AperFunction,Conductor*%
%TO.N,GNDREF*%
G36*
X96373715Y-15497686D02*
G01*
X96673750Y-15653874D01*
X96681230Y-15658192D01*
X97041832Y-15887921D01*
X97048906Y-15892875D01*
X97388095Y-16153144D01*
X97394711Y-16158695D01*
X97709936Y-16447545D01*
X97716044Y-16453653D01*
X98004894Y-16768878D01*
X98010445Y-16775494D01*
X98270714Y-17114683D01*
X98275668Y-17121757D01*
X98505397Y-17482359D01*
X98509715Y-17489839D01*
X98707132Y-17869073D01*
X98710782Y-17876900D01*
X98874398Y-18271905D01*
X98877352Y-18280021D01*
X99005920Y-18687785D01*
X99008155Y-18696128D01*
X99100692Y-19113537D01*
X99102192Y-19122042D01*
X99157998Y-19545932D01*
X99158751Y-19554535D01*
X99177496Y-19983846D01*
X99177590Y-19988165D01*
X99177590Y-70435834D01*
X99177496Y-70440153D01*
X99158751Y-70869464D01*
X99157998Y-70878067D01*
X99102192Y-71301957D01*
X99100692Y-71310462D01*
X99008155Y-71727871D01*
X99005920Y-71736214D01*
X98877352Y-72143978D01*
X98874398Y-72152094D01*
X98710782Y-72547099D01*
X98707132Y-72554926D01*
X98509715Y-72934160D01*
X98505397Y-72941640D01*
X98275668Y-73302242D01*
X98270714Y-73309316D01*
X98010445Y-73648505D01*
X98004894Y-73655121D01*
X97716044Y-73970346D01*
X97709936Y-73976454D01*
X97394711Y-74265304D01*
X97388095Y-74270855D01*
X97048906Y-74531124D01*
X97041832Y-74536078D01*
X96681230Y-74765807D01*
X96673750Y-74770125D01*
X96373715Y-74926314D01*
X96328002Y-74937500D01*
X23322985Y-74937500D01*
X23317008Y-74937319D01*
X23293564Y-74935900D01*
X23024695Y-74919637D01*
X23012828Y-74918196D01*
X22727721Y-74865948D01*
X22716113Y-74863087D01*
X22439384Y-74776855D01*
X22428206Y-74772616D01*
X22163880Y-74653652D01*
X22153295Y-74648096D01*
X21905248Y-74498147D01*
X21895413Y-74491358D01*
X21667244Y-74312600D01*
X21658295Y-74304673D01*
X21453326Y-74099704D01*
X21445399Y-74090755D01*
X21355850Y-73976454D01*
X21266638Y-73862583D01*
X21259856Y-73852758D01*
X21109903Y-73604704D01*
X21104347Y-73594119D01*
X20985383Y-73329793D01*
X20981147Y-73318623D01*
X20894911Y-73041883D01*
X20892051Y-73030278D01*
X20877752Y-72952250D01*
X20839802Y-72745164D01*
X20838362Y-72733303D01*
X20820681Y-72440992D01*
X20820500Y-72435015D01*
X20820500Y-67741995D01*
X22102590Y-67741995D01*
X22102590Y-68014002D01*
X22138093Y-68283672D01*
X22138093Y-68283677D01*
X22208492Y-68546409D01*
X22208496Y-68546422D01*
X22312582Y-68797709D01*
X22448588Y-69033279D01*
X22544179Y-69157854D01*
X23259196Y-68442836D01*
X23357626Y-68578314D01*
X23477275Y-68697963D01*
X23612749Y-68796391D01*
X22897732Y-69511409D01*
X23022309Y-69607000D01*
X23257879Y-69743006D01*
X23509166Y-69847092D01*
X23509179Y-69847096D01*
X23771913Y-69917495D01*
X24041586Y-69952998D01*
X24041588Y-69952999D01*
X24313592Y-69952999D01*
X24313593Y-69952998D01*
X24583263Y-69917495D01*
X24583268Y-69917495D01*
X24846000Y-69847096D01*
X24846013Y-69847092D01*
X25097300Y-69743006D01*
X25332880Y-69606994D01*
X25457446Y-69511409D01*
X24742429Y-68796392D01*
X24877905Y-68697963D01*
X24997554Y-68578314D01*
X25095983Y-68442838D01*
X25811000Y-69157855D01*
X25906585Y-69033289D01*
X26042597Y-68797709D01*
X26146683Y-68546422D01*
X26146687Y-68546409D01*
X26197104Y-68358252D01*
X31912090Y-68358252D01*
X31912090Y-69897745D01*
X31912091Y-69897757D01*
X31923722Y-69956226D01*
X31923724Y-69956232D01*
X31961344Y-70012533D01*
X31968038Y-70022551D01*
X32034359Y-70066866D01*
X32078821Y-70075710D01*
X32092831Y-70078497D01*
X32092836Y-70078497D01*
X32092842Y-70078499D01*
X32092843Y-70078499D01*
X33182337Y-70078499D01*
X33182338Y-70078499D01*
X33240821Y-70066866D01*
X33307142Y-70022551D01*
X33343702Y-69967834D01*
X33391750Y-69929957D01*
X33452888Y-69927555D01*
X33481018Y-69940523D01*
X33563930Y-69995924D01*
X33563942Y-69995930D01*
X33589224Y-70006402D01*
X33695971Y-70050618D01*
X33836136Y-70078499D01*
X33836137Y-70078499D01*
X33979045Y-70078499D01*
X33979046Y-70078499D01*
X34119211Y-70050618D01*
X34251244Y-69995928D01*
X34255442Y-69993122D01*
X34314325Y-69976510D01*
X34371730Y-69997681D01*
X34380452Y-70005431D01*
X34524181Y-70149161D01*
X34524190Y-70149168D01*
X34692062Y-70261339D01*
X34692074Y-70261345D01*
X34878606Y-70338608D01*
X34878609Y-70338609D01*
X34927589Y-70348351D01*
X34927590Y-70348351D01*
X34927590Y-69408329D01*
X34947335Y-69428074D01*
X35032845Y-69477443D01*
X35128220Y-69502999D01*
X35226960Y-69502999D01*
X35322335Y-69477443D01*
X35407845Y-69428074D01*
X35427590Y-69408329D01*
X35427590Y-70348351D01*
X35476570Y-70338609D01*
X35476573Y-70338608D01*
X35663105Y-70261345D01*
X35663117Y-70261339D01*
X35830989Y-70149168D01*
X35830993Y-70149165D01*
X35973756Y-70006402D01*
X35973759Y-70006398D01*
X36085930Y-69838526D01*
X36085936Y-69838514D01*
X36163199Y-69651982D01*
X36163199Y-69651980D01*
X36172417Y-69605643D01*
X45877090Y-69605643D01*
X45877090Y-69810354D01*
X45909111Y-70012528D01*
X45972370Y-70207218D01*
X46065302Y-70389608D01*
X46065304Y-70389612D01*
X46185619Y-70555212D01*
X46185621Y-70555214D01*
X46185624Y-70555218D01*
X46330371Y-70699965D01*
X46330374Y-70699967D01*
X46330376Y-70699969D01*
X46495976Y-70820284D01*
X46495980Y-70820286D01*
X46678371Y-70913219D01*
X46873056Y-70976476D01*
X46873057Y-70976476D01*
X46873060Y-70976477D01*
X47075235Y-71008499D01*
X47075238Y-71008499D01*
X47279945Y-71008499D01*
X47482119Y-70976477D01*
X47482120Y-70976476D01*
X47482124Y-70976476D01*
X47676809Y-70913219D01*
X47859200Y-70820286D01*
X48024809Y-70699965D01*
X48169556Y-70555218D01*
X48198557Y-70515301D01*
X83587089Y-70515301D01*
X83587089Y-70702696D01*
X83616402Y-70887776D01*
X83616403Y-70887780D01*
X83674306Y-71065985D01*
X83674308Y-71065988D01*
X83674309Y-71065991D01*
X83674310Y-71065992D01*
X83759382Y-71232957D01*
X83869527Y-71384558D01*
X84002030Y-71517061D01*
X84153631Y-71627206D01*
X84320596Y-71712278D01*
X84320598Y-71712278D01*
X84320599Y-71712279D01*
X84320602Y-71712281D01*
X84498807Y-71770184D01*
X84498811Y-71770185D01*
X84683892Y-71799499D01*
X84683895Y-71799499D01*
X84871286Y-71799499D01*
X85056366Y-71770185D01*
X85056370Y-71770184D01*
X85234575Y-71712281D01*
X85234577Y-71712279D01*
X85234582Y-71712278D01*
X85401547Y-71627206D01*
X85553148Y-71517061D01*
X85685651Y-71384558D01*
X85795796Y-71232957D01*
X85880868Y-71065992D01*
X85880869Y-71065987D01*
X85880871Y-71065985D01*
X85938774Y-70887780D01*
X85938775Y-70887776D01*
X85968089Y-70702696D01*
X85968089Y-70515301D01*
X86287090Y-70515301D01*
X86287090Y-70702696D01*
X86316403Y-70887776D01*
X86316404Y-70887780D01*
X86374307Y-71065985D01*
X86374309Y-71065988D01*
X86374310Y-71065991D01*
X86374311Y-71065992D01*
X86459383Y-71232957D01*
X86569528Y-71384558D01*
X86702031Y-71517061D01*
X86853632Y-71627206D01*
X87020597Y-71712278D01*
X87020599Y-71712278D01*
X87020600Y-71712279D01*
X87020603Y-71712281D01*
X87198808Y-71770184D01*
X87198812Y-71770185D01*
X87383893Y-71799499D01*
X87383896Y-71799499D01*
X87571287Y-71799499D01*
X87756367Y-71770185D01*
X87756371Y-71770184D01*
X87934576Y-71712281D01*
X87934578Y-71712279D01*
X87934583Y-71712278D01*
X88101548Y-71627206D01*
X88253149Y-71517061D01*
X88385652Y-71384558D01*
X88495797Y-71232957D01*
X88580869Y-71065992D01*
X88580870Y-71065987D01*
X88580872Y-71065985D01*
X88638775Y-70887780D01*
X88638776Y-70887776D01*
X88668090Y-70702696D01*
X88668090Y-70515301D01*
X88638776Y-70330221D01*
X88638775Y-70330217D01*
X88580872Y-70152012D01*
X88580870Y-70152009D01*
X88580869Y-70152008D01*
X88580869Y-70152006D01*
X88495797Y-69985041D01*
X88385652Y-69833440D01*
X88253149Y-69700937D01*
X88253145Y-69700934D01*
X88253144Y-69700933D01*
X88216734Y-69674480D01*
X88216733Y-69674479D01*
X88113193Y-69599252D01*
X88987090Y-69599252D01*
X88987090Y-71618745D01*
X88987091Y-71618757D01*
X88998722Y-71677226D01*
X88998724Y-71677232D01*
X89038135Y-71736214D01*
X89043038Y-71743551D01*
X89109359Y-71787866D01*
X89153821Y-71796710D01*
X89167831Y-71799497D01*
X89167836Y-71799497D01*
X89167842Y-71799499D01*
X89167843Y-71799499D01*
X91187337Y-71799499D01*
X91187338Y-71799499D01*
X91245821Y-71787866D01*
X91312142Y-71743551D01*
X91356457Y-71677230D01*
X91368090Y-71618747D01*
X91368090Y-69599251D01*
X91356457Y-69540768D01*
X91312142Y-69474447D01*
X91312138Y-69474444D01*
X91245823Y-69430133D01*
X91245821Y-69430132D01*
X91245818Y-69430131D01*
X91245817Y-69430131D01*
X91187348Y-69418500D01*
X91187338Y-69418499D01*
X89167842Y-69418499D01*
X89167841Y-69418499D01*
X89167831Y-69418500D01*
X89109362Y-69430131D01*
X89109356Y-69430133D01*
X89043041Y-69474444D01*
X89043035Y-69474450D01*
X88998724Y-69540765D01*
X88998722Y-69540771D01*
X88987091Y-69599240D01*
X88987090Y-69599252D01*
X88113193Y-69599252D01*
X88101553Y-69590795D01*
X88101547Y-69590791D01*
X87934579Y-69505718D01*
X87934576Y-69505716D01*
X87756371Y-69447813D01*
X87756367Y-69447812D01*
X87571287Y-69418499D01*
X87571284Y-69418499D01*
X87383896Y-69418499D01*
X87383893Y-69418499D01*
X87198812Y-69447812D01*
X87198808Y-69447813D01*
X87020603Y-69505716D01*
X87020600Y-69505718D01*
X86853634Y-69590790D01*
X86702032Y-69700936D01*
X86569527Y-69833441D01*
X86459381Y-69985043D01*
X86374309Y-70152009D01*
X86374307Y-70152012D01*
X86316404Y-70330217D01*
X86316403Y-70330221D01*
X86287090Y-70515301D01*
X85968089Y-70515301D01*
X85938775Y-70330221D01*
X85938774Y-70330217D01*
X85880871Y-70152012D01*
X85880869Y-70152009D01*
X85880868Y-70152008D01*
X85880868Y-70152006D01*
X85795796Y-69985041D01*
X85685651Y-69833440D01*
X85553148Y-69700937D01*
X85401547Y-69590792D01*
X85401546Y-69590791D01*
X85401544Y-69590790D01*
X85234578Y-69505718D01*
X85234575Y-69505716D01*
X85056370Y-69447813D01*
X85056366Y-69447812D01*
X84871286Y-69418499D01*
X84871283Y-69418499D01*
X84683895Y-69418499D01*
X84683892Y-69418499D01*
X84498811Y-69447812D01*
X84498807Y-69447813D01*
X84320602Y-69505716D01*
X84320599Y-69505718D01*
X84153633Y-69590790D01*
X84002031Y-69700936D01*
X83869526Y-69833441D01*
X83759380Y-69985043D01*
X83674308Y-70152009D01*
X83674306Y-70152012D01*
X83616403Y-70330217D01*
X83616402Y-70330221D01*
X83587089Y-70515301D01*
X48198557Y-70515301D01*
X48243658Y-70453225D01*
X48243659Y-70453224D01*
X48289875Y-70389612D01*
X48289877Y-70389609D01*
X48382810Y-70207218D01*
X48446067Y-70012533D01*
X48447192Y-70005431D01*
X48478090Y-69810354D01*
X48478090Y-69605643D01*
X48446068Y-69403469D01*
X48437793Y-69378000D01*
X48382810Y-69208780D01*
X48289877Y-69026389D01*
X48289875Y-69026385D01*
X48169560Y-68860785D01*
X48169558Y-68860783D01*
X48169556Y-68860780D01*
X48024809Y-68716033D01*
X48024805Y-68716030D01*
X48024803Y-68716028D01*
X47859203Y-68595713D01*
X47859199Y-68595711D01*
X47676809Y-68502779D01*
X47482119Y-68439520D01*
X47279945Y-68407499D01*
X47279942Y-68407499D01*
X47075238Y-68407499D01*
X47075235Y-68407499D01*
X46873060Y-68439520D01*
X46678370Y-68502779D01*
X46495980Y-68595711D01*
X46495976Y-68595713D01*
X46330376Y-68716028D01*
X46185619Y-68860785D01*
X46065304Y-69026385D01*
X46065302Y-69026389D01*
X45972370Y-69208779D01*
X45909111Y-69403469D01*
X45877090Y-69605643D01*
X36172417Y-69605643D01*
X36177032Y-69582443D01*
X36202589Y-69453955D01*
X36202590Y-69453951D01*
X36202590Y-69378000D01*
X36202589Y-69377999D01*
X35457920Y-69377999D01*
X35477665Y-69358254D01*
X35527034Y-69272744D01*
X35552590Y-69177369D01*
X35552590Y-69078629D01*
X35527034Y-68983254D01*
X35477665Y-68897744D01*
X35457920Y-68877999D01*
X36202589Y-68877999D01*
X36202590Y-68877998D01*
X36202590Y-68802046D01*
X36202589Y-68802042D01*
X36163199Y-68604017D01*
X36163199Y-68604015D01*
X36085936Y-68417483D01*
X36085930Y-68417471D01*
X35973759Y-68249599D01*
X35973756Y-68249595D01*
X35830993Y-68106832D01*
X35830989Y-68106829D01*
X35663117Y-67994658D01*
X35663105Y-67994652D01*
X35476574Y-67917389D01*
X35427590Y-67907645D01*
X35427590Y-68847669D01*
X35407845Y-68827924D01*
X35322335Y-68778555D01*
X35226960Y-68752999D01*
X35128220Y-68752999D01*
X35032845Y-68778555D01*
X34947335Y-68827924D01*
X34927590Y-68847669D01*
X34927590Y-67907645D01*
X34878605Y-67917389D01*
X34692074Y-67994652D01*
X34692062Y-67994658D01*
X34524190Y-68106829D01*
X34524180Y-68106837D01*
X34380451Y-68250566D01*
X34325935Y-68278343D01*
X34265503Y-68268771D01*
X34255450Y-68262880D01*
X34251242Y-68260068D01*
X34119211Y-68205380D01*
X33979048Y-68177499D01*
X33979046Y-68177499D01*
X33836136Y-68177499D01*
X33836133Y-68177499D01*
X33695971Y-68205380D01*
X33695969Y-68205380D01*
X33563942Y-68260067D01*
X33563932Y-68260072D01*
X33481017Y-68315475D01*
X33422129Y-68332083D01*
X33364725Y-68310905D01*
X33343701Y-68288161D01*
X33341182Y-68284391D01*
X33307142Y-68233447D01*
X33304306Y-68231552D01*
X33240823Y-68189133D01*
X33240821Y-68189132D01*
X33240818Y-68189131D01*
X33240817Y-68189131D01*
X33182348Y-68177500D01*
X33182338Y-68177499D01*
X32092842Y-68177499D01*
X32092841Y-68177499D01*
X32092831Y-68177500D01*
X32034362Y-68189131D01*
X32034356Y-68189133D01*
X31968041Y-68233444D01*
X31968035Y-68233450D01*
X31923724Y-68299765D01*
X31923722Y-68299771D01*
X31912091Y-68358240D01*
X31912090Y-68358252D01*
X26197104Y-68358252D01*
X26205273Y-68327764D01*
X26217086Y-68283677D01*
X26217086Y-68283672D01*
X26252589Y-68014002D01*
X26252590Y-68014001D01*
X26252590Y-67752108D01*
X85605500Y-67752108D01*
X85605500Y-67883892D01*
X85635178Y-67994652D01*
X85639609Y-68011190D01*
X85705496Y-68125309D01*
X85705498Y-68125311D01*
X85705500Y-68125314D01*
X85798686Y-68218500D01*
X85798688Y-68218501D01*
X85798690Y-68218503D01*
X85912810Y-68284390D01*
X85912808Y-68284390D01*
X85912812Y-68284391D01*
X85912814Y-68284392D01*
X86040108Y-68318500D01*
X86040110Y-68318500D01*
X86171890Y-68318500D01*
X86171892Y-68318500D01*
X86299186Y-68284392D01*
X86303741Y-68281761D01*
X86353239Y-68268500D01*
X88652761Y-68268500D01*
X88702258Y-68281761D01*
X88706814Y-68284392D01*
X88834108Y-68318500D01*
X88834110Y-68318500D01*
X88965890Y-68318500D01*
X88965892Y-68318500D01*
X89093186Y-68284392D01*
X89093188Y-68284390D01*
X89093190Y-68284390D01*
X89207309Y-68218503D01*
X89207309Y-68218502D01*
X89207314Y-68218500D01*
X89300500Y-68125314D01*
X89366392Y-68011186D01*
X89400500Y-67883892D01*
X89400500Y-67752108D01*
X89366392Y-67624814D01*
X89366390Y-67624811D01*
X89366390Y-67624809D01*
X89300503Y-67510690D01*
X89300501Y-67510688D01*
X89300500Y-67510686D01*
X89207314Y-67417500D01*
X89207311Y-67417498D01*
X89207309Y-67417496D01*
X89093189Y-67351609D01*
X89093191Y-67351609D01*
X89043799Y-67338375D01*
X88965892Y-67317500D01*
X88834108Y-67317500D01*
X88749245Y-67340238D01*
X88706813Y-67351608D01*
X88702259Y-67354238D01*
X88652761Y-67367500D01*
X86353239Y-67367500D01*
X86303741Y-67354238D01*
X86299186Y-67351608D01*
X86171892Y-67317500D01*
X86040108Y-67317500D01*
X85962200Y-67338375D01*
X85912809Y-67351609D01*
X85798690Y-67417496D01*
X85705496Y-67510690D01*
X85639609Y-67624809D01*
X85639608Y-67624814D01*
X85605500Y-67752108D01*
X26252590Y-67752108D01*
X26252590Y-67741997D01*
X26252589Y-67741995D01*
X26217086Y-67472325D01*
X26217086Y-67472320D01*
X26146687Y-67209588D01*
X26146683Y-67209575D01*
X26042597Y-66958288D01*
X25906591Y-66722718D01*
X25810999Y-66598141D01*
X25095982Y-67313158D01*
X24997554Y-67177684D01*
X24877905Y-67058035D01*
X24742427Y-66959605D01*
X25457445Y-66244588D01*
X25332870Y-66148997D01*
X25097300Y-66012991D01*
X24846013Y-65908905D01*
X24846000Y-65908901D01*
X24583266Y-65838502D01*
X24313593Y-65802999D01*
X24041586Y-65802999D01*
X23771916Y-65838502D01*
X23771911Y-65838502D01*
X23509179Y-65908901D01*
X23509166Y-65908905D01*
X23257879Y-66012991D01*
X23022304Y-66149000D01*
X22897732Y-66244587D01*
X23612750Y-66959605D01*
X23477275Y-67058035D01*
X23357626Y-67177684D01*
X23259196Y-67313159D01*
X22544178Y-66598141D01*
X22448591Y-66722713D01*
X22312582Y-66958288D01*
X22208496Y-67209575D01*
X22208492Y-67209588D01*
X22138093Y-67472320D01*
X22138093Y-67472325D01*
X22102590Y-67741995D01*
X20820500Y-67741995D01*
X20820500Y-64450108D01*
X79509500Y-64450108D01*
X79509500Y-64581892D01*
X79535382Y-64678484D01*
X79543609Y-64709190D01*
X79609496Y-64823309D01*
X79609498Y-64823311D01*
X79609500Y-64823314D01*
X79702686Y-64916500D01*
X79702688Y-64916501D01*
X79702690Y-64916503D01*
X79816810Y-64982390D01*
X79816808Y-64982390D01*
X79816812Y-64982391D01*
X79816814Y-64982392D01*
X79944108Y-65016500D01*
X79944110Y-65016500D01*
X80075890Y-65016500D01*
X80075892Y-65016500D01*
X80203186Y-64982392D01*
X80203188Y-64982390D01*
X80203190Y-64982390D01*
X80317309Y-64916503D01*
X80317309Y-64916502D01*
X80317314Y-64916500D01*
X80410500Y-64823314D01*
X80476392Y-64709186D01*
X80477750Y-64704114D01*
X80503373Y-64659728D01*
X80966993Y-64196108D01*
X86621500Y-64196108D01*
X86621500Y-64327892D01*
X86651579Y-64440151D01*
X86655609Y-64455190D01*
X86721496Y-64569309D01*
X86721498Y-64569311D01*
X86721500Y-64569314D01*
X86814686Y-64662500D01*
X86814688Y-64662501D01*
X86814690Y-64662503D01*
X86928810Y-64728390D01*
X86928808Y-64728390D01*
X86928812Y-64728391D01*
X86928814Y-64728392D01*
X87056108Y-64762500D01*
X87056110Y-64762500D01*
X87187890Y-64762500D01*
X87187892Y-64762500D01*
X87315186Y-64728392D01*
X87319741Y-64725761D01*
X87369239Y-64712500D01*
X89180390Y-64712500D01*
X89238581Y-64731407D01*
X89250394Y-64741497D01*
X89676624Y-65167728D01*
X89702245Y-65212103D01*
X89703606Y-65217182D01*
X89703609Y-65217189D01*
X89769496Y-65331309D01*
X89769498Y-65331311D01*
X89769500Y-65331314D01*
X89862686Y-65424500D01*
X89862688Y-65424501D01*
X89862690Y-65424503D01*
X89976810Y-65490390D01*
X89976808Y-65490390D01*
X89976812Y-65490391D01*
X89976814Y-65490392D01*
X90104108Y-65524500D01*
X90104110Y-65524500D01*
X90235890Y-65524500D01*
X90235892Y-65524500D01*
X90363186Y-65490392D01*
X90363188Y-65490390D01*
X90363190Y-65490390D01*
X90477309Y-65424503D01*
X90477309Y-65424502D01*
X90477314Y-65424500D01*
X90570500Y-65331314D01*
X90636392Y-65217186D01*
X90670500Y-65089892D01*
X90670500Y-64958108D01*
X90636392Y-64830814D01*
X90636390Y-64830811D01*
X90636390Y-64830809D01*
X90570503Y-64716690D01*
X90570501Y-64716688D01*
X90570500Y-64716686D01*
X90477314Y-64623500D01*
X90477311Y-64623498D01*
X90477309Y-64623496D01*
X90363189Y-64557609D01*
X90363184Y-64557607D01*
X90358102Y-64556245D01*
X90313729Y-64530624D01*
X89684614Y-63901511D01*
X89684609Y-63901507D01*
X89581890Y-63842202D01*
X89581886Y-63842200D01*
X89557673Y-63835712D01*
X89557673Y-63835713D01*
X89467309Y-63811500D01*
X89467307Y-63811500D01*
X87369239Y-63811500D01*
X87319741Y-63798238D01*
X87315186Y-63795608D01*
X87187892Y-63761500D01*
X87056108Y-63761500D01*
X86978200Y-63782375D01*
X86928809Y-63795609D01*
X86814690Y-63861496D01*
X86721496Y-63954690D01*
X86655609Y-64068809D01*
X86655608Y-64068814D01*
X86621500Y-64196108D01*
X80966993Y-64196108D01*
X81462059Y-63701042D01*
X81506445Y-63675419D01*
X81511517Y-63674061D01*
X81625645Y-63608169D01*
X81718831Y-63514983D01*
X81784723Y-63400855D01*
X81818831Y-63273561D01*
X81818831Y-63141777D01*
X81784723Y-63014483D01*
X81784721Y-63014479D01*
X81784721Y-63014478D01*
X81718834Y-62900359D01*
X81718832Y-62900357D01*
X81718831Y-62900355D01*
X81625645Y-62807169D01*
X81625642Y-62807167D01*
X81625640Y-62807165D01*
X81511520Y-62741278D01*
X81511522Y-62741278D01*
X81462130Y-62728044D01*
X81384223Y-62707169D01*
X81252439Y-62707169D01*
X81174531Y-62728044D01*
X81125140Y-62741278D01*
X81011021Y-62807165D01*
X80917827Y-62900359D01*
X80851940Y-63014479D01*
X80851936Y-63014488D01*
X80850575Y-63019568D01*
X80824955Y-63063940D01*
X79866271Y-64022624D01*
X79821899Y-64048244D01*
X79816819Y-64049605D01*
X79816810Y-64049609D01*
X79702690Y-64115496D01*
X79609496Y-64208690D01*
X79543609Y-64322809D01*
X79543608Y-64322814D01*
X79509500Y-64450108D01*
X20820500Y-64450108D01*
X20820500Y-63764889D01*
X66986710Y-63764889D01*
X66986710Y-63896673D01*
X67007569Y-63974519D01*
X67020819Y-64023971D01*
X67086706Y-64138090D01*
X67086708Y-64138092D01*
X67086710Y-64138095D01*
X67179896Y-64231281D01*
X67179898Y-64231282D01*
X67179900Y-64231284D01*
X67294020Y-64297171D01*
X67294018Y-64297171D01*
X67294022Y-64297172D01*
X67294024Y-64297173D01*
X67421318Y-64331281D01*
X67421320Y-64331281D01*
X67553100Y-64331281D01*
X67553102Y-64331281D01*
X67680396Y-64297173D01*
X67680398Y-64297171D01*
X67680400Y-64297171D01*
X67794519Y-64231284D01*
X67794519Y-64231283D01*
X67794524Y-64231281D01*
X67887710Y-64138095D01*
X67953602Y-64023967D01*
X67954958Y-64018904D01*
X67980580Y-63974521D01*
X68691604Y-63263497D01*
X68735990Y-63237874D01*
X68741062Y-63236516D01*
X68855190Y-63170624D01*
X68948376Y-63077438D01*
X68966998Y-63045184D01*
X69014266Y-62963314D01*
X69014266Y-62963312D01*
X69014268Y-62963310D01*
X69048376Y-62836016D01*
X69048376Y-62704232D01*
X69014268Y-62576938D01*
X69014266Y-62576934D01*
X69014266Y-62576933D01*
X68948379Y-62462814D01*
X68948377Y-62462812D01*
X68948376Y-62462810D01*
X68855190Y-62369624D01*
X68855187Y-62369622D01*
X68855185Y-62369620D01*
X68741065Y-62303733D01*
X68741067Y-62303733D01*
X68691675Y-62290499D01*
X68613768Y-62269624D01*
X68481984Y-62269624D01*
X68404076Y-62290499D01*
X68354685Y-62303733D01*
X68240566Y-62369620D01*
X68147372Y-62462814D01*
X68081485Y-62576934D01*
X68081481Y-62576943D01*
X68080120Y-62582023D01*
X68054500Y-62626395D01*
X67343493Y-63337402D01*
X67299119Y-63363023D01*
X67294025Y-63364388D01*
X67294020Y-63364390D01*
X67179900Y-63430277D01*
X67086706Y-63523471D01*
X67020819Y-63637590D01*
X67011047Y-63674061D01*
X66986710Y-63764889D01*
X20820500Y-63764889D01*
X20820500Y-60498724D01*
X22402090Y-60498724D01*
X22402090Y-63257273D01*
X22404943Y-63287693D01*
X22404945Y-63287702D01*
X22449797Y-63415882D01*
X22530435Y-63525143D01*
X22530437Y-63525145D01*
X22530440Y-63525149D01*
X22530443Y-63525151D01*
X22530445Y-63525153D01*
X22639706Y-63605791D01*
X22639707Y-63605791D01*
X22639708Y-63605792D01*
X22767891Y-63650645D01*
X22798315Y-63653498D01*
X22798317Y-63653499D01*
X22798324Y-63653499D01*
X25556863Y-63653499D01*
X25556863Y-63653498D01*
X25587289Y-63650645D01*
X25715472Y-63605792D01*
X25824740Y-63525149D01*
X25905383Y-63415881D01*
X25950236Y-63287698D01*
X25953089Y-63257272D01*
X25953090Y-63257272D01*
X25953090Y-60498726D01*
X25953089Y-60498724D01*
X25950236Y-60468300D01*
X25905383Y-60340117D01*
X25824740Y-60230849D01*
X25824736Y-60230846D01*
X25824734Y-60230844D01*
X25715473Y-60150206D01*
X25587293Y-60105354D01*
X25587284Y-60105352D01*
X25556864Y-60102499D01*
X25556856Y-60102499D01*
X22798324Y-60102499D01*
X22798315Y-60102499D01*
X22767895Y-60105352D01*
X22767886Y-60105354D01*
X22639706Y-60150206D01*
X22530445Y-60230844D01*
X22530435Y-60230854D01*
X22449797Y-60340115D01*
X22404945Y-60468295D01*
X22404943Y-60468304D01*
X22402090Y-60498724D01*
X20820500Y-60498724D01*
X20820500Y-58643723D01*
X45877090Y-58643723D01*
X45877090Y-60452266D01*
X45879943Y-60482695D01*
X45879943Y-60482697D01*
X45879944Y-60482699D01*
X45885552Y-60498726D01*
X45924798Y-60610885D01*
X46005435Y-60720144D01*
X46005444Y-60720153D01*
X46114705Y-60800791D01*
X46114706Y-60800791D01*
X46114707Y-60800792D01*
X46242890Y-60845645D01*
X46273323Y-60848499D01*
X48081856Y-60848498D01*
X48081857Y-60848498D01*
X48087942Y-60847927D01*
X48112290Y-60845645D01*
X48240473Y-60800792D01*
X48349740Y-60720149D01*
X48430383Y-60610882D01*
X48475236Y-60482699D01*
X48478090Y-60452266D01*
X48478089Y-58643733D01*
X48475236Y-58613299D01*
X48430383Y-58485116D01*
X48430381Y-58485114D01*
X48430381Y-58485112D01*
X48349744Y-58375853D01*
X48349735Y-58375844D01*
X48240474Y-58295206D01*
X48112294Y-58250354D01*
X48112285Y-58250352D01*
X48081864Y-58247499D01*
X46273322Y-58247499D01*
X46242893Y-58250352D01*
X46114703Y-58295207D01*
X46005444Y-58375844D01*
X46005435Y-58375853D01*
X45924797Y-58485114D01*
X45879945Y-58613294D01*
X45879943Y-58613303D01*
X45877090Y-58643723D01*
X20820500Y-58643723D01*
X20820500Y-55267773D01*
X28277090Y-55267773D01*
X28277090Y-55488224D01*
X28311574Y-55705947D01*
X28379692Y-55915598D01*
X28379694Y-55915601D01*
X28379695Y-55915605D01*
X28479775Y-56112021D01*
X28609348Y-56290364D01*
X28765225Y-56446241D01*
X28943568Y-56575814D01*
X29139984Y-56675894D01*
X29349639Y-56744014D01*
X29436730Y-56757808D01*
X29567365Y-56778499D01*
X29567368Y-56778499D01*
X29787815Y-56778499D01*
X29896676Y-56761256D01*
X30005541Y-56744014D01*
X30215196Y-56675894D01*
X30411612Y-56575814D01*
X30589955Y-56446241D01*
X30745832Y-56290364D01*
X30875405Y-56112021D01*
X30975485Y-55915605D01*
X31043605Y-55705950D01*
X31078090Y-55488221D01*
X31078090Y-55267777D01*
X31078090Y-55267773D01*
X57777090Y-55267773D01*
X57777090Y-55488224D01*
X57811574Y-55705947D01*
X57879692Y-55915598D01*
X57879694Y-55915601D01*
X57879695Y-55915605D01*
X57979775Y-56112021D01*
X58109348Y-56290364D01*
X58265225Y-56446241D01*
X58443568Y-56575814D01*
X58639984Y-56675894D01*
X58849639Y-56744014D01*
X58936730Y-56757808D01*
X59067365Y-56778499D01*
X59067368Y-56778499D01*
X59287815Y-56778499D01*
X59396676Y-56761256D01*
X59505541Y-56744014D01*
X59715196Y-56675894D01*
X59911612Y-56575814D01*
X60089955Y-56446241D01*
X60245832Y-56290364D01*
X60247714Y-56287773D01*
X85537090Y-56287773D01*
X85537090Y-56508224D01*
X85571574Y-56725947D01*
X85639692Y-56935598D01*
X85639694Y-56935601D01*
X85639695Y-56935605D01*
X85739775Y-57132021D01*
X85869348Y-57310364D01*
X86025225Y-57466241D01*
X86203568Y-57595814D01*
X86399984Y-57695894D01*
X86609639Y-57764014D01*
X86696730Y-57777808D01*
X86827365Y-57798499D01*
X86827368Y-57798499D01*
X87047815Y-57798499D01*
X87156676Y-57781256D01*
X87265541Y-57764014D01*
X87475196Y-57695894D01*
X87671612Y-57595814D01*
X87849955Y-57466241D01*
X88005832Y-57310364D01*
X88135405Y-57132021D01*
X88235485Y-56935605D01*
X88303605Y-56725950D01*
X88338090Y-56508221D01*
X88338090Y-56287777D01*
X88338090Y-56287773D01*
X90617090Y-56287773D01*
X90617090Y-56508224D01*
X90651574Y-56725947D01*
X90719692Y-56935598D01*
X90719694Y-56935601D01*
X90719695Y-56935605D01*
X90819775Y-57132021D01*
X90949348Y-57310364D01*
X91105225Y-57466241D01*
X91283568Y-57595814D01*
X91479984Y-57695894D01*
X91689639Y-57764014D01*
X91776730Y-57777808D01*
X91907365Y-57798499D01*
X91907368Y-57798499D01*
X92127815Y-57798499D01*
X92236676Y-57781256D01*
X92345541Y-57764014D01*
X92555196Y-57695894D01*
X92751612Y-57595814D01*
X92929955Y-57466241D01*
X93085832Y-57310364D01*
X93215405Y-57132021D01*
X93315485Y-56935605D01*
X93383605Y-56725950D01*
X93418090Y-56508221D01*
X93418090Y-56287777D01*
X93418090Y-56287773D01*
X95697090Y-56287773D01*
X95697090Y-56508224D01*
X95731574Y-56725947D01*
X95799692Y-56935598D01*
X95799694Y-56935601D01*
X95799695Y-56935605D01*
X95899775Y-57132021D01*
X96029348Y-57310364D01*
X96185225Y-57466241D01*
X96363568Y-57595814D01*
X96559984Y-57695894D01*
X96769639Y-57764014D01*
X96856730Y-57777808D01*
X96987365Y-57798499D01*
X96987368Y-57798499D01*
X97207815Y-57798499D01*
X97316676Y-57781256D01*
X97425541Y-57764014D01*
X97635196Y-57695894D01*
X97831612Y-57595814D01*
X98009955Y-57466241D01*
X98165832Y-57310364D01*
X98295405Y-57132021D01*
X98395485Y-56935605D01*
X98463605Y-56725950D01*
X98498090Y-56508221D01*
X98498090Y-56287777D01*
X98498090Y-56287773D01*
X98463605Y-56070050D01*
X98463605Y-56070048D01*
X98395485Y-55860393D01*
X98295405Y-55663977D01*
X98165832Y-55485634D01*
X98009955Y-55329757D01*
X97831612Y-55200184D01*
X97831611Y-55200183D01*
X97831609Y-55200182D01*
X97742415Y-55154735D01*
X97635196Y-55100104D01*
X97635192Y-55100103D01*
X97635189Y-55100101D01*
X97425538Y-55031983D01*
X97207815Y-54997499D01*
X97207812Y-54997499D01*
X96987368Y-54997499D01*
X96987365Y-54997499D01*
X96769641Y-55031983D01*
X96559990Y-55100101D01*
X96363570Y-55200182D01*
X96274396Y-55264970D01*
X96185225Y-55329757D01*
X96029348Y-55485634D01*
X95964561Y-55574805D01*
X95899773Y-55663979D01*
X95799692Y-55860399D01*
X95731574Y-56070050D01*
X95697090Y-56287773D01*
X93418090Y-56287773D01*
X93383605Y-56070050D01*
X93383605Y-56070048D01*
X93315485Y-55860393D01*
X93215405Y-55663977D01*
X93085832Y-55485634D01*
X92929955Y-55329757D01*
X92751612Y-55200184D01*
X92751611Y-55200183D01*
X92751609Y-55200182D01*
X92662415Y-55154735D01*
X92555196Y-55100104D01*
X92555192Y-55100103D01*
X92555189Y-55100101D01*
X92345538Y-55031983D01*
X92127815Y-54997499D01*
X92127812Y-54997499D01*
X91907368Y-54997499D01*
X91907365Y-54997499D01*
X91689641Y-55031983D01*
X91479990Y-55100101D01*
X91283570Y-55200182D01*
X91194396Y-55264970D01*
X91105225Y-55329757D01*
X90949348Y-55485634D01*
X90884561Y-55574805D01*
X90819773Y-55663979D01*
X90719692Y-55860399D01*
X90651574Y-56070050D01*
X90617090Y-56287773D01*
X88338090Y-56287773D01*
X88303605Y-56070050D01*
X88303605Y-56070048D01*
X88235485Y-55860393D01*
X88135405Y-55663977D01*
X88005832Y-55485634D01*
X87849955Y-55329757D01*
X87671612Y-55200184D01*
X87671611Y-55200183D01*
X87671609Y-55200182D01*
X87582415Y-55154735D01*
X87475196Y-55100104D01*
X87475192Y-55100103D01*
X87475189Y-55100101D01*
X87265538Y-55031983D01*
X87047815Y-54997499D01*
X87047812Y-54997499D01*
X86827368Y-54997499D01*
X86827365Y-54997499D01*
X86609641Y-55031983D01*
X86399990Y-55100101D01*
X86203570Y-55200182D01*
X86114396Y-55264970D01*
X86025225Y-55329757D01*
X85869348Y-55485634D01*
X85804561Y-55574805D01*
X85739773Y-55663979D01*
X85639692Y-55860399D01*
X85571574Y-56070050D01*
X85537090Y-56287773D01*
X60247714Y-56287773D01*
X60375405Y-56112021D01*
X60475485Y-55915605D01*
X60543605Y-55705950D01*
X60578090Y-55488221D01*
X60578090Y-55267777D01*
X60578090Y-55267773D01*
X60543605Y-55050050D01*
X60543605Y-55050048D01*
X60475485Y-54840393D01*
X60375405Y-54643977D01*
X60245832Y-54465634D01*
X60089955Y-54309757D01*
X59911612Y-54180184D01*
X59911611Y-54180183D01*
X59911609Y-54180182D01*
X59822415Y-54134735D01*
X59715196Y-54080104D01*
X59715192Y-54080103D01*
X59715189Y-54080101D01*
X59505538Y-54011983D01*
X59287815Y-53977499D01*
X59287812Y-53977499D01*
X59067368Y-53977499D01*
X59067365Y-53977499D01*
X58849641Y-54011983D01*
X58639990Y-54080101D01*
X58443570Y-54180182D01*
X58354396Y-54244970D01*
X58265225Y-54309757D01*
X58109348Y-54465634D01*
X58044561Y-54554805D01*
X57979773Y-54643979D01*
X57879692Y-54840399D01*
X57811574Y-55050050D01*
X57777090Y-55267773D01*
X31078090Y-55267773D01*
X31043605Y-55050050D01*
X31043605Y-55050048D01*
X30975485Y-54840393D01*
X30875405Y-54643977D01*
X30745832Y-54465634D01*
X30589955Y-54309757D01*
X30411612Y-54180184D01*
X30411611Y-54180183D01*
X30411609Y-54180182D01*
X30322415Y-54134735D01*
X30215196Y-54080104D01*
X30215192Y-54080103D01*
X30215189Y-54080101D01*
X30005538Y-54011983D01*
X29787815Y-53977499D01*
X29787812Y-53977499D01*
X29567368Y-53977499D01*
X29567365Y-53977499D01*
X29349641Y-54011983D01*
X29139990Y-54080101D01*
X28943570Y-54180182D01*
X28854396Y-54244970D01*
X28765225Y-54309757D01*
X28609348Y-54465634D01*
X28544561Y-54554805D01*
X28479773Y-54643979D01*
X28379692Y-54840399D01*
X28311574Y-55050050D01*
X28277090Y-55267773D01*
X20820500Y-55267773D01*
X20820500Y-52356739D01*
X96931039Y-52356739D01*
X96931039Y-52543976D01*
X96967565Y-52727607D01*
X97039216Y-52900587D01*
X97039220Y-52900596D01*
X97113604Y-53011917D01*
X97143237Y-53056266D01*
X97275631Y-53188660D01*
X97342002Y-53233007D01*
X97431300Y-53292676D01*
X97431306Y-53292678D01*
X97431308Y-53292680D01*
X97604288Y-53364331D01*
X97787923Y-53400858D01*
X97787924Y-53400858D01*
X97975154Y-53400858D01*
X97975155Y-53400858D01*
X98158790Y-53364331D01*
X98331770Y-53292680D01*
X98331773Y-53292677D01*
X98331777Y-53292676D01*
X98376726Y-53262640D01*
X98487447Y-53188660D01*
X98619841Y-53056266D01*
X98693821Y-52945545D01*
X98723857Y-52900596D01*
X98723858Y-52900592D01*
X98723861Y-52900589D01*
X98795512Y-52727609D01*
X98832039Y-52543974D01*
X98832039Y-52356742D01*
X98795512Y-52173107D01*
X98723861Y-52000127D01*
X98723859Y-52000125D01*
X98723857Y-52000119D01*
X98664188Y-51910821D01*
X98619841Y-51844450D01*
X98487447Y-51712056D01*
X98443098Y-51682423D01*
X98331777Y-51608039D01*
X98331768Y-51608035D01*
X98158788Y-51536384D01*
X97975157Y-51499858D01*
X97975155Y-51499858D01*
X97787923Y-51499858D01*
X97787920Y-51499858D01*
X97604289Y-51536384D01*
X97431309Y-51608035D01*
X97431300Y-51608039D01*
X97275631Y-51712056D01*
X97275627Y-51712059D01*
X97143240Y-51844446D01*
X97143237Y-51844450D01*
X97039220Y-52000119D01*
X97039216Y-52000128D01*
X96967565Y-52173108D01*
X96931039Y-52356739D01*
X20820500Y-52356739D01*
X20820500Y-49623725D01*
X70277090Y-49623725D01*
X70277090Y-51632264D01*
X70279943Y-51662693D01*
X70279943Y-51662695D01*
X70279944Y-51662697D01*
X70319833Y-51776696D01*
X70324798Y-51790884D01*
X70405435Y-51900143D01*
X70405437Y-51900145D01*
X70405440Y-51900149D01*
X70405443Y-51900151D01*
X70405445Y-51900153D01*
X70514704Y-51980790D01*
X70514706Y-51980790D01*
X70514708Y-51980792D01*
X70642892Y-52025645D01*
X70673325Y-52028499D01*
X72681854Y-52028498D01*
X72681855Y-52028498D01*
X72687940Y-52027927D01*
X72712288Y-52025645D01*
X72840472Y-51980792D01*
X72949740Y-51900149D01*
X73030383Y-51790881D01*
X73075236Y-51662697D01*
X73078090Y-51632264D01*
X73078089Y-50516573D01*
X77477590Y-50516573D01*
X77477590Y-50739424D01*
X77506677Y-50960364D01*
X77564353Y-51175618D01*
X77649632Y-51381498D01*
X77761063Y-51574503D01*
X77811631Y-51640403D01*
X78612977Y-50839056D01*
X78618479Y-50859590D01*
X78697471Y-50996407D01*
X78809182Y-51108118D01*
X78945999Y-51187110D01*
X78966529Y-51192611D01*
X78165184Y-51993956D01*
X78231088Y-52044527D01*
X78231093Y-52044530D01*
X78424090Y-52155956D01*
X78629970Y-52241235D01*
X78845224Y-52298911D01*
X79066164Y-52327998D01*
X79066167Y-52327999D01*
X79289013Y-52327999D01*
X79289015Y-52327998D01*
X79509955Y-52298911D01*
X79669169Y-52256251D01*
X79725209Y-52241235D01*
X79931089Y-52155956D01*
X80124086Y-52044530D01*
X80124090Y-52044527D01*
X80189993Y-51993956D01*
X79388648Y-51192611D01*
X79409181Y-51187110D01*
X79545998Y-51108118D01*
X79657709Y-50996407D01*
X79736701Y-50859590D01*
X79742202Y-50839057D01*
X80543547Y-51640402D01*
X80594118Y-51574499D01*
X80594121Y-51574495D01*
X80705547Y-51381498D01*
X80790826Y-51175618D01*
X80848502Y-50960364D01*
X80877589Y-50739424D01*
X80877590Y-50739422D01*
X80877590Y-50560688D01*
X95134988Y-50560688D01*
X95134988Y-50747925D01*
X95171514Y-50931556D01*
X95243165Y-51104536D01*
X95243169Y-51104545D01*
X95317553Y-51215866D01*
X95347186Y-51260215D01*
X95479580Y-51392609D01*
X95545951Y-51436956D01*
X95635249Y-51496625D01*
X95635255Y-51496627D01*
X95635257Y-51496629D01*
X95808237Y-51568280D01*
X95991872Y-51604807D01*
X95991873Y-51604807D01*
X96179103Y-51604807D01*
X96179104Y-51604807D01*
X96362739Y-51568280D01*
X96535719Y-51496629D01*
X96535722Y-51496626D01*
X96535726Y-51496625D01*
X96580675Y-51466589D01*
X96691396Y-51392609D01*
X96823790Y-51260215D01*
X96897770Y-51149494D01*
X96927806Y-51104545D01*
X96927807Y-51104541D01*
X96927810Y-51104538D01*
X96999461Y-50931558D01*
X97035988Y-50747923D01*
X97035988Y-50560691D01*
X96999461Y-50377056D01*
X96927810Y-50204076D01*
X96927808Y-50204074D01*
X96927806Y-50204068D01*
X96837480Y-50068888D01*
X96823790Y-50048399D01*
X96691396Y-49916005D01*
X96629278Y-49874499D01*
X96535726Y-49811988D01*
X96535717Y-49811984D01*
X96362737Y-49740333D01*
X96179106Y-49703807D01*
X96179104Y-49703807D01*
X95991872Y-49703807D01*
X95991869Y-49703807D01*
X95808238Y-49740333D01*
X95635258Y-49811984D01*
X95635249Y-49811988D01*
X95479580Y-49916005D01*
X95479576Y-49916008D01*
X95347189Y-50048395D01*
X95347186Y-50048399D01*
X95243169Y-50204068D01*
X95243165Y-50204077D01*
X95171514Y-50377057D01*
X95134988Y-50560688D01*
X80877590Y-50560688D01*
X80877590Y-50516576D01*
X80877589Y-50516573D01*
X80848502Y-50295633D01*
X80790826Y-50080379D01*
X80705547Y-49874499D01*
X80594121Y-49681502D01*
X80594118Y-49681497D01*
X80543547Y-49615593D01*
X79742202Y-50416938D01*
X79736701Y-50396408D01*
X79657709Y-50259591D01*
X79545998Y-50147880D01*
X79409181Y-50068888D01*
X79388647Y-50063386D01*
X80189994Y-49262040D01*
X80124094Y-49211472D01*
X79931089Y-49100041D01*
X79725209Y-49014762D01*
X79509955Y-48957086D01*
X79289015Y-48927999D01*
X79066164Y-48927999D01*
X78845224Y-48957086D01*
X78629970Y-49014762D01*
X78424090Y-49100041D01*
X78231094Y-49211466D01*
X78165185Y-49262040D01*
X78966531Y-50063386D01*
X78945999Y-50068888D01*
X78809182Y-50147880D01*
X78697471Y-50259591D01*
X78618479Y-50396408D01*
X78612977Y-50416940D01*
X77811631Y-49615594D01*
X77761057Y-49681503D01*
X77649632Y-49874499D01*
X77564353Y-50080379D01*
X77506677Y-50295633D01*
X77477590Y-50516573D01*
X73078089Y-50516573D01*
X73078089Y-49623735D01*
X73075236Y-49593301D01*
X73030383Y-49465117D01*
X73030381Y-49465115D01*
X73030381Y-49465113D01*
X72952150Y-49359114D01*
X72949744Y-49355854D01*
X72949742Y-49355852D01*
X72949740Y-49355849D01*
X72949736Y-49355846D01*
X72949734Y-49355844D01*
X72840475Y-49275207D01*
X72802845Y-49262040D01*
X72712288Y-49230353D01*
X72712286Y-49230352D01*
X72712284Y-49230352D01*
X72681862Y-49227499D01*
X70673324Y-49227499D01*
X70642895Y-49230352D01*
X70514704Y-49275207D01*
X70405445Y-49355844D01*
X70405435Y-49355854D01*
X70324798Y-49465113D01*
X70279943Y-49593304D01*
X70277090Y-49623725D01*
X20820500Y-49623725D01*
X20820500Y-46538724D01*
X40977090Y-46538724D01*
X40977090Y-48147273D01*
X40979943Y-48177693D01*
X40979945Y-48177702D01*
X41024797Y-48305882D01*
X41105435Y-48415143D01*
X41105437Y-48415145D01*
X41105440Y-48415149D01*
X41105443Y-48415151D01*
X41105445Y-48415153D01*
X41214706Y-48495791D01*
X41214707Y-48495791D01*
X41214708Y-48495792D01*
X41342891Y-48540645D01*
X41373315Y-48543498D01*
X41373317Y-48543499D01*
X41373324Y-48543499D01*
X42981863Y-48543499D01*
X42981863Y-48543498D01*
X43012289Y-48540645D01*
X43140472Y-48495792D01*
X43249740Y-48415149D01*
X43330383Y-48305881D01*
X43375236Y-48177698D01*
X43378089Y-48147272D01*
X43378090Y-48147272D01*
X43378090Y-47224942D01*
X45677590Y-47224942D01*
X45677590Y-47461055D01*
X45714524Y-47694251D01*
X45714525Y-47694255D01*
X45787482Y-47918792D01*
X45787484Y-47918795D01*
X45894674Y-48129168D01*
X45954929Y-48212104D01*
X46694626Y-47472406D01*
X46711665Y-47535992D01*
X46777491Y-47650006D01*
X46870583Y-47743098D01*
X46984597Y-47808924D01*
X47048180Y-47825961D01*
X46308483Y-48565658D01*
X46391415Y-48625912D01*
X46391419Y-48625914D01*
X46601793Y-48733104D01*
X46601796Y-48733106D01*
X46826333Y-48806063D01*
X46826337Y-48806064D01*
X47059534Y-48842999D01*
X47295646Y-48842999D01*
X47528842Y-48806064D01*
X47528846Y-48806063D01*
X47656341Y-48764637D01*
X96931039Y-48764637D01*
X96931039Y-48951874D01*
X96967565Y-49135505D01*
X97039216Y-49308485D01*
X97039220Y-49308494D01*
X97113604Y-49419815D01*
X97143237Y-49464164D01*
X97275631Y-49596558D01*
X97342002Y-49640905D01*
X97431300Y-49700574D01*
X97431306Y-49700576D01*
X97431308Y-49700578D01*
X97604288Y-49772229D01*
X97787923Y-49808756D01*
X97787924Y-49808756D01*
X97975154Y-49808756D01*
X97975155Y-49808756D01*
X98158790Y-49772229D01*
X98331770Y-49700578D01*
X98331773Y-49700575D01*
X98331777Y-49700574D01*
X98376726Y-49670538D01*
X98487447Y-49596558D01*
X98619841Y-49464164D01*
X98693821Y-49353443D01*
X98723857Y-49308494D01*
X98723858Y-49308490D01*
X98723861Y-49308487D01*
X98795512Y-49135507D01*
X98832039Y-48951872D01*
X98832039Y-48764640D01*
X98795512Y-48581005D01*
X98723861Y-48408025D01*
X98723859Y-48408023D01*
X98723857Y-48408017D01*
X98655611Y-48305882D01*
X98619841Y-48252348D01*
X98487447Y-48119954D01*
X98443098Y-48090321D01*
X98331777Y-48015937D01*
X98331768Y-48015933D01*
X98158788Y-47944282D01*
X97975157Y-47907756D01*
X97975155Y-47907756D01*
X97787923Y-47907756D01*
X97787920Y-47907756D01*
X97604289Y-47944282D01*
X97431309Y-48015933D01*
X97431300Y-48015937D01*
X97275631Y-48119954D01*
X97275627Y-48119957D01*
X97143240Y-48252344D01*
X97143237Y-48252348D01*
X97039220Y-48408017D01*
X97039216Y-48408026D01*
X96967565Y-48581006D01*
X96931039Y-48764637D01*
X47656341Y-48764637D01*
X47753383Y-48733106D01*
X47753386Y-48733104D01*
X47874164Y-48671566D01*
X47963760Y-48625914D01*
X47963766Y-48625910D01*
X48046695Y-48565658D01*
X48046695Y-48565657D01*
X47306999Y-47825961D01*
X47370583Y-47808924D01*
X47484597Y-47743098D01*
X47577689Y-47650006D01*
X47643515Y-47535992D01*
X47660552Y-47472408D01*
X48400248Y-48212104D01*
X48400249Y-48212104D01*
X48460501Y-48129175D01*
X48460505Y-48129169D01*
X48567695Y-47918795D01*
X48567697Y-47918792D01*
X48640654Y-47694255D01*
X48640655Y-47694251D01*
X48677590Y-47461055D01*
X48677590Y-47224942D01*
X48640655Y-46991746D01*
X48640654Y-46991742D01*
X48567697Y-46767205D01*
X48567695Y-46767202D01*
X48460505Y-46556828D01*
X48460503Y-46556824D01*
X48400249Y-46473892D01*
X47660552Y-47213589D01*
X47643515Y-47150006D01*
X47577689Y-47035992D01*
X47484597Y-46942900D01*
X47370583Y-46877074D01*
X47306997Y-46860035D01*
X48046695Y-46120338D01*
X47963759Y-46060083D01*
X47753386Y-45952893D01*
X47753383Y-45952891D01*
X47528846Y-45879934D01*
X47528842Y-45879933D01*
X47295646Y-45842999D01*
X47059534Y-45842999D01*
X46826337Y-45879933D01*
X46826333Y-45879934D01*
X46601796Y-45952891D01*
X46601793Y-45952893D01*
X46391413Y-46060087D01*
X46308483Y-46120338D01*
X47048181Y-46860036D01*
X46984597Y-46877074D01*
X46870583Y-46942900D01*
X46777491Y-47035992D01*
X46711665Y-47150006D01*
X46694627Y-47213590D01*
X45954929Y-46473892D01*
X45894678Y-46556822D01*
X45787484Y-46767202D01*
X45787482Y-46767205D01*
X45714525Y-46991742D01*
X45714524Y-46991746D01*
X45677590Y-47224942D01*
X43378090Y-47224942D01*
X43378090Y-46538726D01*
X43378089Y-46538724D01*
X43375236Y-46508304D01*
X43375236Y-46508300D01*
X43330383Y-46380117D01*
X43249740Y-46270849D01*
X43249736Y-46270846D01*
X43249734Y-46270844D01*
X43204859Y-46237725D01*
X43140473Y-46190206D01*
X43012293Y-46145354D01*
X43012284Y-46145352D01*
X42981864Y-46142499D01*
X42981856Y-46142499D01*
X41373324Y-46142499D01*
X41373315Y-46142499D01*
X41342895Y-46145352D01*
X41342886Y-46145354D01*
X41214706Y-46190206D01*
X41105445Y-46270844D01*
X41105435Y-46270854D01*
X41024797Y-46380115D01*
X40979945Y-46508295D01*
X40979943Y-46508304D01*
X40977090Y-46538724D01*
X20820500Y-46538724D01*
X20820500Y-39785482D01*
X84133680Y-39785482D01*
X84133680Y-39970517D01*
X84162624Y-40153261D01*
X84162625Y-40153264D01*
X84219801Y-40329235D01*
X84303802Y-40494096D01*
X84412559Y-40643787D01*
X84543393Y-40774621D01*
X84693084Y-40883378D01*
X84857945Y-40967379D01*
X85033916Y-41024555D01*
X85107016Y-41036133D01*
X85216663Y-41053500D01*
X85216666Y-41053500D01*
X85401697Y-41053500D01*
X85493069Y-41039027D01*
X85584444Y-41024555D01*
X85760415Y-40967379D01*
X85925276Y-40883378D01*
X86074967Y-40774621D01*
X86205801Y-40643787D01*
X86314558Y-40494096D01*
X86398559Y-40329235D01*
X86455735Y-40153264D01*
X86484680Y-39970514D01*
X86484680Y-39785486D01*
X86484680Y-39785482D01*
X86455735Y-39602738D01*
X86455735Y-39602736D01*
X86398559Y-39426765D01*
X86314558Y-39261904D01*
X86205801Y-39112213D01*
X86074967Y-38981379D01*
X85925276Y-38872622D01*
X85925275Y-38872621D01*
X85925273Y-38872620D01*
X85760413Y-38788620D01*
X85584441Y-38731444D01*
X85401697Y-38702500D01*
X85401694Y-38702500D01*
X85216666Y-38702500D01*
X85216663Y-38702500D01*
X85033918Y-38731444D01*
X84857946Y-38788620D01*
X84693086Y-38872620D01*
X84543394Y-38981378D01*
X84412558Y-39112214D01*
X84303800Y-39261906D01*
X84219800Y-39426766D01*
X84162624Y-39602738D01*
X84133680Y-39785482D01*
X20820500Y-39785482D01*
X20820500Y-35573724D01*
X41006028Y-35573724D01*
X41006028Y-37182273D01*
X41008881Y-37212693D01*
X41008883Y-37212702D01*
X41053735Y-37340882D01*
X41134373Y-37450143D01*
X41134375Y-37450145D01*
X41134378Y-37450149D01*
X41134381Y-37450151D01*
X41134383Y-37450153D01*
X41243644Y-37530791D01*
X41243645Y-37530791D01*
X41243646Y-37530792D01*
X41371829Y-37575645D01*
X41402253Y-37578498D01*
X41402255Y-37578499D01*
X41402262Y-37578499D01*
X43010801Y-37578499D01*
X43010801Y-37578498D01*
X43041227Y-37575645D01*
X43169410Y-37530792D01*
X43278678Y-37450149D01*
X43359321Y-37340881D01*
X43404174Y-37212698D01*
X43407027Y-37182272D01*
X43407028Y-37182272D01*
X43407028Y-36259942D01*
X45706528Y-36259942D01*
X45706528Y-36496055D01*
X45743462Y-36729251D01*
X45743463Y-36729255D01*
X45816420Y-36953792D01*
X45816422Y-36953795D01*
X45923612Y-37164168D01*
X45983867Y-37247104D01*
X46723564Y-36507406D01*
X46740603Y-36570992D01*
X46806429Y-36685006D01*
X46899521Y-36778098D01*
X47013535Y-36843924D01*
X47077118Y-36860961D01*
X46337421Y-37600658D01*
X46420353Y-37660912D01*
X46420357Y-37660914D01*
X46630731Y-37768104D01*
X46630734Y-37768106D01*
X46855271Y-37841063D01*
X46855275Y-37841064D01*
X47088472Y-37877999D01*
X47324584Y-37877999D01*
X47557780Y-37841064D01*
X47557784Y-37841063D01*
X47782321Y-37768106D01*
X47782324Y-37768104D01*
X47992698Y-37660914D01*
X47992704Y-37660910D01*
X48075633Y-37600658D01*
X48075633Y-37600657D01*
X47335937Y-36860961D01*
X47399521Y-36843924D01*
X47513535Y-36778098D01*
X47606627Y-36685006D01*
X47672453Y-36570992D01*
X47689490Y-36507408D01*
X48429186Y-37247104D01*
X48429187Y-37247104D01*
X48489439Y-37164175D01*
X48489443Y-37164169D01*
X48596633Y-36953795D01*
X48596635Y-36953792D01*
X48669592Y-36729255D01*
X48669593Y-36729251D01*
X48706528Y-36496055D01*
X48706528Y-36259942D01*
X48669593Y-36026746D01*
X48669592Y-36026742D01*
X48596635Y-35802205D01*
X48596633Y-35802202D01*
X48489443Y-35591828D01*
X48489441Y-35591824D01*
X48429187Y-35508892D01*
X47689490Y-36248589D01*
X47672453Y-36185006D01*
X47606627Y-36070992D01*
X47513535Y-35977900D01*
X47399521Y-35912074D01*
X47335935Y-35895035D01*
X48075633Y-35155338D01*
X48070366Y-35151512D01*
X48070365Y-35151511D01*
X47992697Y-35095083D01*
X47950777Y-35073724D01*
X70477090Y-35073724D01*
X70477090Y-36682273D01*
X70479943Y-36712693D01*
X70479945Y-36712702D01*
X70524797Y-36840882D01*
X70605435Y-36950143D01*
X70605437Y-36950145D01*
X70605440Y-36950149D01*
X70605443Y-36950151D01*
X70605445Y-36950153D01*
X70714706Y-37030791D01*
X70714707Y-37030791D01*
X70714708Y-37030792D01*
X70842891Y-37075645D01*
X70873315Y-37078498D01*
X70873317Y-37078499D01*
X70873324Y-37078499D01*
X72481863Y-37078499D01*
X72481863Y-37078498D01*
X72512289Y-37075645D01*
X72640472Y-37030792D01*
X72749740Y-36950149D01*
X72830383Y-36840881D01*
X72875236Y-36712698D01*
X72878089Y-36682272D01*
X72878090Y-36682272D01*
X72878090Y-35759942D01*
X75177590Y-35759942D01*
X75177590Y-35996055D01*
X75214524Y-36229251D01*
X75214525Y-36229255D01*
X75287482Y-36453792D01*
X75287484Y-36453795D01*
X75394674Y-36664168D01*
X75454929Y-36747104D01*
X76194626Y-36007406D01*
X76211665Y-36070992D01*
X76277491Y-36185006D01*
X76370583Y-36278098D01*
X76484597Y-36343924D01*
X76548180Y-36360961D01*
X75808483Y-37100658D01*
X75891415Y-37160912D01*
X75891419Y-37160914D01*
X76101793Y-37268104D01*
X76101796Y-37268106D01*
X76326333Y-37341063D01*
X76326337Y-37341064D01*
X76559534Y-37377999D01*
X76795646Y-37377999D01*
X77028842Y-37341064D01*
X77028846Y-37341063D01*
X77253383Y-37268106D01*
X77253386Y-37268104D01*
X77463760Y-37160914D01*
X77463766Y-37160910D01*
X77546695Y-37100658D01*
X77546695Y-37100657D01*
X76806999Y-36360961D01*
X76870583Y-36343924D01*
X76984597Y-36278098D01*
X77077689Y-36185006D01*
X77143515Y-36070992D01*
X77160552Y-36007408D01*
X77900248Y-36747104D01*
X77900249Y-36747104D01*
X77960501Y-36664175D01*
X77960505Y-36664169D01*
X78067695Y-36453795D01*
X78067697Y-36453792D01*
X78140654Y-36229255D01*
X78140655Y-36229251D01*
X78177590Y-35996055D01*
X78177590Y-35759942D01*
X78140655Y-35526746D01*
X78140654Y-35526742D01*
X78067697Y-35302205D01*
X78067695Y-35302202D01*
X77960505Y-35091828D01*
X77960503Y-35091824D01*
X77900249Y-35008892D01*
X77160552Y-35748589D01*
X77143515Y-35685006D01*
X77077689Y-35570992D01*
X76984597Y-35477900D01*
X76870583Y-35412074D01*
X76806997Y-35395035D01*
X77546695Y-34655338D01*
X77463759Y-34595083D01*
X77253386Y-34487893D01*
X77253383Y-34487891D01*
X77028846Y-34414934D01*
X77028842Y-34414933D01*
X76795646Y-34377999D01*
X76559534Y-34377999D01*
X76326337Y-34414933D01*
X76326333Y-34414934D01*
X76101796Y-34487891D01*
X76101793Y-34487893D01*
X75891413Y-34595087D01*
X75808483Y-34655338D01*
X76548181Y-35395036D01*
X76484597Y-35412074D01*
X76370583Y-35477900D01*
X76277491Y-35570992D01*
X76211665Y-35685006D01*
X76194627Y-35748590D01*
X75454929Y-35008892D01*
X75394678Y-35091822D01*
X75287484Y-35302202D01*
X75287482Y-35302205D01*
X75214525Y-35526742D01*
X75214524Y-35526746D01*
X75177590Y-35759942D01*
X72878090Y-35759942D01*
X72878090Y-35073726D01*
X72878089Y-35073724D01*
X72875236Y-35043304D01*
X72875236Y-35043300D01*
X72830383Y-34915117D01*
X72830247Y-34914933D01*
X72749744Y-34805854D01*
X72749742Y-34805852D01*
X72749740Y-34805849D01*
X72749736Y-34805846D01*
X72749734Y-34805844D01*
X72704859Y-34772725D01*
X72640473Y-34725206D01*
X72512293Y-34680354D01*
X72512284Y-34680352D01*
X72481864Y-34677499D01*
X72481856Y-34677499D01*
X70873324Y-34677499D01*
X70873315Y-34677499D01*
X70842895Y-34680352D01*
X70842886Y-34680354D01*
X70714706Y-34725206D01*
X70605445Y-34805844D01*
X70605435Y-34805854D01*
X70524797Y-34915115D01*
X70479945Y-35043295D01*
X70479943Y-35043304D01*
X70477090Y-35073724D01*
X47950777Y-35073724D01*
X47782324Y-34987893D01*
X47782321Y-34987891D01*
X47557784Y-34914934D01*
X47557780Y-34914933D01*
X47324584Y-34877999D01*
X47088472Y-34877999D01*
X46855275Y-34914933D01*
X46855271Y-34914934D01*
X46630734Y-34987891D01*
X46630731Y-34987893D01*
X46420351Y-35095087D01*
X46337421Y-35155338D01*
X47077119Y-35895036D01*
X47013535Y-35912074D01*
X46899521Y-35977900D01*
X46806429Y-36070992D01*
X46740603Y-36185006D01*
X46723565Y-36248590D01*
X45983867Y-35508892D01*
X45923616Y-35591822D01*
X45816422Y-35802202D01*
X45816420Y-35802205D01*
X45743463Y-36026742D01*
X45743462Y-36026746D01*
X45706528Y-36259942D01*
X43407028Y-36259942D01*
X43407028Y-35573726D01*
X43407027Y-35573724D01*
X43404174Y-35543304D01*
X43404174Y-35543300D01*
X43359321Y-35415117D01*
X43357075Y-35412074D01*
X43278682Y-35305854D01*
X43278680Y-35305852D01*
X43278678Y-35305849D01*
X43278674Y-35305846D01*
X43278672Y-35305844D01*
X43233797Y-35272725D01*
X43169411Y-35225206D01*
X43041231Y-35180354D01*
X43041222Y-35180352D01*
X43010802Y-35177499D01*
X43010794Y-35177499D01*
X41402262Y-35177499D01*
X41402253Y-35177499D01*
X41371833Y-35180352D01*
X41371824Y-35180354D01*
X41243644Y-35225206D01*
X41134383Y-35305844D01*
X41134373Y-35305854D01*
X41053735Y-35415115D01*
X41008883Y-35543295D01*
X41008881Y-35543304D01*
X41006028Y-35573724D01*
X20820500Y-35573724D01*
X20820500Y-30804124D01*
X96931039Y-30804124D01*
X96931039Y-30991361D01*
X96967565Y-31174992D01*
X97039216Y-31347972D01*
X97039220Y-31347981D01*
X97113604Y-31459302D01*
X97143237Y-31503651D01*
X97275631Y-31636045D01*
X97342002Y-31680392D01*
X97431300Y-31740061D01*
X97431306Y-31740063D01*
X97431308Y-31740065D01*
X97604288Y-31811716D01*
X97787923Y-31848243D01*
X97787924Y-31848243D01*
X97975154Y-31848243D01*
X97975155Y-31848243D01*
X98158790Y-31811716D01*
X98331770Y-31740065D01*
X98331773Y-31740062D01*
X98331777Y-31740061D01*
X98376726Y-31710025D01*
X98487447Y-31636045D01*
X98619841Y-31503651D01*
X98693821Y-31392930D01*
X98723857Y-31347981D01*
X98723858Y-31347977D01*
X98723861Y-31347974D01*
X98795512Y-31174994D01*
X98832039Y-30991359D01*
X98832039Y-30804127D01*
X98795512Y-30620492D01*
X98723861Y-30447512D01*
X98723859Y-30447510D01*
X98723857Y-30447504D01*
X98664188Y-30358206D01*
X98619841Y-30291835D01*
X98487447Y-30159441D01*
X98443098Y-30129808D01*
X98331777Y-30055424D01*
X98331768Y-30055420D01*
X98158788Y-29983769D01*
X97975157Y-29947243D01*
X97975155Y-29947243D01*
X97787923Y-29947243D01*
X97787920Y-29947243D01*
X97604289Y-29983769D01*
X97431309Y-30055420D01*
X97431300Y-30055424D01*
X97275631Y-30159441D01*
X97275627Y-30159444D01*
X97143240Y-30291831D01*
X97143237Y-30291835D01*
X97039220Y-30447504D01*
X97039216Y-30447513D01*
X96967565Y-30620493D01*
X96931039Y-30804124D01*
X20820500Y-30804124D01*
X20820500Y-29008073D01*
X95134988Y-29008073D01*
X95134988Y-29195310D01*
X95171514Y-29378941D01*
X95243165Y-29551921D01*
X95243169Y-29551930D01*
X95317553Y-29663251D01*
X95347186Y-29707600D01*
X95479580Y-29839994D01*
X95545951Y-29884341D01*
X95635249Y-29944010D01*
X95635255Y-29944012D01*
X95635257Y-29944014D01*
X95808237Y-30015665D01*
X95991872Y-30052192D01*
X95991873Y-30052192D01*
X96179103Y-30052192D01*
X96179104Y-30052192D01*
X96362739Y-30015665D01*
X96535719Y-29944014D01*
X96535722Y-29944011D01*
X96535726Y-29944010D01*
X96580675Y-29913974D01*
X96691396Y-29839994D01*
X96823790Y-29707600D01*
X96897770Y-29596879D01*
X96927806Y-29551930D01*
X96927807Y-29551926D01*
X96927810Y-29551923D01*
X96999461Y-29378943D01*
X97035988Y-29195308D01*
X97035988Y-29008076D01*
X96999461Y-28824441D01*
X96927810Y-28651461D01*
X96927808Y-28651459D01*
X96927806Y-28651453D01*
X96868137Y-28562155D01*
X96823790Y-28495784D01*
X96691396Y-28363390D01*
X96647047Y-28333757D01*
X96535726Y-28259373D01*
X96535717Y-28259369D01*
X96362737Y-28187718D01*
X96179106Y-28151192D01*
X96179104Y-28151192D01*
X95991872Y-28151192D01*
X95991869Y-28151192D01*
X95808238Y-28187718D01*
X95635258Y-28259369D01*
X95635249Y-28259373D01*
X95479580Y-28363390D01*
X95479576Y-28363393D01*
X95347189Y-28495780D01*
X95347186Y-28495784D01*
X95243169Y-28651453D01*
X95243165Y-28651462D01*
X95171514Y-28824442D01*
X95134988Y-29008073D01*
X20820500Y-29008073D01*
X20820500Y-27212022D01*
X96931039Y-27212022D01*
X96931039Y-27399259D01*
X96967565Y-27582890D01*
X97039216Y-27755870D01*
X97039220Y-27755879D01*
X97113604Y-27867200D01*
X97143237Y-27911549D01*
X97275631Y-28043943D01*
X97342002Y-28088290D01*
X97431300Y-28147959D01*
X97431306Y-28147961D01*
X97431308Y-28147963D01*
X97604288Y-28219614D01*
X97787923Y-28256141D01*
X97787924Y-28256141D01*
X97975154Y-28256141D01*
X97975155Y-28256141D01*
X98158790Y-28219614D01*
X98331770Y-28147963D01*
X98331773Y-28147960D01*
X98331777Y-28147959D01*
X98376726Y-28117923D01*
X98487447Y-28043943D01*
X98619841Y-27911549D01*
X98693821Y-27800828D01*
X98723857Y-27755879D01*
X98723858Y-27755875D01*
X98723861Y-27755872D01*
X98795512Y-27582892D01*
X98832039Y-27399257D01*
X98832039Y-27212025D01*
X98795512Y-27028390D01*
X98723861Y-26855410D01*
X98723859Y-26855408D01*
X98723857Y-26855402D01*
X98642140Y-26733106D01*
X98619841Y-26699733D01*
X98487447Y-26567339D01*
X98443098Y-26537706D01*
X98331777Y-26463322D01*
X98331768Y-26463318D01*
X98158788Y-26391667D01*
X97975157Y-26355141D01*
X97975155Y-26355141D01*
X97787923Y-26355141D01*
X97787920Y-26355141D01*
X97604289Y-26391667D01*
X97431309Y-26463318D01*
X97431300Y-26463322D01*
X97275631Y-26567339D01*
X97275627Y-26567342D01*
X97143240Y-26699729D01*
X97143237Y-26699733D01*
X97039220Y-26855402D01*
X97039216Y-26855411D01*
X96967565Y-27028391D01*
X96931039Y-27212022D01*
X20820500Y-27212022D01*
X20820500Y-24538724D01*
X40977090Y-24538724D01*
X40977090Y-26147273D01*
X40979943Y-26177693D01*
X40979945Y-26177702D01*
X41024797Y-26305882D01*
X41105435Y-26415143D01*
X41105437Y-26415145D01*
X41105440Y-26415149D01*
X41105443Y-26415151D01*
X41105445Y-26415153D01*
X41214706Y-26495791D01*
X41214707Y-26495791D01*
X41214708Y-26495792D01*
X41342891Y-26540645D01*
X41373315Y-26543498D01*
X41373317Y-26543499D01*
X41373324Y-26543499D01*
X42981863Y-26543499D01*
X42981863Y-26543498D01*
X43012289Y-26540645D01*
X43140472Y-26495792D01*
X43249740Y-26415149D01*
X43330383Y-26305881D01*
X43375236Y-26177698D01*
X43378089Y-26147272D01*
X43378090Y-26147272D01*
X43378090Y-25224942D01*
X45677590Y-25224942D01*
X45677590Y-25461055D01*
X45714524Y-25694251D01*
X45714525Y-25694255D01*
X45787482Y-25918792D01*
X45787484Y-25918795D01*
X45894674Y-26129168D01*
X45954929Y-26212104D01*
X46694626Y-25472406D01*
X46711665Y-25535992D01*
X46777491Y-25650006D01*
X46870583Y-25743098D01*
X46984597Y-25808924D01*
X47048180Y-25825961D01*
X46308483Y-26565658D01*
X46391415Y-26625912D01*
X46391419Y-26625914D01*
X46601793Y-26733104D01*
X46601796Y-26733106D01*
X46826333Y-26806063D01*
X46826337Y-26806064D01*
X47059534Y-26842999D01*
X47295646Y-26842999D01*
X47528842Y-26806064D01*
X47528846Y-26806063D01*
X47753383Y-26733106D01*
X47753386Y-26733104D01*
X47963760Y-26625914D01*
X47963766Y-26625910D01*
X48046695Y-26565658D01*
X48046695Y-26565657D01*
X47306999Y-25825961D01*
X47370583Y-25808924D01*
X47484597Y-25743098D01*
X47577689Y-25650006D01*
X47643515Y-25535992D01*
X47660552Y-25472408D01*
X48400248Y-26212104D01*
X48400249Y-26212104D01*
X48460501Y-26129175D01*
X48460505Y-26129169D01*
X48567695Y-25918795D01*
X48567697Y-25918792D01*
X48640654Y-25694255D01*
X48640655Y-25694251D01*
X48677590Y-25461055D01*
X48677590Y-25224942D01*
X48640655Y-24991746D01*
X48640654Y-24991742D01*
X48567697Y-24767205D01*
X48567695Y-24767202D01*
X48460505Y-24556828D01*
X48460503Y-24556824D01*
X48400249Y-24473892D01*
X47660552Y-25213589D01*
X47643515Y-25150006D01*
X47577689Y-25035992D01*
X47484597Y-24942900D01*
X47370583Y-24877074D01*
X47306997Y-24860035D01*
X48046695Y-24120338D01*
X47982535Y-24073724D01*
X70477090Y-24073724D01*
X70477090Y-25682273D01*
X70479943Y-25712693D01*
X70479945Y-25712702D01*
X70524797Y-25840882D01*
X70605435Y-25950143D01*
X70605437Y-25950145D01*
X70605440Y-25950149D01*
X70605443Y-25950151D01*
X70605445Y-25950153D01*
X70714706Y-26030791D01*
X70714707Y-26030791D01*
X70714708Y-26030792D01*
X70842891Y-26075645D01*
X70873315Y-26078498D01*
X70873317Y-26078499D01*
X70873324Y-26078499D01*
X72481863Y-26078499D01*
X72481863Y-26078498D01*
X72512289Y-26075645D01*
X72640472Y-26030792D01*
X72749740Y-25950149D01*
X72830383Y-25840881D01*
X72875236Y-25712698D01*
X72878089Y-25682272D01*
X72878090Y-25682272D01*
X72878090Y-24759942D01*
X75177590Y-24759942D01*
X75177590Y-24996055D01*
X75214524Y-25229251D01*
X75214525Y-25229255D01*
X75287482Y-25453792D01*
X75287484Y-25453795D01*
X75394674Y-25664168D01*
X75454929Y-25747104D01*
X76194626Y-25007406D01*
X76211665Y-25070992D01*
X76277491Y-25185006D01*
X76370583Y-25278098D01*
X76484597Y-25343924D01*
X76548180Y-25360961D01*
X75808483Y-26100658D01*
X75891415Y-26160912D01*
X75891419Y-26160914D01*
X76101793Y-26268104D01*
X76101796Y-26268106D01*
X76326333Y-26341063D01*
X76326337Y-26341064D01*
X76559534Y-26377999D01*
X76795646Y-26377999D01*
X77028842Y-26341064D01*
X77028846Y-26341063D01*
X77253383Y-26268106D01*
X77253386Y-26268104D01*
X77463760Y-26160914D01*
X77463766Y-26160910D01*
X77546695Y-26100658D01*
X77546695Y-26100657D01*
X76806999Y-25360961D01*
X76870583Y-25343924D01*
X76984597Y-25278098D01*
X77077689Y-25185006D01*
X77143515Y-25070992D01*
X77160552Y-25007408D01*
X77900248Y-25747104D01*
X77900249Y-25747104D01*
X77960501Y-25664175D01*
X77960505Y-25664169D01*
X78067695Y-25453795D01*
X78067697Y-25453792D01*
X78140654Y-25229255D01*
X78140655Y-25229251D01*
X78177590Y-24996055D01*
X78177590Y-24759942D01*
X78140655Y-24526746D01*
X78140654Y-24526742D01*
X78067697Y-24302205D01*
X78067695Y-24302202D01*
X77960505Y-24091828D01*
X77960503Y-24091824D01*
X77900249Y-24008892D01*
X77160552Y-24748589D01*
X77143515Y-24685006D01*
X77077689Y-24570992D01*
X76984597Y-24477900D01*
X76870583Y-24412074D01*
X76806997Y-24395035D01*
X77546695Y-23655338D01*
X77463759Y-23595083D01*
X77253386Y-23487893D01*
X77253383Y-23487891D01*
X77028846Y-23414934D01*
X77028842Y-23414933D01*
X76795646Y-23377999D01*
X76559534Y-23377999D01*
X76326337Y-23414933D01*
X76326333Y-23414934D01*
X76101796Y-23487891D01*
X76101793Y-23487893D01*
X75891413Y-23595087D01*
X75808483Y-23655338D01*
X76548181Y-24395036D01*
X76484597Y-24412074D01*
X76370583Y-24477900D01*
X76277491Y-24570992D01*
X76211665Y-24685006D01*
X76194627Y-24748590D01*
X75454929Y-24008892D01*
X75394678Y-24091822D01*
X75287484Y-24302202D01*
X75287482Y-24302205D01*
X75214525Y-24526742D01*
X75214524Y-24526746D01*
X75177590Y-24759942D01*
X72878090Y-24759942D01*
X72878090Y-24073726D01*
X72878089Y-24073724D01*
X72875236Y-24043304D01*
X72875236Y-24043300D01*
X72830383Y-23915117D01*
X72804416Y-23879933D01*
X72749744Y-23805854D01*
X72749742Y-23805852D01*
X72749740Y-23805849D01*
X72749736Y-23805846D01*
X72749734Y-23805844D01*
X72704859Y-23772725D01*
X72640473Y-23725206D01*
X72512293Y-23680354D01*
X72512284Y-23680352D01*
X72481864Y-23677499D01*
X72481856Y-23677499D01*
X70873324Y-23677499D01*
X70873315Y-23677499D01*
X70842895Y-23680352D01*
X70842886Y-23680354D01*
X70714706Y-23725206D01*
X70605445Y-23805844D01*
X70605435Y-23805854D01*
X70524797Y-23915115D01*
X70479945Y-24043295D01*
X70479943Y-24043304D01*
X70477090Y-24073724D01*
X47982535Y-24073724D01*
X47963759Y-24060083D01*
X47753386Y-23952893D01*
X47753383Y-23952891D01*
X47528846Y-23879934D01*
X47528842Y-23879933D01*
X47295646Y-23842999D01*
X47059534Y-23842999D01*
X46826337Y-23879933D01*
X46826333Y-23879934D01*
X46601796Y-23952891D01*
X46601793Y-23952893D01*
X46391413Y-24060087D01*
X46308483Y-24120338D01*
X47048181Y-24860036D01*
X46984597Y-24877074D01*
X46870583Y-24942900D01*
X46777491Y-25035992D01*
X46711665Y-25150006D01*
X46694627Y-25213590D01*
X45954929Y-24473892D01*
X45894678Y-24556822D01*
X45787484Y-24767202D01*
X45787482Y-24767205D01*
X45714525Y-24991742D01*
X45714524Y-24991746D01*
X45677590Y-25224942D01*
X43378090Y-25224942D01*
X43378090Y-24538726D01*
X43378089Y-24538724D01*
X43375236Y-24508304D01*
X43375236Y-24508300D01*
X43330383Y-24380117D01*
X43272879Y-24302202D01*
X43249744Y-24270854D01*
X43249742Y-24270852D01*
X43249740Y-24270849D01*
X43249736Y-24270846D01*
X43249734Y-24270844D01*
X43204859Y-24237725D01*
X43140473Y-24190206D01*
X43012293Y-24145354D01*
X43012284Y-24145352D01*
X42981864Y-24142499D01*
X42981856Y-24142499D01*
X41373324Y-24142499D01*
X41373315Y-24142499D01*
X41342895Y-24145352D01*
X41342886Y-24145354D01*
X41214706Y-24190206D01*
X41105445Y-24270844D01*
X41105435Y-24270854D01*
X41024797Y-24380115D01*
X40979945Y-24508295D01*
X40979943Y-24508304D01*
X40977090Y-24538724D01*
X20820500Y-24538724D01*
X20820500Y-23267773D01*
X85537090Y-23267773D01*
X85537090Y-23488224D01*
X85571574Y-23705947D01*
X85639692Y-23915598D01*
X85639694Y-23915601D01*
X85639695Y-23915605D01*
X85687228Y-24008892D01*
X85720262Y-24073726D01*
X85739775Y-24112021D01*
X85869348Y-24290364D01*
X86025225Y-24446241D01*
X86203568Y-24575814D01*
X86399984Y-24675894D01*
X86609639Y-24744014D01*
X86696730Y-24757808D01*
X86827365Y-24778499D01*
X86827368Y-24778499D01*
X87047815Y-24778499D01*
X87164976Y-24759942D01*
X87265541Y-24744014D01*
X87475196Y-24675894D01*
X87671612Y-24575814D01*
X87849955Y-24446241D01*
X88005832Y-24290364D01*
X88135405Y-24112021D01*
X88235485Y-23915605D01*
X88303605Y-23705950D01*
X88338090Y-23488221D01*
X88338090Y-23267777D01*
X88338090Y-23267773D01*
X90617090Y-23267773D01*
X90617090Y-23488224D01*
X90651574Y-23705947D01*
X90719692Y-23915598D01*
X90719694Y-23915601D01*
X90719695Y-23915605D01*
X90767228Y-24008892D01*
X90800262Y-24073726D01*
X90819775Y-24112021D01*
X90949348Y-24290364D01*
X91105225Y-24446241D01*
X91283568Y-24575814D01*
X91479984Y-24675894D01*
X91689639Y-24744014D01*
X91776730Y-24757808D01*
X91907365Y-24778499D01*
X91907368Y-24778499D01*
X92127815Y-24778499D01*
X92244976Y-24759942D01*
X92345541Y-24744014D01*
X92555196Y-24675894D01*
X92751612Y-24575814D01*
X92929955Y-24446241D01*
X93085832Y-24290364D01*
X93215405Y-24112021D01*
X93315485Y-23915605D01*
X93383605Y-23705950D01*
X93418090Y-23488221D01*
X93418090Y-23267777D01*
X93418090Y-23267773D01*
X95697090Y-23267773D01*
X95697090Y-23488224D01*
X95731574Y-23705947D01*
X95799692Y-23915598D01*
X95799694Y-23915601D01*
X95799695Y-23915605D01*
X95847228Y-24008892D01*
X95880262Y-24073726D01*
X95899775Y-24112021D01*
X96029348Y-24290364D01*
X96185225Y-24446241D01*
X96363568Y-24575814D01*
X96559984Y-24675894D01*
X96769639Y-24744014D01*
X96856730Y-24757808D01*
X96987365Y-24778499D01*
X96987368Y-24778499D01*
X97207815Y-24778499D01*
X97324976Y-24759942D01*
X97425541Y-24744014D01*
X97635196Y-24675894D01*
X97831612Y-24575814D01*
X98009955Y-24446241D01*
X98165832Y-24290364D01*
X98295405Y-24112021D01*
X98395485Y-23915605D01*
X98463605Y-23705950D01*
X98498090Y-23488221D01*
X98498090Y-23267777D01*
X98498090Y-23267773D01*
X98463605Y-23050050D01*
X98463605Y-23050048D01*
X98395485Y-22840393D01*
X98295405Y-22643977D01*
X98165832Y-22465634D01*
X98009955Y-22309757D01*
X97831612Y-22180184D01*
X97831611Y-22180183D01*
X97831609Y-22180182D01*
X97742415Y-22134735D01*
X97635196Y-22080104D01*
X97635192Y-22080103D01*
X97635189Y-22080101D01*
X97425538Y-22011983D01*
X97207815Y-21977499D01*
X97207812Y-21977499D01*
X96987368Y-21977499D01*
X96987365Y-21977499D01*
X96769641Y-22011983D01*
X96559990Y-22080101D01*
X96363570Y-22180182D01*
X96274396Y-22244970D01*
X96185225Y-22309757D01*
X96029348Y-22465634D01*
X95964561Y-22554805D01*
X95899773Y-22643979D01*
X95799692Y-22840399D01*
X95731574Y-23050050D01*
X95697090Y-23267773D01*
X93418090Y-23267773D01*
X93383605Y-23050050D01*
X93383605Y-23050048D01*
X93315485Y-22840393D01*
X93215405Y-22643977D01*
X93085832Y-22465634D01*
X92929955Y-22309757D01*
X92751612Y-22180184D01*
X92751611Y-22180183D01*
X92751609Y-22180182D01*
X92662415Y-22134735D01*
X92555196Y-22080104D01*
X92555192Y-22080103D01*
X92555189Y-22080101D01*
X92345538Y-22011983D01*
X92127815Y-21977499D01*
X92127812Y-21977499D01*
X91907368Y-21977499D01*
X91907365Y-21977499D01*
X91689641Y-22011983D01*
X91479990Y-22080101D01*
X91283570Y-22180182D01*
X91194396Y-22244970D01*
X91105225Y-22309757D01*
X90949348Y-22465634D01*
X90884561Y-22554805D01*
X90819773Y-22643979D01*
X90719692Y-22840399D01*
X90651574Y-23050050D01*
X90617090Y-23267773D01*
X88338090Y-23267773D01*
X88303605Y-23050050D01*
X88303605Y-23050048D01*
X88235485Y-22840393D01*
X88135405Y-22643977D01*
X88005832Y-22465634D01*
X87849955Y-22309757D01*
X87671612Y-22180184D01*
X87671611Y-22180183D01*
X87671609Y-22180182D01*
X87582415Y-22134735D01*
X87475196Y-22080104D01*
X87475192Y-22080103D01*
X87475189Y-22080101D01*
X87265538Y-22011983D01*
X87047815Y-21977499D01*
X87047812Y-21977499D01*
X86827368Y-21977499D01*
X86827365Y-21977499D01*
X86609641Y-22011983D01*
X86399990Y-22080101D01*
X86203570Y-22180182D01*
X86114396Y-22244970D01*
X86025225Y-22309757D01*
X85869348Y-22465634D01*
X85804561Y-22554805D01*
X85739773Y-22643979D01*
X85639692Y-22840399D01*
X85571574Y-23050050D01*
X85537090Y-23267773D01*
X20820500Y-23267773D01*
X20820500Y-17988984D01*
X20820681Y-17983007D01*
X20824758Y-17915605D01*
X20838362Y-17690688D01*
X20839801Y-17678837D01*
X20892052Y-17393714D01*
X20894912Y-17382113D01*
X20930542Y-17267773D01*
X28277090Y-17267773D01*
X28277090Y-17488224D01*
X28311574Y-17705947D01*
X28379692Y-17915598D01*
X28379694Y-17915601D01*
X28379695Y-17915605D01*
X28479775Y-18112021D01*
X28609348Y-18290364D01*
X28765225Y-18446241D01*
X28943568Y-18575814D01*
X29139984Y-18675894D01*
X29349639Y-18744014D01*
X29436730Y-18757808D01*
X29567365Y-18778499D01*
X29567368Y-18778499D01*
X29787815Y-18778499D01*
X29896676Y-18761256D01*
X30005541Y-18744014D01*
X30215196Y-18675894D01*
X30411612Y-18575814D01*
X30589955Y-18446241D01*
X30745832Y-18290364D01*
X30875405Y-18112021D01*
X30975485Y-17915605D01*
X31043605Y-17705950D01*
X31078090Y-17488221D01*
X31078090Y-17267777D01*
X31078090Y-17267773D01*
X57777090Y-17267773D01*
X57777090Y-17488224D01*
X57811574Y-17705947D01*
X57879692Y-17915598D01*
X57879694Y-17915601D01*
X57879695Y-17915605D01*
X57979775Y-18112021D01*
X58109348Y-18290364D01*
X58265225Y-18446241D01*
X58443568Y-18575814D01*
X58639984Y-18675894D01*
X58849639Y-18744014D01*
X58936730Y-18757808D01*
X59067365Y-18778499D01*
X59067368Y-18778499D01*
X59287815Y-18778499D01*
X59396676Y-18761256D01*
X59505541Y-18744014D01*
X59715196Y-18675894D01*
X59911612Y-18575814D01*
X60089955Y-18446241D01*
X60245832Y-18290364D01*
X60375405Y-18112021D01*
X60475485Y-17915605D01*
X60543605Y-17705950D01*
X60578090Y-17488221D01*
X60578090Y-17267777D01*
X60578090Y-17267773D01*
X60553842Y-17114683D01*
X60543605Y-17050048D01*
X60475485Y-16840393D01*
X60375405Y-16643977D01*
X60245832Y-16465634D01*
X60089955Y-16309757D01*
X59911612Y-16180184D01*
X59911611Y-16180183D01*
X59911609Y-16180182D01*
X59822415Y-16134735D01*
X59715196Y-16080104D01*
X59715192Y-16080103D01*
X59715189Y-16080101D01*
X59505538Y-16011983D01*
X59287815Y-15977499D01*
X59287812Y-15977499D01*
X59067368Y-15977499D01*
X59067365Y-15977499D01*
X58849641Y-16011983D01*
X58639990Y-16080101D01*
X58443570Y-16180182D01*
X58354396Y-16244970D01*
X58265225Y-16309757D01*
X58109348Y-16465634D01*
X58093434Y-16487538D01*
X57979773Y-16643979D01*
X57879692Y-16840399D01*
X57811574Y-17050050D01*
X57777090Y-17267773D01*
X31078090Y-17267773D01*
X31053842Y-17114683D01*
X31043605Y-17050048D01*
X30975485Y-16840393D01*
X30875405Y-16643977D01*
X30745832Y-16465634D01*
X30589955Y-16309757D01*
X30411612Y-16180184D01*
X30411611Y-16180183D01*
X30411609Y-16180182D01*
X30322415Y-16134735D01*
X30215196Y-16080104D01*
X30215192Y-16080103D01*
X30215189Y-16080101D01*
X30005538Y-16011983D01*
X29787815Y-15977499D01*
X29787812Y-15977499D01*
X29567368Y-15977499D01*
X29567365Y-15977499D01*
X29349641Y-16011983D01*
X29139990Y-16080101D01*
X28943570Y-16180182D01*
X28854396Y-16244970D01*
X28765225Y-16309757D01*
X28609348Y-16465634D01*
X28593434Y-16487538D01*
X28479773Y-16643979D01*
X28379692Y-16840399D01*
X28311574Y-17050050D01*
X28277090Y-17267773D01*
X20930542Y-17267773D01*
X20940931Y-17234434D01*
X20981147Y-17105376D01*
X20985378Y-17094218D01*
X21104350Y-16829873D01*
X21109899Y-16819302D01*
X21259861Y-16571233D01*
X21266632Y-16561423D01*
X21445406Y-16333235D01*
X21453318Y-16324303D01*
X21658303Y-16119318D01*
X21667235Y-16111406D01*
X21895423Y-15932632D01*
X21905233Y-15925861D01*
X22153302Y-15775899D01*
X22163873Y-15770350D01*
X22428218Y-15651378D01*
X22439370Y-15647148D01*
X22716120Y-15560910D01*
X22727714Y-15558052D01*
X23012837Y-15505801D01*
X23024688Y-15504362D01*
X23317008Y-15486681D01*
X23322985Y-15486500D01*
X96328002Y-15486500D01*
X96373715Y-15497686D01*
G37*
%TD.AperFunction*%
%TD*%
%TA.AperFunction,Conductor*%
%TO.N,GND*%
G36*
X134417736Y-15486726D02*
G01*
X134707796Y-15504271D01*
X134722659Y-15506076D01*
X135004798Y-15557780D01*
X135019335Y-15561363D01*
X135293172Y-15646695D01*
X135307163Y-15652000D01*
X135568743Y-15769727D01*
X135581989Y-15776680D01*
X135827465Y-15925075D01*
X135839776Y-15933573D01*
X136065573Y-16110473D01*
X136076781Y-16120403D01*
X136279596Y-16323218D01*
X136289526Y-16334426D01*
X136409481Y-16487538D01*
X136466422Y-16560217D01*
X136474926Y-16572537D01*
X136598132Y-16776345D01*
X136623316Y-16818004D01*
X136630275Y-16831263D01*
X136747997Y-17092831D01*
X136753306Y-17106832D01*
X136838635Y-17380663D01*
X136842219Y-17395201D01*
X136893923Y-17677340D01*
X136895728Y-17692205D01*
X136913274Y-17982263D01*
X136913500Y-17989750D01*
X136913500Y-72434249D01*
X136913274Y-72441736D01*
X136895728Y-72731794D01*
X136893923Y-72746659D01*
X136842219Y-73028798D01*
X136838635Y-73043336D01*
X136753306Y-73317167D01*
X136747997Y-73331168D01*
X136630275Y-73592736D01*
X136623316Y-73605995D01*
X136474928Y-73851459D01*
X136466422Y-73863782D01*
X136289526Y-74089573D01*
X136279596Y-74100781D01*
X136076781Y-74303596D01*
X136065573Y-74313526D01*
X135839782Y-74490422D01*
X135827459Y-74498928D01*
X135581995Y-74647316D01*
X135568736Y-74654275D01*
X135307168Y-74771997D01*
X135293167Y-74777306D01*
X135019336Y-74862635D01*
X135004798Y-74866219D01*
X134722659Y-74917923D01*
X134707794Y-74919728D01*
X134417736Y-74937274D01*
X134410249Y-74937500D01*
X103033295Y-74937500D01*
X102976038Y-74923489D01*
X102703567Y-74781650D01*
X102682382Y-74770621D01*
X102673026Y-74765220D01*
X102347211Y-74557652D01*
X102314278Y-74536671D01*
X102305417Y-74530467D01*
X101967944Y-74271515D01*
X101959657Y-74264561D01*
X101646047Y-73977191D01*
X101638398Y-73969542D01*
X101351028Y-73655932D01*
X101344074Y-73647645D01*
X101085122Y-73310172D01*
X101078918Y-73301311D01*
X100953878Y-73105038D01*
X100850365Y-72942555D01*
X100844972Y-72933215D01*
X100648549Y-72555890D01*
X100643980Y-72546092D01*
X100613722Y-72473042D01*
X100481194Y-72153092D01*
X100477498Y-72142936D01*
X100419686Y-71959580D01*
X100349589Y-71737258D01*
X100346790Y-71726814D01*
X100254721Y-71311520D01*
X100252843Y-71300866D01*
X100234890Y-71164495D01*
X100198949Y-70891500D01*
X124997090Y-70891500D01*
X124997090Y-71164497D01*
X125027653Y-71435751D01*
X125027655Y-71435767D01*
X125088399Y-71701907D01*
X125088403Y-71701919D01*
X125178563Y-71959580D01*
X125297005Y-72205527D01*
X125297007Y-72205530D01*
X125442246Y-72436676D01*
X125612451Y-72650106D01*
X125805483Y-72843138D01*
X126018913Y-73013343D01*
X126250059Y-73158582D01*
X126496012Y-73277027D01*
X126631211Y-73324335D01*
X126753669Y-73367185D01*
X126753681Y-73367189D01*
X127019825Y-73427934D01*
X127291092Y-73458498D01*
X127291093Y-73458499D01*
X127291096Y-73458499D01*
X127564087Y-73458499D01*
X127564087Y-73458498D01*
X127835355Y-73427934D01*
X128101499Y-73367189D01*
X128359168Y-73277027D01*
X128605121Y-73158582D01*
X128836267Y-73013343D01*
X129049697Y-72843138D01*
X129242729Y-72650106D01*
X129412934Y-72436676D01*
X129558173Y-72205530D01*
X129676618Y-71959577D01*
X129766780Y-71701908D01*
X129827525Y-71435764D01*
X129858090Y-71164493D01*
X129858090Y-70891505D01*
X129827525Y-70620234D01*
X129766780Y-70354090D01*
X129676618Y-70096421D01*
X129558173Y-69850468D01*
X129412934Y-69619322D01*
X129242729Y-69405892D01*
X129049697Y-69212860D01*
X128836267Y-69042655D01*
X128605121Y-68897416D01*
X128605118Y-68897414D01*
X128359171Y-68778972D01*
X128101510Y-68688812D01*
X128101498Y-68688808D01*
X127835358Y-68628064D01*
X127835342Y-68628062D01*
X127564088Y-68597499D01*
X127564084Y-68597499D01*
X127291096Y-68597499D01*
X127291091Y-68597499D01*
X127019837Y-68628062D01*
X127019821Y-68628064D01*
X126753681Y-68688808D01*
X126753669Y-68688812D01*
X126496008Y-68778972D01*
X126250061Y-68897414D01*
X126018914Y-69042654D01*
X125805483Y-69212859D01*
X125612450Y-69405892D01*
X125442245Y-69619323D01*
X125297005Y-69850470D01*
X125178563Y-70096417D01*
X125088403Y-70354078D01*
X125088399Y-70354090D01*
X125027655Y-70620230D01*
X125027653Y-70620246D01*
X124997090Y-70891500D01*
X100198949Y-70891500D01*
X100197320Y-70879125D01*
X100196381Y-70868392D01*
X100177708Y-70440702D01*
X100177590Y-70435293D01*
X100177590Y-69041388D01*
X119327090Y-69041388D01*
X119327090Y-69214610D01*
X119354188Y-69385700D01*
X119407717Y-69550444D01*
X119486358Y-69704787D01*
X119588176Y-69844927D01*
X119710662Y-69967413D01*
X119850802Y-70069231D01*
X120005145Y-70147872D01*
X120169889Y-70201401D01*
X120340979Y-70228499D01*
X120340980Y-70228499D01*
X120514200Y-70228499D01*
X120514201Y-70228499D01*
X120685291Y-70201401D01*
X120850035Y-70147872D01*
X121004378Y-70069231D01*
X121144518Y-69967413D01*
X121267004Y-69844927D01*
X121368822Y-69704787D01*
X121447463Y-69550444D01*
X121500992Y-69385700D01*
X121528090Y-69214610D01*
X121528090Y-69041388D01*
X121500992Y-68870298D01*
X121447463Y-68705554D01*
X121368822Y-68551211D01*
X121267004Y-68411071D01*
X121144518Y-68288585D01*
X121004378Y-68186767D01*
X120850035Y-68108126D01*
X120685291Y-68054597D01*
X120685289Y-68054596D01*
X120685288Y-68054596D01*
X120553861Y-68033780D01*
X120514201Y-68027499D01*
X120340979Y-68027499D01*
X120301318Y-68033780D01*
X120169892Y-68054596D01*
X120005142Y-68108127D01*
X119850801Y-68186767D01*
X119770846Y-68244858D01*
X119710662Y-68288585D01*
X119710660Y-68288587D01*
X119710659Y-68288587D01*
X119588178Y-68411068D01*
X119588178Y-68411069D01*
X119588176Y-68411071D01*
X119544449Y-68471255D01*
X119486358Y-68551210D01*
X119407718Y-68705551D01*
X119354187Y-68870301D01*
X119327090Y-69041388D01*
X100177590Y-69041388D01*
X100177590Y-66541388D01*
X119327090Y-66541388D01*
X119327090Y-66714610D01*
X119354188Y-66885700D01*
X119407717Y-67050444D01*
X119486358Y-67204787D01*
X119588176Y-67344927D01*
X119710662Y-67467413D01*
X119850802Y-67569231D01*
X120005145Y-67647872D01*
X120169889Y-67701401D01*
X120340979Y-67728499D01*
X120340980Y-67728499D01*
X120514200Y-67728499D01*
X120514201Y-67728499D01*
X120685291Y-67701401D01*
X120850035Y-67647872D01*
X121004378Y-67569231D01*
X121144518Y-67467413D01*
X121267004Y-67344927D01*
X121368822Y-67204787D01*
X121447463Y-67050444D01*
X121500992Y-66885700D01*
X121528090Y-66714610D01*
X121528090Y-66541388D01*
X121500992Y-66370298D01*
X121447463Y-66205554D01*
X121368822Y-66051211D01*
X121267004Y-65911071D01*
X121144518Y-65788585D01*
X121004378Y-65686767D01*
X120850035Y-65608126D01*
X120685291Y-65554597D01*
X120685289Y-65554596D01*
X120685288Y-65554596D01*
X120553861Y-65533780D01*
X120514201Y-65527499D01*
X120340979Y-65527499D01*
X120301318Y-65533780D01*
X120169892Y-65554596D01*
X120005142Y-65608127D01*
X119850801Y-65686767D01*
X119770846Y-65744858D01*
X119710662Y-65788585D01*
X119710660Y-65788587D01*
X119710659Y-65788587D01*
X119588178Y-65911068D01*
X119588178Y-65911069D01*
X119588176Y-65911071D01*
X119544449Y-65971255D01*
X119486358Y-66051210D01*
X119407718Y-66205551D01*
X119354187Y-66370301D01*
X119327090Y-66541388D01*
X100177590Y-66541388D01*
X100177590Y-64041388D01*
X119327090Y-64041388D01*
X119327090Y-64214610D01*
X119354188Y-64385700D01*
X119407717Y-64550444D01*
X119486358Y-64704787D01*
X119588176Y-64844927D01*
X119710662Y-64967413D01*
X119850802Y-65069231D01*
X120005145Y-65147872D01*
X120169889Y-65201401D01*
X120340979Y-65228499D01*
X120340980Y-65228499D01*
X120514200Y-65228499D01*
X120514201Y-65228499D01*
X120685291Y-65201401D01*
X120850035Y-65147872D01*
X121004378Y-65069231D01*
X121144518Y-64967413D01*
X121267004Y-64844927D01*
X121368822Y-64704787D01*
X121447463Y-64550444D01*
X121500992Y-64385700D01*
X121528090Y-64214610D01*
X121528090Y-64041388D01*
X121500992Y-63870298D01*
X121447463Y-63705554D01*
X121368822Y-63551211D01*
X121267004Y-63411071D01*
X121144518Y-63288585D01*
X121004378Y-63186767D01*
X120850035Y-63108126D01*
X120685291Y-63054597D01*
X120685289Y-63054596D01*
X120685288Y-63054596D01*
X120553861Y-63033780D01*
X120514201Y-63027499D01*
X120340979Y-63027499D01*
X120301318Y-63033780D01*
X120169892Y-63054596D01*
X120005142Y-63108127D01*
X119850801Y-63186767D01*
X119770846Y-63244858D01*
X119710662Y-63288585D01*
X119710660Y-63288587D01*
X119710659Y-63288587D01*
X119588178Y-63411068D01*
X119588178Y-63411069D01*
X119588176Y-63411071D01*
X119544449Y-63471255D01*
X119486358Y-63551210D01*
X119407718Y-63705551D01*
X119354187Y-63870301D01*
X119327090Y-64041388D01*
X100177590Y-64041388D01*
X100177590Y-62091500D01*
X124997090Y-62091500D01*
X124997090Y-62364497D01*
X125027653Y-62635751D01*
X125027655Y-62635767D01*
X125088399Y-62901907D01*
X125088403Y-62901919D01*
X125178563Y-63159580D01*
X125297005Y-63405527D01*
X125297007Y-63405530D01*
X125442246Y-63636676D01*
X125612451Y-63850106D01*
X125805483Y-64043138D01*
X126018913Y-64213343D01*
X126250059Y-64358582D01*
X126496012Y-64477027D01*
X126689530Y-64544741D01*
X126753669Y-64567185D01*
X126753681Y-64567189D01*
X127019825Y-64627934D01*
X127291092Y-64658498D01*
X127291093Y-64658499D01*
X127291096Y-64658499D01*
X127564087Y-64658499D01*
X127564087Y-64658498D01*
X127835355Y-64627934D01*
X128101499Y-64567189D01*
X128359168Y-64477027D01*
X128605121Y-64358582D01*
X128836267Y-64213343D01*
X129049697Y-64043138D01*
X129242729Y-63850106D01*
X129412934Y-63636676D01*
X129558173Y-63405530D01*
X129676618Y-63159577D01*
X129766780Y-62901908D01*
X129827525Y-62635764D01*
X129858090Y-62364493D01*
X129858090Y-62091505D01*
X129827525Y-61820234D01*
X129766780Y-61554090D01*
X129676618Y-61296421D01*
X129558173Y-61050468D01*
X129412934Y-60819322D01*
X129242729Y-60605892D01*
X129049697Y-60412860D01*
X128836267Y-60242655D01*
X128605121Y-60097416D01*
X128605118Y-60097414D01*
X128359171Y-59978972D01*
X128101510Y-59888812D01*
X128101498Y-59888808D01*
X127835358Y-59828064D01*
X127835342Y-59828062D01*
X127564088Y-59797499D01*
X127564084Y-59797499D01*
X127291096Y-59797499D01*
X127291091Y-59797499D01*
X127019837Y-59828062D01*
X127019821Y-59828064D01*
X126753681Y-59888808D01*
X126753669Y-59888812D01*
X126496008Y-59978972D01*
X126250061Y-60097414D01*
X126018914Y-60242654D01*
X125805483Y-60412859D01*
X125612450Y-60605892D01*
X125442245Y-60819323D01*
X125297005Y-61050470D01*
X125178563Y-61296417D01*
X125088403Y-61554078D01*
X125088399Y-61554090D01*
X125027655Y-61820230D01*
X125027653Y-61820246D01*
X124997090Y-62091500D01*
X100177590Y-62091500D01*
X100177590Y-56286574D01*
X100477590Y-56286574D01*
X100477590Y-56509423D01*
X100506675Y-56730353D01*
X100506678Y-56730366D01*
X100564353Y-56945617D01*
X100649635Y-57151501D01*
X100649644Y-57151519D01*
X100761054Y-57344490D01*
X100761063Y-57344503D01*
X100811630Y-57410402D01*
X100811633Y-57410402D01*
X101461742Y-56760292D01*
X101468639Y-56776941D01*
X101556189Y-56907969D01*
X101667620Y-57019400D01*
X101798648Y-57106950D01*
X101815295Y-57113845D01*
X101165185Y-57763954D01*
X101165185Y-57763955D01*
X101231097Y-57814532D01*
X101424075Y-57925948D01*
X101424087Y-57925953D01*
X101629971Y-58011235D01*
X101845222Y-58068910D01*
X101845235Y-58068913D01*
X102066165Y-58097999D01*
X102289015Y-58097999D01*
X102509944Y-58068913D01*
X102509957Y-58068910D01*
X102725208Y-58011235D01*
X102931092Y-57925953D01*
X102931104Y-57925948D01*
X103124088Y-57814529D01*
X103189993Y-57763956D01*
X103189994Y-57763955D01*
X102539884Y-57113845D01*
X102556532Y-57106950D01*
X102687560Y-57019400D01*
X102798991Y-56907969D01*
X102886541Y-56776941D01*
X102893436Y-56760293D01*
X103543546Y-57410403D01*
X103543547Y-57410402D01*
X103594120Y-57344497D01*
X103705539Y-57151513D01*
X103705544Y-57151501D01*
X103790826Y-56945617D01*
X103848501Y-56730366D01*
X103848504Y-56730353D01*
X103877590Y-56509423D01*
X103877590Y-56287776D01*
X105857090Y-56287776D01*
X105857090Y-56508219D01*
X105891575Y-56725950D01*
X105959693Y-56935601D01*
X105959694Y-56935604D01*
X106027712Y-57069094D01*
X106050552Y-57113920D01*
X106059777Y-57132023D01*
X106189342Y-57310356D01*
X106189346Y-57310361D01*
X106345226Y-57466241D01*
X106345231Y-57466245D01*
X106500782Y-57579258D01*
X106523568Y-57595813D01*
X106651965Y-57661235D01*
X106719983Y-57695893D01*
X106719986Y-57695894D01*
X106824811Y-57729953D01*
X106929639Y-57764013D01*
X107147368Y-57798498D01*
X107147369Y-57798498D01*
X107367811Y-57798498D01*
X107367812Y-57798498D01*
X107585541Y-57764013D01*
X107795196Y-57695893D01*
X107991612Y-57595813D01*
X108169955Y-57466240D01*
X108325832Y-57310363D01*
X108455405Y-57132020D01*
X108555485Y-56935604D01*
X108623605Y-56725949D01*
X108658090Y-56508220D01*
X108658090Y-56287777D01*
X110937090Y-56287777D01*
X110937090Y-56508221D01*
X110954332Y-56617085D01*
X110971575Y-56725951D01*
X111039693Y-56935602D01*
X111039694Y-56935605D01*
X111082391Y-57019400D01*
X111139774Y-57132020D01*
X111139777Y-57132024D01*
X111269342Y-57310357D01*
X111269346Y-57310362D01*
X111425226Y-57466242D01*
X111425231Y-57466246D01*
X111580782Y-57579259D01*
X111603568Y-57595814D01*
X111731965Y-57661236D01*
X111799983Y-57695894D01*
X111799986Y-57695895D01*
X111904811Y-57729954D01*
X112009639Y-57764014D01*
X112227368Y-57798499D01*
X112227369Y-57798499D01*
X112447811Y-57798499D01*
X112447812Y-57798499D01*
X112665541Y-57764014D01*
X112875196Y-57695894D01*
X113071612Y-57595814D01*
X113249955Y-57466241D01*
X113405832Y-57310364D01*
X113535405Y-57132021D01*
X113630384Y-56945617D01*
X113635483Y-56935610D01*
X113635486Y-56935602D01*
X113658776Y-56863921D01*
X113703605Y-56725950D01*
X113738090Y-56508221D01*
X113738090Y-56287777D01*
X113703605Y-56070048D01*
X113692439Y-56035681D01*
X129822590Y-56035681D01*
X129822590Y-56240316D01*
X129854599Y-56442416D01*
X129917834Y-56637030D01*
X130010731Y-56819349D01*
X130010737Y-56819358D01*
X130043113Y-56863920D01*
X130043114Y-56863921D01*
X130722590Y-56184445D01*
X130722590Y-56190660D01*
X130749849Y-56292393D01*
X130802510Y-56383605D01*
X130876984Y-56458079D01*
X130968196Y-56510740D01*
X131069929Y-56537999D01*
X131076143Y-56537999D01*
X130396666Y-57217473D01*
X130441240Y-57249858D01*
X130623558Y-57342754D01*
X130818172Y-57405989D01*
X131020273Y-57437999D01*
X131224907Y-57437999D01*
X131427007Y-57405989D01*
X131621621Y-57342754D01*
X131803939Y-57249858D01*
X131848511Y-57217473D01*
X131169037Y-56537999D01*
X131175251Y-56537999D01*
X131276984Y-56510740D01*
X131368196Y-56458079D01*
X131442670Y-56383605D01*
X131495331Y-56292393D01*
X131522590Y-56190660D01*
X131522590Y-56184446D01*
X132202064Y-56863920D01*
X132234449Y-56819348D01*
X132327345Y-56637030D01*
X132390580Y-56442416D01*
X132422590Y-56240316D01*
X132422590Y-56035681D01*
X132390580Y-55833581D01*
X132327345Y-55638967D01*
X132234449Y-55456649D01*
X132202064Y-55412076D01*
X132202064Y-55412075D01*
X131522590Y-56091550D01*
X131522590Y-56085338D01*
X131495331Y-55983605D01*
X131442670Y-55892393D01*
X131368196Y-55817919D01*
X131276984Y-55765258D01*
X131175251Y-55737999D01*
X131169036Y-55737999D01*
X131848512Y-55058523D01*
X131848511Y-55058522D01*
X131803949Y-55026146D01*
X131803940Y-55026140D01*
X131621621Y-54933243D01*
X131427007Y-54870008D01*
X131224907Y-54837999D01*
X131020273Y-54837999D01*
X130818172Y-54870008D01*
X130623558Y-54933243D01*
X130441234Y-55026142D01*
X130396667Y-55058522D01*
X130396667Y-55058523D01*
X131076144Y-55737999D01*
X131069929Y-55737999D01*
X130968196Y-55765258D01*
X130876984Y-55817919D01*
X130802510Y-55892393D01*
X130749849Y-55983605D01*
X130722590Y-56085338D01*
X130722590Y-56091552D01*
X130043114Y-55412076D01*
X130043113Y-55412076D01*
X130010733Y-55456643D01*
X129917834Y-55638967D01*
X129854599Y-55833581D01*
X129822590Y-56035681D01*
X113692439Y-56035681D01*
X113668096Y-55960761D01*
X113635486Y-55860395D01*
X113635485Y-55860392D01*
X113548179Y-55689048D01*
X113535405Y-55663977D01*
X113509805Y-55628742D01*
X113405837Y-55485640D01*
X113405833Y-55485635D01*
X113249953Y-55329755D01*
X113249948Y-55329751D01*
X113079756Y-55206100D01*
X113071614Y-55200185D01*
X112875196Y-55100103D01*
X112875193Y-55100102D01*
X112665542Y-55031984D01*
X112556676Y-55014741D01*
X112447812Y-54997499D01*
X112227368Y-54997499D01*
X112154791Y-55008994D01*
X112009637Y-55031984D01*
X111799986Y-55100102D01*
X111799983Y-55100103D01*
X111603564Y-55200186D01*
X111425231Y-55329751D01*
X111425226Y-55329755D01*
X111269346Y-55485635D01*
X111269342Y-55485640D01*
X111139777Y-55663973D01*
X111039694Y-55860392D01*
X111039693Y-55860395D01*
X110971575Y-56070046D01*
X110960812Y-56138000D01*
X110937090Y-56287777D01*
X108658090Y-56287777D01*
X108658090Y-56287776D01*
X108623605Y-56070047D01*
X108555485Y-55860393D01*
X108555485Y-55860391D01*
X108493122Y-55737999D01*
X108455405Y-55663976D01*
X108407470Y-55597999D01*
X108325837Y-55485639D01*
X108325833Y-55485634D01*
X108169953Y-55329754D01*
X108169948Y-55329750D01*
X107991615Y-55200185D01*
X107991614Y-55200184D01*
X107991612Y-55200183D01*
X107928686Y-55168120D01*
X107795196Y-55100102D01*
X107795193Y-55100101D01*
X107585542Y-55031983D01*
X107476676Y-55014740D01*
X107367812Y-54997498D01*
X107147368Y-54997498D01*
X107074791Y-55008993D01*
X106929637Y-55031983D01*
X106719986Y-55100101D01*
X106719983Y-55100102D01*
X106523564Y-55200185D01*
X106345231Y-55329750D01*
X106345226Y-55329754D01*
X106189346Y-55485634D01*
X106189342Y-55485639D01*
X106059777Y-55663972D01*
X105959694Y-55860391D01*
X105959693Y-55860394D01*
X105891575Y-56070045D01*
X105857090Y-56287776D01*
X103877590Y-56287776D01*
X103877590Y-56286574D01*
X103848504Y-56065644D01*
X103848501Y-56065631D01*
X103790826Y-55850380D01*
X103705544Y-55644496D01*
X103705539Y-55644484D01*
X103594123Y-55451506D01*
X103543546Y-55385594D01*
X103543545Y-55385594D01*
X102893436Y-56035703D01*
X102886541Y-56019057D01*
X102798991Y-55888029D01*
X102687560Y-55776598D01*
X102556532Y-55689048D01*
X102539883Y-55682151D01*
X103189993Y-55032042D01*
X103189993Y-55032039D01*
X103124094Y-54981472D01*
X103124081Y-54981463D01*
X102931110Y-54870053D01*
X102931092Y-54870044D01*
X102725208Y-54784762D01*
X102509957Y-54727087D01*
X102509944Y-54727084D01*
X102289015Y-54697999D01*
X102066165Y-54697999D01*
X101845235Y-54727084D01*
X101845222Y-54727087D01*
X101629971Y-54784762D01*
X101424087Y-54870044D01*
X101424069Y-54870053D01*
X101231101Y-54981461D01*
X101165185Y-55032041D01*
X101815296Y-55682151D01*
X101798648Y-55689048D01*
X101667620Y-55776598D01*
X101556189Y-55888029D01*
X101468639Y-56019057D01*
X101461743Y-56035705D01*
X100811632Y-55385594D01*
X100761052Y-55451510D01*
X100649644Y-55644478D01*
X100649635Y-55644496D01*
X100564353Y-55850380D01*
X100506678Y-56065631D01*
X100506675Y-56065644D01*
X100477590Y-56286574D01*
X100177590Y-56286574D01*
X100177590Y-53174757D01*
X100197275Y-53107718D01*
X100250079Y-53061963D01*
X100319237Y-53052019D01*
X100382793Y-53081044D01*
X100401908Y-53101871D01*
X100520196Y-53264679D01*
X100659319Y-53403802D01*
X100818497Y-53519453D01*
X100993803Y-53608776D01*
X101180924Y-53669576D01*
X101223641Y-53676342D01*
X101223641Y-52883370D01*
X101280648Y-52916283D01*
X101407815Y-52950358D01*
X101539467Y-52950358D01*
X101666634Y-52916283D01*
X101723641Y-52883370D01*
X101723641Y-53676341D01*
X101766357Y-53669576D01*
X101953478Y-53608776D01*
X102128784Y-53519453D01*
X102287962Y-53403802D01*
X102427085Y-53264679D01*
X102542736Y-53105501D01*
X102632059Y-52930195D01*
X102692859Y-52743074D01*
X102699625Y-52700358D01*
X101906653Y-52700358D01*
X101939566Y-52643351D01*
X101973641Y-52516184D01*
X101973641Y-52384532D01*
X101939566Y-52257365D01*
X101906653Y-52200358D01*
X102699625Y-52200358D01*
X102692859Y-52157641D01*
X102632059Y-51970520D01*
X102542736Y-51795214D01*
X102427085Y-51636036D01*
X102287962Y-51496913D01*
X102128784Y-51381262D01*
X101953476Y-51291939D01*
X101766346Y-51231136D01*
X101723641Y-51224372D01*
X101723641Y-52017346D01*
X101666634Y-51984433D01*
X101539467Y-51950358D01*
X101407815Y-51950358D01*
X101280648Y-51984433D01*
X101223641Y-52017346D01*
X101223641Y-51224372D01*
X101223640Y-51224372D01*
X101180935Y-51231136D01*
X100993805Y-51291939D01*
X100818497Y-51381262D01*
X100659319Y-51496913D01*
X100520197Y-51636035D01*
X100520190Y-51636044D01*
X100401907Y-51798844D01*
X100346577Y-51841510D01*
X100276964Y-51847488D01*
X100215169Y-51814882D01*
X100180812Y-51754043D01*
X100177590Y-51725958D01*
X100177590Y-50560686D01*
X102319193Y-50560686D01*
X102319193Y-50747927D01*
X102355718Y-50931550D01*
X102355720Y-50931558D01*
X102427369Y-51104535D01*
X102427374Y-51104544D01*
X102531390Y-51260214D01*
X102531393Y-51260218D01*
X102663781Y-51392606D01*
X102663785Y-51392609D01*
X102819455Y-51496625D01*
X102819464Y-51496630D01*
X102858649Y-51512861D01*
X102992442Y-51568280D01*
X103176072Y-51604806D01*
X103176076Y-51604807D01*
X103176077Y-51604807D01*
X103363310Y-51604807D01*
X103363311Y-51604806D01*
X103546944Y-51568280D01*
X103719924Y-51496629D01*
X103875601Y-51392609D01*
X104007995Y-51260215D01*
X104112015Y-51104538D01*
X104183666Y-50931558D01*
X104220193Y-50747923D01*
X104220193Y-50560691D01*
X104183666Y-50377056D01*
X104112015Y-50204076D01*
X104112014Y-50204075D01*
X104112011Y-50204069D01*
X104007995Y-50048399D01*
X104007992Y-50048395D01*
X103875604Y-49916007D01*
X103875600Y-49916004D01*
X103719930Y-49811988D01*
X103719921Y-49811983D01*
X103546944Y-49740334D01*
X103546936Y-49740332D01*
X103363313Y-49703807D01*
X103363309Y-49703807D01*
X103176077Y-49703807D01*
X103176072Y-49703807D01*
X102992449Y-49740332D01*
X102992441Y-49740334D01*
X102819464Y-49811983D01*
X102819455Y-49811988D01*
X102663785Y-49916004D01*
X102663781Y-49916007D01*
X102531393Y-50048395D01*
X102531390Y-50048399D01*
X102427374Y-50204069D01*
X102427369Y-50204078D01*
X102355720Y-50377055D01*
X102355718Y-50377063D01*
X102319193Y-50560686D01*
X100177590Y-50560686D01*
X100177590Y-48764635D01*
X100523141Y-48764635D01*
X100523141Y-48951876D01*
X100559666Y-49135499D01*
X100559668Y-49135507D01*
X100631317Y-49308484D01*
X100631322Y-49308493D01*
X100735338Y-49464163D01*
X100735341Y-49464167D01*
X100867729Y-49596555D01*
X100867733Y-49596558D01*
X101023403Y-49700574D01*
X101023409Y-49700577D01*
X101023410Y-49700578D01*
X101196390Y-49772229D01*
X101380020Y-49808755D01*
X101380024Y-49808756D01*
X101380025Y-49808756D01*
X101567258Y-49808756D01*
X101567259Y-49808755D01*
X101750892Y-49772229D01*
X101923872Y-49700578D01*
X102079549Y-49596558D01*
X102211943Y-49464164D01*
X102315963Y-49308487D01*
X102387614Y-49135507D01*
X102393935Y-49103729D01*
X117394413Y-49103729D01*
X117394413Y-50712268D01*
X117397266Y-50742698D01*
X117397266Y-50742700D01*
X117442119Y-50870879D01*
X117442120Y-50870881D01*
X117522763Y-50980149D01*
X117632031Y-51060792D01*
X117674758Y-51075743D01*
X117760212Y-51105645D01*
X117790643Y-51108499D01*
X117790647Y-51108499D01*
X119399183Y-51108499D01*
X119429612Y-51105645D01*
X119429614Y-51105645D01*
X119493703Y-51083218D01*
X119557795Y-51060792D01*
X119667063Y-50980149D01*
X119747706Y-50870881D01*
X119780520Y-50777104D01*
X119792559Y-50742700D01*
X119792559Y-50742698D01*
X119795413Y-50712268D01*
X119795413Y-49789946D01*
X122094913Y-49789946D01*
X122094913Y-50026051D01*
X122131847Y-50259246D01*
X122204810Y-50483801D01*
X122312000Y-50694173D01*
X122372251Y-50777103D01*
X122372253Y-50777104D01*
X123111950Y-50037407D01*
X123128988Y-50100992D01*
X123194814Y-50215006D01*
X123287906Y-50308098D01*
X123401920Y-50373924D01*
X123465503Y-50390961D01*
X122725806Y-51130657D01*
X122808741Y-51190913D01*
X123019110Y-51298101D01*
X123243665Y-51371064D01*
X123243664Y-51371064D01*
X123476861Y-51407999D01*
X123712965Y-51407999D01*
X123946160Y-51371064D01*
X124170715Y-51298101D01*
X124381076Y-51190917D01*
X124381082Y-51190913D01*
X124464017Y-51130657D01*
X124464018Y-51130657D01*
X123724321Y-50390961D01*
X123787906Y-50373924D01*
X123901920Y-50308098D01*
X123995012Y-50215006D01*
X124060838Y-50100992D01*
X124077875Y-50037407D01*
X124817571Y-50777104D01*
X124817571Y-50777103D01*
X124877827Y-50694168D01*
X124877831Y-50694162D01*
X124985015Y-50483801D01*
X125057978Y-50259246D01*
X125094913Y-50026051D01*
X125094913Y-49789946D01*
X125057978Y-49556751D01*
X124985015Y-49332196D01*
X124877827Y-49121827D01*
X124817571Y-49038893D01*
X124817571Y-49038892D01*
X124077875Y-49778589D01*
X124060838Y-49715006D01*
X123995012Y-49600992D01*
X123901920Y-49507900D01*
X123787906Y-49442074D01*
X123724322Y-49425036D01*
X124464018Y-48685339D01*
X124464017Y-48685337D01*
X124381087Y-48625086D01*
X124170715Y-48517896D01*
X123946160Y-48444933D01*
X123946161Y-48444933D01*
X123712965Y-48407999D01*
X123476861Y-48407999D01*
X123243665Y-48444933D01*
X123019110Y-48517896D01*
X122808743Y-48625083D01*
X122725807Y-48685339D01*
X123465504Y-49425036D01*
X123401920Y-49442074D01*
X123287906Y-49507900D01*
X123194814Y-49600992D01*
X123128988Y-49715006D01*
X123111950Y-49778590D01*
X122372253Y-49038893D01*
X122311997Y-49121829D01*
X122204810Y-49332196D01*
X122131847Y-49556751D01*
X122094913Y-49789946D01*
X119795413Y-49789946D01*
X119795413Y-49103729D01*
X119792559Y-49073299D01*
X119792559Y-49073297D01*
X119750071Y-48951876D01*
X119747706Y-48945117D01*
X119667063Y-48835849D01*
X119662343Y-48832365D01*
X119662342Y-48832364D01*
X119557799Y-48755208D01*
X119557793Y-48755205D01*
X119429613Y-48710352D01*
X119399183Y-48707499D01*
X119399179Y-48707499D01*
X117790647Y-48707499D01*
X117790643Y-48707499D01*
X117760213Y-48710352D01*
X117760211Y-48710352D01*
X117632032Y-48755205D01*
X117632030Y-48755206D01*
X117522763Y-48835849D01*
X117442120Y-48945116D01*
X117442119Y-48945118D01*
X117397266Y-49073297D01*
X117397266Y-49073299D01*
X117394413Y-49103729D01*
X102393935Y-49103729D01*
X102399989Y-49073297D01*
X102424140Y-48951875D01*
X102424141Y-48951873D01*
X102424141Y-48764639D01*
X102424140Y-48764635D01*
X102413343Y-48710353D01*
X102387614Y-48581005D01*
X102315963Y-48408025D01*
X102315962Y-48408024D01*
X102315959Y-48408018D01*
X102211943Y-48252348D01*
X102211940Y-48252344D01*
X102079552Y-48119956D01*
X102079548Y-48119953D01*
X101923878Y-48015937D01*
X101923869Y-48015932D01*
X101750892Y-47944283D01*
X101750884Y-47944281D01*
X101567261Y-47907756D01*
X101567257Y-47907756D01*
X101380025Y-47907756D01*
X101380020Y-47907756D01*
X101196397Y-47944281D01*
X101196389Y-47944283D01*
X101023412Y-48015932D01*
X101023403Y-48015937D01*
X100867733Y-48119953D01*
X100867729Y-48119956D01*
X100735341Y-48252344D01*
X100735338Y-48252348D01*
X100631322Y-48408018D01*
X100631317Y-48408027D01*
X100559668Y-48581004D01*
X100559666Y-48581012D01*
X100523141Y-48764635D01*
X100177590Y-48764635D01*
X100177590Y-41236542D01*
X130122089Y-41236542D01*
X130160537Y-41429828D01*
X130160540Y-41429838D01*
X130235954Y-41611906D01*
X130235961Y-41611919D01*
X130345450Y-41775780D01*
X130345453Y-41775784D01*
X130484804Y-41915135D01*
X130484808Y-41915138D01*
X130648669Y-42024627D01*
X130648682Y-42024634D01*
X130830750Y-42100048D01*
X130830755Y-42100050D01*
X130830759Y-42100050D01*
X130830760Y-42100051D01*
X131024046Y-42138499D01*
X131024049Y-42138499D01*
X131221133Y-42138499D01*
X131351172Y-42112631D01*
X131414425Y-42100050D01*
X131596504Y-42024631D01*
X131760372Y-41915138D01*
X131899729Y-41775781D01*
X132009222Y-41611913D01*
X132084641Y-41429834D01*
X132123090Y-41236540D01*
X132123090Y-41039458D01*
X132123090Y-41039455D01*
X132084642Y-40846169D01*
X132084641Y-40846168D01*
X132084641Y-40846164D01*
X132055006Y-40774618D01*
X132009225Y-40664091D01*
X132009218Y-40664078D01*
X131899729Y-40500217D01*
X131899726Y-40500213D01*
X131760375Y-40360862D01*
X131760371Y-40360859D01*
X131596510Y-40251370D01*
X131596497Y-40251363D01*
X131414429Y-40175949D01*
X131414419Y-40175946D01*
X131221133Y-40137499D01*
X131221131Y-40137499D01*
X131024049Y-40137499D01*
X131024047Y-40137499D01*
X130830760Y-40175946D01*
X130830750Y-40175949D01*
X130648682Y-40251363D01*
X130648669Y-40251370D01*
X130484808Y-40360859D01*
X130484804Y-40360862D01*
X130345453Y-40500213D01*
X130345450Y-40500217D01*
X130235961Y-40664078D01*
X130235954Y-40664091D01*
X130160540Y-40846159D01*
X130160537Y-40846169D01*
X130122090Y-41039455D01*
X130122090Y-41039458D01*
X130122090Y-41236540D01*
X130122090Y-41236542D01*
X130122089Y-41236542D01*
X100177590Y-41236542D01*
X100177590Y-39785486D01*
X112870500Y-39785486D01*
X112870500Y-39970513D01*
X112899445Y-40153265D01*
X112956619Y-40329232D01*
X112956620Y-40329235D01*
X113040622Y-40494096D01*
X113149379Y-40643787D01*
X113280213Y-40774621D01*
X113429904Y-40883378D01*
X113507433Y-40922881D01*
X113594764Y-40967379D01*
X113594767Y-40967380D01*
X113682750Y-40995967D01*
X113770736Y-41024555D01*
X113953486Y-41053500D01*
X113953487Y-41053500D01*
X114138513Y-41053500D01*
X114138514Y-41053500D01*
X114321264Y-41024555D01*
X114497235Y-40967379D01*
X114662096Y-40883378D01*
X114811787Y-40774621D01*
X114942621Y-40643787D01*
X115051378Y-40494096D01*
X115135379Y-40329235D01*
X115192555Y-40153264D01*
X115221500Y-39970514D01*
X115221500Y-39785486D01*
X115192555Y-39602736D01*
X115135379Y-39426765D01*
X115135379Y-39426764D01*
X115051377Y-39261903D01*
X114942621Y-39112213D01*
X114811787Y-38981379D01*
X114662096Y-38872622D01*
X114497235Y-38788620D01*
X114497232Y-38788619D01*
X114321265Y-38731445D01*
X114229889Y-38716972D01*
X114138514Y-38702500D01*
X113953486Y-38702500D01*
X113892569Y-38712148D01*
X113770734Y-38731445D01*
X113594767Y-38788619D01*
X113594764Y-38788620D01*
X113429903Y-38872622D01*
X113344499Y-38934672D01*
X113280213Y-38981379D01*
X113280211Y-38981381D01*
X113280210Y-38981381D01*
X113149381Y-39112210D01*
X113149381Y-39112211D01*
X113149379Y-39112213D01*
X113102672Y-39176499D01*
X113040622Y-39261903D01*
X112956620Y-39426764D01*
X112956619Y-39426767D01*
X112899445Y-39602734D01*
X112870500Y-39785486D01*
X100177590Y-39785486D01*
X100177590Y-30804122D01*
X100523141Y-30804122D01*
X100523141Y-30991363D01*
X100559666Y-31174986D01*
X100559668Y-31174994D01*
X100631317Y-31347971D01*
X100631322Y-31347980D01*
X100735338Y-31503650D01*
X100735341Y-31503654D01*
X100867729Y-31636042D01*
X100867733Y-31636045D01*
X101023403Y-31740061D01*
X101023409Y-31740064D01*
X101023410Y-31740065D01*
X101196390Y-31811716D01*
X101380020Y-31848242D01*
X101380024Y-31848243D01*
X101380025Y-31848243D01*
X101567258Y-31848243D01*
X101567259Y-31848242D01*
X101750892Y-31811716D01*
X101923872Y-31740065D01*
X102079549Y-31636045D01*
X102211943Y-31503651D01*
X102315963Y-31347974D01*
X102387614Y-31174994D01*
X102424141Y-30991359D01*
X102424141Y-30804127D01*
X102387614Y-30620492D01*
X102315963Y-30447512D01*
X102315960Y-30447507D01*
X102277351Y-30389724D01*
X102277350Y-30389723D01*
X102233254Y-30323729D01*
X117302090Y-30323729D01*
X117302090Y-31932268D01*
X117304943Y-31962698D01*
X117304943Y-31962700D01*
X117349796Y-32090879D01*
X117349797Y-32090881D01*
X117430440Y-32200149D01*
X117539708Y-32280792D01*
X117582435Y-32295743D01*
X117667889Y-32325645D01*
X117698320Y-32328499D01*
X117698324Y-32328499D01*
X119306860Y-32328499D01*
X119337289Y-32325645D01*
X119337291Y-32325645D01*
X119401380Y-32303218D01*
X119465472Y-32280792D01*
X119574740Y-32200149D01*
X119655383Y-32090881D01*
X119688197Y-31997104D01*
X119700236Y-31962700D01*
X119700236Y-31962698D01*
X119703090Y-31932268D01*
X119703090Y-31009946D01*
X122002590Y-31009946D01*
X122002590Y-31246051D01*
X122039524Y-31479246D01*
X122112487Y-31703801D01*
X122219677Y-31914173D01*
X122279928Y-31997103D01*
X122279930Y-31997104D01*
X123019627Y-31257407D01*
X123036665Y-31320992D01*
X123102491Y-31435006D01*
X123195583Y-31528098D01*
X123309597Y-31593924D01*
X123373180Y-31610961D01*
X122633483Y-32350657D01*
X122716418Y-32410913D01*
X122926787Y-32518101D01*
X123151342Y-32591064D01*
X123151341Y-32591064D01*
X123384538Y-32627999D01*
X123620642Y-32627999D01*
X123853837Y-32591064D01*
X124078392Y-32518101D01*
X124288753Y-32410917D01*
X124288759Y-32410913D01*
X124371694Y-32350657D01*
X124371695Y-32350657D01*
X123631998Y-31610961D01*
X123695583Y-31593924D01*
X123809597Y-31528098D01*
X123902689Y-31435006D01*
X123968515Y-31320992D01*
X123985552Y-31257408D01*
X124725248Y-31997104D01*
X124725248Y-31997103D01*
X124785504Y-31914168D01*
X124785508Y-31914162D01*
X124892692Y-31703801D01*
X124965655Y-31479246D01*
X124980784Y-31383729D01*
X129347090Y-31383729D01*
X129347090Y-34142268D01*
X129349943Y-34172698D01*
X129349943Y-34172700D01*
X129394796Y-34300879D01*
X129394797Y-34300881D01*
X129475440Y-34410149D01*
X129584708Y-34490792D01*
X129627435Y-34505743D01*
X129712889Y-34535645D01*
X129743320Y-34538499D01*
X129743324Y-34538499D01*
X132501860Y-34538499D01*
X132532289Y-34535645D01*
X132532291Y-34535645D01*
X132596380Y-34513218D01*
X132660472Y-34490792D01*
X132769740Y-34410149D01*
X132850383Y-34300881D01*
X132872809Y-34236789D01*
X132895236Y-34172700D01*
X132895236Y-34172698D01*
X132898090Y-34142268D01*
X132898090Y-31383729D01*
X132895236Y-31353299D01*
X132895236Y-31353297D01*
X132850383Y-31225118D01*
X132850382Y-31225116D01*
X132769740Y-31115849D01*
X132660472Y-31035206D01*
X132660470Y-31035205D01*
X132532290Y-30990352D01*
X132501860Y-30987499D01*
X132501856Y-30987499D01*
X129743324Y-30987499D01*
X129743320Y-30987499D01*
X129712890Y-30990352D01*
X129712888Y-30990352D01*
X129584709Y-31035205D01*
X129584707Y-31035206D01*
X129475440Y-31115849D01*
X129394797Y-31225116D01*
X129394796Y-31225118D01*
X129349943Y-31353297D01*
X129349943Y-31353299D01*
X129347090Y-31383729D01*
X124980784Y-31383729D01*
X124984315Y-31361436D01*
X125002590Y-31246051D01*
X125002590Y-31009946D01*
X124965655Y-30776751D01*
X124892692Y-30552196D01*
X124785504Y-30341827D01*
X124725248Y-30258893D01*
X124725248Y-30258892D01*
X123985552Y-30998589D01*
X123968515Y-30935006D01*
X123902689Y-30820992D01*
X123809597Y-30727900D01*
X123695583Y-30662074D01*
X123631999Y-30645036D01*
X124371695Y-29905339D01*
X124371694Y-29905337D01*
X124288764Y-29845086D01*
X124078392Y-29737896D01*
X123853837Y-29664933D01*
X123853838Y-29664933D01*
X123620642Y-29627999D01*
X123384538Y-29627999D01*
X123151342Y-29664933D01*
X122926787Y-29737896D01*
X122716420Y-29845083D01*
X122633484Y-29905339D01*
X123373181Y-30645036D01*
X123309597Y-30662074D01*
X123195583Y-30727900D01*
X123102491Y-30820992D01*
X123036665Y-30935006D01*
X123019627Y-30998590D01*
X122279930Y-30258893D01*
X122219674Y-30341829D01*
X122112487Y-30552196D01*
X122039524Y-30776751D01*
X122002590Y-31009946D01*
X119703090Y-31009946D01*
X119703090Y-30323729D01*
X119700236Y-30293299D01*
X119700236Y-30293297D01*
X119655383Y-30165118D01*
X119655382Y-30165116D01*
X119651193Y-30159440D01*
X119574740Y-30055849D01*
X119570020Y-30052365D01*
X119570019Y-30052364D01*
X119465476Y-29975208D01*
X119465470Y-29975205D01*
X119337290Y-29930352D01*
X119306860Y-29927499D01*
X119306856Y-29927499D01*
X117698324Y-29927499D01*
X117698320Y-29927499D01*
X117667890Y-29930352D01*
X117667888Y-29930352D01*
X117539709Y-29975205D01*
X117539707Y-29975206D01*
X117430440Y-30055849D01*
X117349797Y-30165116D01*
X117349796Y-30165118D01*
X117304943Y-30293297D01*
X117304943Y-30293299D01*
X117302090Y-30323729D01*
X102233254Y-30323729D01*
X102211943Y-30291835D01*
X102211940Y-30291831D01*
X102079552Y-30159443D01*
X102079548Y-30159440D01*
X101923878Y-30055424D01*
X101923869Y-30055419D01*
X101750892Y-29983770D01*
X101750884Y-29983768D01*
X101567261Y-29947243D01*
X101567257Y-29947243D01*
X101380025Y-29947243D01*
X101380020Y-29947243D01*
X101196397Y-29983768D01*
X101196389Y-29983770D01*
X101023412Y-30055419D01*
X101023403Y-30055424D01*
X100867733Y-30159440D01*
X100867729Y-30159443D01*
X100735341Y-30291831D01*
X100735338Y-30291835D01*
X100631322Y-30447505D01*
X100631317Y-30447514D01*
X100559668Y-30620491D01*
X100559666Y-30620499D01*
X100523141Y-30804122D01*
X100177590Y-30804122D01*
X100177590Y-29008071D01*
X102319193Y-29008071D01*
X102319193Y-29195312D01*
X102355718Y-29378935D01*
X102355720Y-29378943D01*
X102427369Y-29551920D01*
X102427374Y-29551929D01*
X102531390Y-29707599D01*
X102531393Y-29707603D01*
X102663781Y-29839991D01*
X102663785Y-29839994D01*
X102819455Y-29944010D01*
X102819461Y-29944013D01*
X102819462Y-29944014D01*
X102992442Y-30015665D01*
X103176072Y-30052191D01*
X103176076Y-30052192D01*
X103176077Y-30052192D01*
X103363310Y-30052192D01*
X103363311Y-30052191D01*
X103546944Y-30015665D01*
X103719924Y-29944014D01*
X103875601Y-29839994D01*
X104007995Y-29707600D01*
X104112015Y-29551923D01*
X104183666Y-29378943D01*
X104220193Y-29195308D01*
X104220193Y-29008076D01*
X104183666Y-28824441D01*
X104112015Y-28651461D01*
X104112014Y-28651460D01*
X104112011Y-28651454D01*
X104007995Y-28495784D01*
X104007992Y-28495780D01*
X103875604Y-28363392D01*
X103875600Y-28363389D01*
X103719930Y-28259373D01*
X103719921Y-28259368D01*
X103546944Y-28187719D01*
X103546936Y-28187717D01*
X103363313Y-28151192D01*
X103363309Y-28151192D01*
X103176077Y-28151192D01*
X103176072Y-28151192D01*
X102992449Y-28187717D01*
X102992441Y-28187719D01*
X102819464Y-28259368D01*
X102819455Y-28259373D01*
X102663785Y-28363389D01*
X102663781Y-28363392D01*
X102531393Y-28495780D01*
X102531390Y-28495784D01*
X102427374Y-28651454D01*
X102427369Y-28651463D01*
X102355720Y-28824440D01*
X102355718Y-28824448D01*
X102319193Y-29008071D01*
X100177590Y-29008071D01*
X100177590Y-28030040D01*
X100197275Y-27963001D01*
X100250079Y-27917246D01*
X100319237Y-27907302D01*
X100382793Y-27936327D01*
X100401908Y-27957154D01*
X100520196Y-28119962D01*
X100659319Y-28259085D01*
X100818497Y-28374736D01*
X100993803Y-28464059D01*
X101180924Y-28524859D01*
X101223641Y-28531625D01*
X101223641Y-27738653D01*
X101280648Y-27771566D01*
X101407815Y-27805641D01*
X101539467Y-27805641D01*
X101666634Y-27771566D01*
X101723641Y-27738653D01*
X101723641Y-28531624D01*
X101766357Y-28524859D01*
X101953478Y-28464059D01*
X102128784Y-28374736D01*
X102287962Y-28259085D01*
X102427085Y-28119962D01*
X102542736Y-27960784D01*
X102632059Y-27785478D01*
X102692859Y-27598357D01*
X102699625Y-27555641D01*
X101906653Y-27555641D01*
X101939566Y-27498634D01*
X101973641Y-27371467D01*
X101973641Y-27239815D01*
X101939566Y-27112648D01*
X101906653Y-27055641D01*
X102699625Y-27055641D01*
X102692859Y-27012924D01*
X102632059Y-26825803D01*
X102557377Y-26679232D01*
X102557376Y-26679230D01*
X102542736Y-26650497D01*
X102525666Y-26627002D01*
X129047590Y-26627002D01*
X129047590Y-26898995D01*
X129047591Y-26899011D01*
X129083093Y-27168678D01*
X129153493Y-27431415D01*
X129257581Y-27682708D01*
X129257589Y-27682724D01*
X129393584Y-27918273D01*
X129393590Y-27918281D01*
X129489179Y-28042855D01*
X130204196Y-27327837D01*
X130302626Y-27463314D01*
X130422275Y-27582963D01*
X130557749Y-27681391D01*
X129842732Y-28396408D01*
X129967307Y-28491998D01*
X129967315Y-28492004D01*
X130202864Y-28627999D01*
X130202880Y-28628007D01*
X130454173Y-28732095D01*
X130716910Y-28802495D01*
X130986577Y-28837997D01*
X130986594Y-28837999D01*
X131258586Y-28837999D01*
X131258602Y-28837997D01*
X131528269Y-28802495D01*
X131791006Y-28732095D01*
X132042299Y-28628007D01*
X132042315Y-28627999D01*
X132277864Y-28492004D01*
X132277882Y-28491992D01*
X132402446Y-28396409D01*
X132402446Y-28396407D01*
X131687429Y-27681391D01*
X131822905Y-27582963D01*
X131942554Y-27463314D01*
X132040982Y-27327839D01*
X132755998Y-28042855D01*
X132756000Y-28042855D01*
X132851583Y-27918291D01*
X132851595Y-27918273D01*
X132987590Y-27682724D01*
X132987598Y-27682708D01*
X133091686Y-27431415D01*
X133162086Y-27168678D01*
X133197588Y-26899011D01*
X133197590Y-26898995D01*
X133197590Y-26627002D01*
X133197588Y-26626986D01*
X133162086Y-26357319D01*
X133091686Y-26094582D01*
X132987598Y-25843289D01*
X132987590Y-25843273D01*
X132851595Y-25607724D01*
X132851589Y-25607716D01*
X132755999Y-25483141D01*
X132040982Y-26198158D01*
X131942554Y-26062684D01*
X131822905Y-25943035D01*
X131687428Y-25844605D01*
X132402446Y-25129588D01*
X132277872Y-25033999D01*
X132277864Y-25033993D01*
X132042315Y-24897998D01*
X132042299Y-24897990D01*
X131791006Y-24793902D01*
X131528269Y-24723502D01*
X131258602Y-24688000D01*
X131258586Y-24687999D01*
X130986594Y-24687999D01*
X130986577Y-24688000D01*
X130716910Y-24723502D01*
X130454173Y-24793902D01*
X130202880Y-24897990D01*
X130202864Y-24897998D01*
X129967308Y-25033997D01*
X129842732Y-25129587D01*
X129842732Y-25129588D01*
X130557750Y-25844606D01*
X130422275Y-25943035D01*
X130302626Y-26062684D01*
X130204197Y-26198159D01*
X129489179Y-25483141D01*
X129489178Y-25483141D01*
X129393588Y-25607717D01*
X129257589Y-25843273D01*
X129257581Y-25843289D01*
X129153493Y-26094582D01*
X129083093Y-26357319D01*
X129047591Y-26626986D01*
X129047590Y-26627002D01*
X102525666Y-26627002D01*
X102427085Y-26491319D01*
X102287962Y-26352196D01*
X102128784Y-26236545D01*
X101953476Y-26147222D01*
X101766346Y-26086419D01*
X101723641Y-26079655D01*
X101723641Y-26872629D01*
X101666634Y-26839716D01*
X101539467Y-26805641D01*
X101407815Y-26805641D01*
X101280648Y-26839716D01*
X101223641Y-26872629D01*
X101223641Y-26079655D01*
X101223640Y-26079655D01*
X101180935Y-26086419D01*
X100993805Y-26147222D01*
X100818497Y-26236545D01*
X100659319Y-26352196D01*
X100520197Y-26491318D01*
X100520190Y-26491327D01*
X100401907Y-26654127D01*
X100346577Y-26696793D01*
X100276964Y-26702771D01*
X100215169Y-26670165D01*
X100180812Y-26609326D01*
X100177590Y-26581241D01*
X100177590Y-23266574D01*
X100477590Y-23266574D01*
X100477590Y-23489423D01*
X100506675Y-23710353D01*
X100506678Y-23710366D01*
X100564353Y-23925617D01*
X100649635Y-24131501D01*
X100649644Y-24131519D01*
X100761054Y-24324490D01*
X100761063Y-24324503D01*
X100811630Y-24390402D01*
X100811633Y-24390402D01*
X101461742Y-23740292D01*
X101468639Y-23756941D01*
X101556189Y-23887969D01*
X101667620Y-23999400D01*
X101798648Y-24086950D01*
X101815295Y-24093845D01*
X101165185Y-24743954D01*
X101165185Y-24743955D01*
X101231097Y-24794532D01*
X101424075Y-24905948D01*
X101424087Y-24905953D01*
X101629971Y-24991235D01*
X101845222Y-25048910D01*
X101845235Y-25048913D01*
X102066165Y-25077999D01*
X102289015Y-25077999D01*
X102466734Y-25054602D01*
X102509944Y-25048913D01*
X102509957Y-25048910D01*
X102725208Y-24991235D01*
X102931092Y-24905953D01*
X102931104Y-24905948D01*
X103124088Y-24794529D01*
X103189993Y-24743956D01*
X103189994Y-24743955D01*
X102539884Y-24093845D01*
X102556532Y-24086950D01*
X102687560Y-23999400D01*
X102798991Y-23887969D01*
X102886541Y-23756941D01*
X102893436Y-23740293D01*
X103543546Y-24390403D01*
X103543547Y-24390402D01*
X103594120Y-24324497D01*
X103705539Y-24131513D01*
X103705544Y-24131501D01*
X103790826Y-23925617D01*
X103848501Y-23710366D01*
X103848504Y-23710353D01*
X103877590Y-23489423D01*
X103877590Y-23267777D01*
X105857091Y-23267777D01*
X105857091Y-23488221D01*
X105874333Y-23597085D01*
X105891576Y-23705951D01*
X105959694Y-23915602D01*
X105959695Y-23915605D01*
X106059778Y-24112024D01*
X106189343Y-24290357D01*
X106189347Y-24290362D01*
X106345227Y-24446242D01*
X106345232Y-24446246D01*
X106500783Y-24559259D01*
X106523569Y-24575814D01*
X106651966Y-24641236D01*
X106719984Y-24675894D01*
X106719987Y-24675895D01*
X106824812Y-24709954D01*
X106929640Y-24744014D01*
X107147369Y-24778499D01*
X107147370Y-24778499D01*
X107367812Y-24778499D01*
X107367813Y-24778499D01*
X107585542Y-24744014D01*
X107795197Y-24675894D01*
X107991613Y-24575814D01*
X108169956Y-24446241D01*
X108325833Y-24290364D01*
X108455406Y-24112021D01*
X108555486Y-23915605D01*
X108623606Y-23705950D01*
X108658091Y-23488221D01*
X108658091Y-23267777D01*
X108623606Y-23050048D01*
X108589546Y-22945220D01*
X108555487Y-22840395D01*
X108555486Y-22840392D01*
X108468180Y-22669048D01*
X108455406Y-22643977D01*
X108429806Y-22608742D01*
X108325838Y-22465640D01*
X108325834Y-22465635D01*
X108169954Y-22309755D01*
X108169949Y-22309751D01*
X108091141Y-22252493D01*
X108091118Y-22252478D01*
X107991612Y-22180183D01*
X107948559Y-22158246D01*
X110937090Y-22158246D01*
X110937090Y-24597751D01*
X110948721Y-24656228D01*
X110948722Y-24656229D01*
X110993037Y-24722551D01*
X111059359Y-24766866D01*
X111059360Y-24766867D01*
X111117837Y-24778498D01*
X111117840Y-24778499D01*
X111117842Y-24778499D01*
X113557340Y-24778499D01*
X113557341Y-24778498D01*
X113572158Y-24775551D01*
X113615819Y-24766867D01*
X113615819Y-24766866D01*
X113615821Y-24766866D01*
X113682142Y-24722551D01*
X113726457Y-24656230D01*
X113726457Y-24656228D01*
X113726458Y-24656228D01*
X113738089Y-24597751D01*
X113738090Y-24597749D01*
X113738090Y-22158248D01*
X113738089Y-22158246D01*
X113726458Y-22099769D01*
X113726457Y-22099768D01*
X113682142Y-22033446D01*
X113615820Y-21989131D01*
X113615819Y-21989130D01*
X113557342Y-21977499D01*
X113557338Y-21977499D01*
X111117842Y-21977499D01*
X111117837Y-21977499D01*
X111059360Y-21989130D01*
X111059359Y-21989131D01*
X110993037Y-22033446D01*
X110948722Y-22099768D01*
X110948721Y-22099769D01*
X110937090Y-22158246D01*
X107948559Y-22158246D01*
X107795197Y-22080103D01*
X107795194Y-22080102D01*
X107585543Y-22011984D01*
X107476677Y-21994741D01*
X107367813Y-21977499D01*
X107147369Y-21977499D01*
X107074792Y-21988994D01*
X106929638Y-22011984D01*
X106719987Y-22080102D01*
X106719984Y-22080103D01*
X106523565Y-22180186D01*
X106345232Y-22309751D01*
X106345227Y-22309755D01*
X106189347Y-22465635D01*
X106189343Y-22465640D01*
X106059778Y-22643973D01*
X105959695Y-22840392D01*
X105959694Y-22840395D01*
X105891576Y-23050046D01*
X105891576Y-23050048D01*
X105857091Y-23267777D01*
X103877590Y-23267777D01*
X103877590Y-23266574D01*
X103848504Y-23045644D01*
X103848501Y-23045631D01*
X103790826Y-22830380D01*
X103705544Y-22624496D01*
X103705539Y-22624484D01*
X103594123Y-22431506D01*
X103543546Y-22365594D01*
X103543545Y-22365594D01*
X102893436Y-23015703D01*
X102886541Y-22999057D01*
X102798991Y-22868029D01*
X102687560Y-22756598D01*
X102556532Y-22669048D01*
X102539883Y-22662151D01*
X103189993Y-22012042D01*
X103189993Y-22012039D01*
X103124094Y-21961472D01*
X103124081Y-21961463D01*
X102931110Y-21850053D01*
X102931092Y-21850044D01*
X102725208Y-21764762D01*
X102509957Y-21707087D01*
X102509944Y-21707084D01*
X102289015Y-21677999D01*
X102066165Y-21677999D01*
X101845235Y-21707084D01*
X101845222Y-21707087D01*
X101629971Y-21764762D01*
X101424087Y-21850044D01*
X101424069Y-21850053D01*
X101231101Y-21961461D01*
X101165185Y-22012041D01*
X101815296Y-22662151D01*
X101798648Y-22669048D01*
X101667620Y-22756598D01*
X101556189Y-22868029D01*
X101468639Y-22999057D01*
X101461743Y-23015705D01*
X100811632Y-22365594D01*
X100761052Y-22431510D01*
X100649644Y-22624478D01*
X100649635Y-22624496D01*
X100564353Y-22830380D01*
X100506678Y-23045631D01*
X100506675Y-23045644D01*
X100477590Y-23266574D01*
X100177590Y-23266574D01*
X100177590Y-19988706D01*
X100177708Y-19983297D01*
X100188872Y-19727595D01*
X100196381Y-19555605D01*
X100197321Y-19544872D01*
X100252845Y-19123121D01*
X100254718Y-19112491D01*
X100346792Y-18697175D01*
X100349590Y-18686737D01*
X100394832Y-18543248D01*
X100394833Y-18543246D01*
X123812089Y-18543246D01*
X123812089Y-20712751D01*
X123823720Y-20771228D01*
X123823721Y-20771229D01*
X123868036Y-20837551D01*
X123934358Y-20881866D01*
X123934359Y-20881867D01*
X123992836Y-20893498D01*
X123992839Y-20893499D01*
X123992841Y-20893499D01*
X126162339Y-20893499D01*
X126162340Y-20893498D01*
X126177157Y-20890551D01*
X126220818Y-20881867D01*
X126220818Y-20881866D01*
X126220820Y-20881866D01*
X126287141Y-20837551D01*
X126331456Y-20771230D01*
X126331456Y-20771228D01*
X126331457Y-20771228D01*
X126343088Y-20712751D01*
X126343089Y-20712749D01*
X126343089Y-20394666D01*
X126362774Y-20327627D01*
X126415578Y-20281872D01*
X126484736Y-20271928D01*
X126548292Y-20300953D01*
X126567404Y-20321777D01*
X126662320Y-20452417D01*
X126803171Y-20593268D01*
X126964323Y-20710352D01*
X127083799Y-20771228D01*
X127141808Y-20800785D01*
X127331246Y-20862337D01*
X127331247Y-20862337D01*
X127331250Y-20862338D01*
X127527992Y-20893499D01*
X127527993Y-20893499D01*
X127727185Y-20893499D01*
X127727186Y-20893499D01*
X127923928Y-20862338D01*
X127923931Y-20862337D01*
X127923932Y-20862337D01*
X128113369Y-20800785D01*
X128113369Y-20800784D01*
X128113372Y-20800784D01*
X128290855Y-20710352D01*
X128452007Y-20593268D01*
X128592858Y-20452417D01*
X128709942Y-20291265D01*
X128792104Y-20130011D01*
X128840078Y-20079216D01*
X128907899Y-20062421D01*
X128974034Y-20084958D01*
X129013074Y-20130012D01*
X129085384Y-20271928D01*
X129095237Y-20291265D01*
X129212321Y-20452417D01*
X129353172Y-20593268D01*
X129514324Y-20710352D01*
X129633800Y-20771228D01*
X129691809Y-20800785D01*
X129881247Y-20862337D01*
X129881248Y-20862337D01*
X129881251Y-20862338D01*
X130077993Y-20893499D01*
X130077994Y-20893499D01*
X130277186Y-20893499D01*
X130277187Y-20893499D01*
X130473929Y-20862338D01*
X130473932Y-20862337D01*
X130473933Y-20862337D01*
X130663370Y-20800785D01*
X130663370Y-20800784D01*
X130663373Y-20800784D01*
X130840856Y-20710352D01*
X131002008Y-20593268D01*
X131142859Y-20452417D01*
X131259943Y-20291265D01*
X131350375Y-20113782D01*
X131350376Y-20113779D01*
X131411928Y-19924342D01*
X131411928Y-19924341D01*
X131411929Y-19924338D01*
X131443090Y-19727596D01*
X131443090Y-19528402D01*
X131411929Y-19331660D01*
X131411928Y-19331656D01*
X131411928Y-19331655D01*
X131350376Y-19142218D01*
X131335229Y-19112491D01*
X131259943Y-18964733D01*
X131142859Y-18803581D01*
X131002008Y-18662730D01*
X130840856Y-18545646D01*
X130836146Y-18543246D01*
X130663370Y-18455212D01*
X130473932Y-18393660D01*
X130326372Y-18370289D01*
X130277187Y-18362499D01*
X130077993Y-18362499D01*
X130012412Y-18372886D01*
X129881249Y-18393660D01*
X129881246Y-18393660D01*
X129691809Y-18455212D01*
X129514323Y-18545646D01*
X129422380Y-18612446D01*
X129353172Y-18662730D01*
X129353170Y-18662732D01*
X129353169Y-18662732D01*
X129212323Y-18803578D01*
X129212323Y-18803579D01*
X129212321Y-18803581D01*
X129173293Y-18857298D01*
X129095233Y-18964737D01*
X129013073Y-19125985D01*
X128965099Y-19176781D01*
X128897278Y-19193576D01*
X128831143Y-19171038D01*
X128792104Y-19125985D01*
X128778428Y-19099145D01*
X128709942Y-18964733D01*
X128592858Y-18803581D01*
X128452007Y-18662730D01*
X128290855Y-18545646D01*
X128286145Y-18543246D01*
X128113369Y-18455212D01*
X127923931Y-18393660D01*
X127776371Y-18370289D01*
X127727186Y-18362499D01*
X127527992Y-18362499D01*
X127462411Y-18372886D01*
X127331248Y-18393660D01*
X127331245Y-18393660D01*
X127141808Y-18455212D01*
X126964322Y-18545646D01*
X126872379Y-18612446D01*
X126803171Y-18662730D01*
X126803169Y-18662732D01*
X126803168Y-18662732D01*
X126662322Y-18803578D01*
X126662322Y-18803579D01*
X126662320Y-18803581D01*
X126620362Y-18861331D01*
X126567407Y-18934217D01*
X126512077Y-18976882D01*
X126442463Y-18982861D01*
X126380668Y-18950255D01*
X126346311Y-18889416D01*
X126343089Y-18861331D01*
X126343089Y-18543248D01*
X126343088Y-18543246D01*
X126331457Y-18484769D01*
X126331456Y-18484768D01*
X126287141Y-18418446D01*
X126220819Y-18374131D01*
X126220818Y-18374130D01*
X126162341Y-18362499D01*
X126162337Y-18362499D01*
X123992841Y-18362499D01*
X123992836Y-18362499D01*
X123934359Y-18374130D01*
X123934358Y-18374131D01*
X123868036Y-18418446D01*
X123823721Y-18484768D01*
X123823720Y-18484769D01*
X123812089Y-18543246D01*
X100394833Y-18543246D01*
X100477503Y-18281046D01*
X100481191Y-18270914D01*
X100643986Y-17877892D01*
X100648544Y-17868118D01*
X100844977Y-17490774D01*
X100850359Y-17481453D01*
X101078924Y-17122678D01*
X101085115Y-17113835D01*
X101344081Y-16776345D01*
X101351019Y-16768076D01*
X101638409Y-16454445D01*
X101646035Y-16446819D01*
X101959666Y-16159429D01*
X101967935Y-16152491D01*
X102305425Y-15893525D01*
X102314268Y-15887334D01*
X102673043Y-15658769D01*
X102682357Y-15653391D01*
X102976040Y-15500509D01*
X103033295Y-15486500D01*
X134348108Y-15486500D01*
X134410249Y-15486500D01*
X134417736Y-15486726D01*
G37*
%TD.AperFunction*%
%TD*%
M02*
