%TF.GenerationSoftware,KiCad,Pcbnew,9.0.7*%
%TF.CreationDate,2026-01-07T19:43:00+01:00*%
%TF.ProjectId,power-electronics2,706f7765-722d-4656-9c65-6374726f6e69,rev?*%
%TF.SameCoordinates,Original*%
%TF.FileFunction,AssemblyDrawing,Top*%
%FSLAX46Y46*%
G04 Gerber Fmt 4.6, Leading zero omitted, Abs format (unit mm)*
G04 Created by KiCad (PCBNEW 9.0.7) date 2026-01-07 19:43:00*
%MOMM*%
%LPD*%
G01*
G04 APERTURE LIST*
%ADD10C,0.254000*%
%ADD11C,0.150000*%
%ADD12C,0.080000*%
%ADD13C,0.100000*%
%ADD14C,0.200000*%
G04 APERTURE END LIST*
D10*
X64715923Y-70702317D02*
X64292589Y-70097555D01*
X63990208Y-70702317D02*
X63990208Y-69432317D01*
X63990208Y-69432317D02*
X64474018Y-69432317D01*
X64474018Y-69432317D02*
X64594970Y-69492793D01*
X64594970Y-69492793D02*
X64655447Y-69553269D01*
X64655447Y-69553269D02*
X64715923Y-69674221D01*
X64715923Y-69674221D02*
X64715923Y-69855650D01*
X64715923Y-69855650D02*
X64655447Y-69976602D01*
X64655447Y-69976602D02*
X64594970Y-70037079D01*
X64594970Y-70037079D02*
X64474018Y-70097555D01*
X64474018Y-70097555D02*
X63990208Y-70097555D01*
X65804494Y-69432317D02*
X65562589Y-69432317D01*
X65562589Y-69432317D02*
X65441637Y-69492793D01*
X65441637Y-69492793D02*
X65381161Y-69553269D01*
X65381161Y-69553269D02*
X65260208Y-69734698D01*
X65260208Y-69734698D02*
X65199732Y-69976602D01*
X65199732Y-69976602D02*
X65199732Y-70460412D01*
X65199732Y-70460412D02*
X65260208Y-70581364D01*
X65260208Y-70581364D02*
X65320685Y-70641841D01*
X65320685Y-70641841D02*
X65441637Y-70702317D01*
X65441637Y-70702317D02*
X65683542Y-70702317D01*
X65683542Y-70702317D02*
X65804494Y-70641841D01*
X65804494Y-70641841D02*
X65864970Y-70581364D01*
X65864970Y-70581364D02*
X65925447Y-70460412D01*
X65925447Y-70460412D02*
X65925447Y-70158031D01*
X65925447Y-70158031D02*
X65864970Y-70037079D01*
X65864970Y-70037079D02*
X65804494Y-69976602D01*
X65804494Y-69976602D02*
X65683542Y-69916126D01*
X65683542Y-69916126D02*
X65441637Y-69916126D01*
X65441637Y-69916126D02*
X65320685Y-69976602D01*
X65320685Y-69976602D02*
X65260208Y-70037079D01*
X65260208Y-70037079D02*
X65199732Y-70158031D01*
D11*
X114232409Y-66068475D02*
X113756218Y-66401808D01*
X114232409Y-66639903D02*
X113232409Y-66639903D01*
X113232409Y-66639903D02*
X113232409Y-66258951D01*
X113232409Y-66258951D02*
X113280028Y-66163713D01*
X113280028Y-66163713D02*
X113327647Y-66116094D01*
X113327647Y-66116094D02*
X113422885Y-66068475D01*
X113422885Y-66068475D02*
X113565742Y-66068475D01*
X113565742Y-66068475D02*
X113660980Y-66116094D01*
X113660980Y-66116094D02*
X113708599Y-66163713D01*
X113708599Y-66163713D02*
X113756218Y-66258951D01*
X113756218Y-66258951D02*
X113756218Y-66639903D01*
D12*
X115654739Y-66461332D02*
X115416644Y-66627998D01*
X115654739Y-66747046D02*
X115154739Y-66747046D01*
X115154739Y-66747046D02*
X115154739Y-66556570D01*
X115154739Y-66556570D02*
X115178549Y-66508951D01*
X115178549Y-66508951D02*
X115202358Y-66485141D01*
X115202358Y-66485141D02*
X115249977Y-66461332D01*
X115249977Y-66461332D02*
X115321406Y-66461332D01*
X115321406Y-66461332D02*
X115369025Y-66485141D01*
X115369025Y-66485141D02*
X115392834Y-66508951D01*
X115392834Y-66508951D02*
X115416644Y-66556570D01*
X115416644Y-66556570D02*
X115416644Y-66747046D01*
X115202358Y-66270855D02*
X115178549Y-66247046D01*
X115178549Y-66247046D02*
X115154739Y-66199427D01*
X115154739Y-66199427D02*
X115154739Y-66080379D01*
X115154739Y-66080379D02*
X115178549Y-66032760D01*
X115178549Y-66032760D02*
X115202358Y-66008951D01*
X115202358Y-66008951D02*
X115249977Y-65985141D01*
X115249977Y-65985141D02*
X115297596Y-65985141D01*
X115297596Y-65985141D02*
X115369025Y-66008951D01*
X115369025Y-66008951D02*
X115654739Y-66294665D01*
X115654739Y-66294665D02*
X115654739Y-65985141D01*
D11*
X35436804Y-37592284D02*
X36103471Y-37592284D01*
X35055852Y-37830379D02*
X35770137Y-38068474D01*
X35770137Y-38068474D02*
X35770137Y-37449427D01*
X35103471Y-37163712D02*
X35103471Y-36497046D01*
X35103471Y-36497046D02*
X36103471Y-36925617D01*
X35103471Y-35925617D02*
X35103471Y-35830379D01*
X35103471Y-35830379D02*
X35151090Y-35735141D01*
X35151090Y-35735141D02*
X35198709Y-35687522D01*
X35198709Y-35687522D02*
X35293947Y-35639903D01*
X35293947Y-35639903D02*
X35484423Y-35592284D01*
X35484423Y-35592284D02*
X35722518Y-35592284D01*
X35722518Y-35592284D02*
X35912994Y-35639903D01*
X35912994Y-35639903D02*
X36008232Y-35687522D01*
X36008232Y-35687522D02*
X36055852Y-35735141D01*
X36055852Y-35735141D02*
X36103471Y-35830379D01*
X36103471Y-35830379D02*
X36103471Y-35925617D01*
X36103471Y-35925617D02*
X36055852Y-36020855D01*
X36055852Y-36020855D02*
X36008232Y-36068474D01*
X36008232Y-36068474D02*
X35912994Y-36116093D01*
X35912994Y-36116093D02*
X35722518Y-36163712D01*
X35722518Y-36163712D02*
X35484423Y-36163712D01*
X35484423Y-36163712D02*
X35293947Y-36116093D01*
X35293947Y-36116093D02*
X35198709Y-36068474D01*
X35198709Y-36068474D02*
X35151090Y-36020855D01*
X35151090Y-36020855D02*
X35103471Y-35925617D01*
X35436804Y-34735141D02*
X36103471Y-34735141D01*
X35436804Y-35163712D02*
X35960613Y-35163712D01*
X35960613Y-35163712D02*
X36055852Y-35116093D01*
X36055852Y-35116093D02*
X36103471Y-35020855D01*
X36103471Y-35020855D02*
X36103471Y-34877998D01*
X36103471Y-34877998D02*
X36055852Y-34782760D01*
X36055852Y-34782760D02*
X36008232Y-34735141D01*
X30132409Y-36544665D02*
X30132409Y-37020855D01*
X30132409Y-37020855D02*
X29132409Y-37020855D01*
X29465742Y-35782760D02*
X30132409Y-35782760D01*
X29084790Y-36020855D02*
X29799075Y-36258950D01*
X29799075Y-36258950D02*
X29799075Y-35639903D01*
X51232409Y-60223237D02*
X51232409Y-60794665D01*
X51232409Y-60508951D02*
X50232409Y-60508951D01*
X50232409Y-60508951D02*
X50375266Y-60604189D01*
X50375266Y-60604189D02*
X50470504Y-60699427D01*
X50470504Y-60699427D02*
X50518123Y-60794665D01*
X50232409Y-59604189D02*
X50232409Y-59508951D01*
X50232409Y-59508951D02*
X50280028Y-59413713D01*
X50280028Y-59413713D02*
X50327647Y-59366094D01*
X50327647Y-59366094D02*
X50422885Y-59318475D01*
X50422885Y-59318475D02*
X50613361Y-59270856D01*
X50613361Y-59270856D02*
X50851456Y-59270856D01*
X50851456Y-59270856D02*
X51041932Y-59318475D01*
X51041932Y-59318475D02*
X51137170Y-59366094D01*
X51137170Y-59366094D02*
X51184790Y-59413713D01*
X51184790Y-59413713D02*
X51232409Y-59508951D01*
X51232409Y-59508951D02*
X51232409Y-59604189D01*
X51232409Y-59604189D02*
X51184790Y-59699427D01*
X51184790Y-59699427D02*
X51137170Y-59747046D01*
X51137170Y-59747046D02*
X51041932Y-59794665D01*
X51041932Y-59794665D02*
X50851456Y-59842284D01*
X50851456Y-59842284D02*
X50613361Y-59842284D01*
X50613361Y-59842284D02*
X50422885Y-59794665D01*
X50422885Y-59794665D02*
X50327647Y-59747046D01*
X50327647Y-59747046D02*
X50280028Y-59699427D01*
X50280028Y-59699427D02*
X50232409Y-59604189D01*
X51232409Y-58842284D02*
X50232409Y-58842284D01*
X50851456Y-58747046D02*
X51232409Y-58461332D01*
X50565742Y-58461332D02*
X50946694Y-58842284D01*
D12*
X52654739Y-59949427D02*
X52416644Y-60116093D01*
X52654739Y-60235141D02*
X52154739Y-60235141D01*
X52154739Y-60235141D02*
X52154739Y-60044665D01*
X52154739Y-60044665D02*
X52178549Y-59997046D01*
X52178549Y-59997046D02*
X52202358Y-59973236D01*
X52202358Y-59973236D02*
X52249977Y-59949427D01*
X52249977Y-59949427D02*
X52321406Y-59949427D01*
X52321406Y-59949427D02*
X52369025Y-59973236D01*
X52369025Y-59973236D02*
X52392834Y-59997046D01*
X52392834Y-59997046D02*
X52416644Y-60044665D01*
X52416644Y-60044665D02*
X52416644Y-60235141D01*
X52654739Y-59473236D02*
X52654739Y-59758950D01*
X52654739Y-59616093D02*
X52154739Y-59616093D01*
X52154739Y-59616093D02*
X52226168Y-59663712D01*
X52226168Y-59663712D02*
X52273787Y-59711331D01*
X52273787Y-59711331D02*
X52297596Y-59758950D01*
X52202358Y-59282760D02*
X52178549Y-59258951D01*
X52178549Y-59258951D02*
X52154739Y-59211332D01*
X52154739Y-59211332D02*
X52154739Y-59092284D01*
X52154739Y-59092284D02*
X52178549Y-59044665D01*
X52178549Y-59044665D02*
X52202358Y-59020856D01*
X52202358Y-59020856D02*
X52249977Y-58997046D01*
X52249977Y-58997046D02*
X52297596Y-58997046D01*
X52297596Y-58997046D02*
X52369025Y-59020856D01*
X52369025Y-59020856D02*
X52654739Y-59306570D01*
X52654739Y-59306570D02*
X52654739Y-58997046D01*
D10*
X39187827Y-61452317D02*
X39187827Y-60182317D01*
X40518304Y-61331364D02*
X40457828Y-61391841D01*
X40457828Y-61391841D02*
X40276399Y-61452317D01*
X40276399Y-61452317D02*
X40155447Y-61452317D01*
X40155447Y-61452317D02*
X39974018Y-61391841D01*
X39974018Y-61391841D02*
X39853066Y-61270888D01*
X39853066Y-61270888D02*
X39792589Y-61149936D01*
X39792589Y-61149936D02*
X39732113Y-60908031D01*
X39732113Y-60908031D02*
X39732113Y-60726602D01*
X39732113Y-60726602D02*
X39792589Y-60484698D01*
X39792589Y-60484698D02*
X39853066Y-60363745D01*
X39853066Y-60363745D02*
X39974018Y-60242793D01*
X39974018Y-60242793D02*
X40155447Y-60182317D01*
X40155447Y-60182317D02*
X40276399Y-60182317D01*
X40276399Y-60182317D02*
X40457828Y-60242793D01*
X40457828Y-60242793D02*
X40518304Y-60303269D01*
X41606875Y-60605650D02*
X41606875Y-61452317D01*
X41304494Y-60121841D02*
X41002113Y-61028983D01*
X41002113Y-61028983D02*
X41788304Y-61028983D01*
D11*
X37463304Y-65603056D02*
X37510923Y-65555437D01*
X37510923Y-65555437D02*
X37606161Y-65507818D01*
X37606161Y-65507818D02*
X37844256Y-65507818D01*
X37844256Y-65507818D02*
X37939494Y-65555437D01*
X37939494Y-65555437D02*
X37987113Y-65603056D01*
X37987113Y-65603056D02*
X38034732Y-65698294D01*
X38034732Y-65698294D02*
X38034732Y-65793532D01*
X38034732Y-65793532D02*
X37987113Y-65936389D01*
X37987113Y-65936389D02*
X37415685Y-66507818D01*
X37415685Y-66507818D02*
X38034732Y-66507818D01*
X38415685Y-65603056D02*
X38463304Y-65555437D01*
X38463304Y-65555437D02*
X38558542Y-65507818D01*
X38558542Y-65507818D02*
X38796637Y-65507818D01*
X38796637Y-65507818D02*
X38891875Y-65555437D01*
X38891875Y-65555437D02*
X38939494Y-65603056D01*
X38939494Y-65603056D02*
X38987113Y-65698294D01*
X38987113Y-65698294D02*
X38987113Y-65793532D01*
X38987113Y-65793532D02*
X38939494Y-65936389D01*
X38939494Y-65936389D02*
X38368066Y-66507818D01*
X38368066Y-66507818D02*
X38987113Y-66507818D01*
X39844256Y-65841151D02*
X39844256Y-66507818D01*
X39415685Y-65841151D02*
X39415685Y-66364960D01*
X39415685Y-66364960D02*
X39463304Y-66460199D01*
X39463304Y-66460199D02*
X39558542Y-66507818D01*
X39558542Y-66507818D02*
X39701399Y-66507818D01*
X39701399Y-66507818D02*
X39796637Y-66460199D01*
X39796637Y-66460199D02*
X39844256Y-66412579D01*
D12*
X38947121Y-69161927D02*
X38970931Y-69185736D01*
X38970931Y-69185736D02*
X38994740Y-69257165D01*
X38994740Y-69257165D02*
X38994740Y-69304784D01*
X38994740Y-69304784D02*
X38970931Y-69376212D01*
X38970931Y-69376212D02*
X38923311Y-69423831D01*
X38923311Y-69423831D02*
X38875692Y-69447641D01*
X38875692Y-69447641D02*
X38780454Y-69471450D01*
X38780454Y-69471450D02*
X38709026Y-69471450D01*
X38709026Y-69471450D02*
X38613788Y-69447641D01*
X38613788Y-69447641D02*
X38566169Y-69423831D01*
X38566169Y-69423831D02*
X38518550Y-69376212D01*
X38518550Y-69376212D02*
X38494740Y-69304784D01*
X38494740Y-69304784D02*
X38494740Y-69257165D01*
X38494740Y-69257165D02*
X38518550Y-69185736D01*
X38518550Y-69185736D02*
X38542359Y-69161927D01*
X38994740Y-68685736D02*
X38994740Y-68971450D01*
X38994740Y-68828593D02*
X38494740Y-68828593D01*
X38494740Y-68828593D02*
X38566169Y-68876212D01*
X38566169Y-68876212D02*
X38613788Y-68923831D01*
X38613788Y-68923831D02*
X38637597Y-68971450D01*
X38494740Y-68257165D02*
X38494740Y-68352403D01*
X38494740Y-68352403D02*
X38518550Y-68400022D01*
X38518550Y-68400022D02*
X38542359Y-68423832D01*
X38542359Y-68423832D02*
X38613788Y-68471451D01*
X38613788Y-68471451D02*
X38709026Y-68495260D01*
X38709026Y-68495260D02*
X38899502Y-68495260D01*
X38899502Y-68495260D02*
X38947121Y-68471451D01*
X38947121Y-68471451D02*
X38970931Y-68447641D01*
X38970931Y-68447641D02*
X38994740Y-68400022D01*
X38994740Y-68400022D02*
X38994740Y-68304784D01*
X38994740Y-68304784D02*
X38970931Y-68257165D01*
X38970931Y-68257165D02*
X38947121Y-68233356D01*
X38947121Y-68233356D02*
X38899502Y-68209546D01*
X38899502Y-68209546D02*
X38780454Y-68209546D01*
X38780454Y-68209546D02*
X38732835Y-68233356D01*
X38732835Y-68233356D02*
X38709026Y-68257165D01*
X38709026Y-68257165D02*
X38685216Y-68304784D01*
X38685216Y-68304784D02*
X38685216Y-68400022D01*
X38685216Y-68400022D02*
X38709026Y-68447641D01*
X38709026Y-68447641D02*
X38732835Y-68471451D01*
X38732835Y-68471451D02*
X38780454Y-68495260D01*
D11*
X54202410Y-69308356D02*
X54202410Y-69879784D01*
X54202410Y-69594070D02*
X53202410Y-69594070D01*
X53202410Y-69594070D02*
X53345267Y-69689308D01*
X53345267Y-69689308D02*
X53440505Y-69784546D01*
X53440505Y-69784546D02*
X53488124Y-69879784D01*
X53535743Y-68879784D02*
X54202410Y-68879784D01*
X53630981Y-68879784D02*
X53583362Y-68832165D01*
X53583362Y-68832165D02*
X53535743Y-68736927D01*
X53535743Y-68736927D02*
X53535743Y-68594070D01*
X53535743Y-68594070D02*
X53583362Y-68498832D01*
X53583362Y-68498832D02*
X53678600Y-68451213D01*
X53678600Y-68451213D02*
X54202410Y-68451213D01*
X53202410Y-67546451D02*
X53202410Y-67736927D01*
X53202410Y-67736927D02*
X53250029Y-67832165D01*
X53250029Y-67832165D02*
X53297648Y-67879784D01*
X53297648Y-67879784D02*
X53440505Y-67975022D01*
X53440505Y-67975022D02*
X53630981Y-68022641D01*
X53630981Y-68022641D02*
X54011933Y-68022641D01*
X54011933Y-68022641D02*
X54107171Y-67975022D01*
X54107171Y-67975022D02*
X54154791Y-67927403D01*
X54154791Y-67927403D02*
X54202410Y-67832165D01*
X54202410Y-67832165D02*
X54202410Y-67641689D01*
X54202410Y-67641689D02*
X54154791Y-67546451D01*
X54154791Y-67546451D02*
X54107171Y-67498832D01*
X54107171Y-67498832D02*
X54011933Y-67451213D01*
X54011933Y-67451213D02*
X53773838Y-67451213D01*
X53773838Y-67451213D02*
X53678600Y-67498832D01*
X53678600Y-67498832D02*
X53630981Y-67546451D01*
X53630981Y-67546451D02*
X53583362Y-67641689D01*
X53583362Y-67641689D02*
X53583362Y-67832165D01*
X53583362Y-67832165D02*
X53630981Y-67927403D01*
X53630981Y-67927403D02*
X53678600Y-67975022D01*
X53678600Y-67975022D02*
X53773838Y-68022641D01*
D12*
X55607120Y-68986927D02*
X55630930Y-69010736D01*
X55630930Y-69010736D02*
X55654739Y-69082165D01*
X55654739Y-69082165D02*
X55654739Y-69129784D01*
X55654739Y-69129784D02*
X55630930Y-69201212D01*
X55630930Y-69201212D02*
X55583310Y-69248831D01*
X55583310Y-69248831D02*
X55535691Y-69272641D01*
X55535691Y-69272641D02*
X55440453Y-69296450D01*
X55440453Y-69296450D02*
X55369025Y-69296450D01*
X55369025Y-69296450D02*
X55273787Y-69272641D01*
X55273787Y-69272641D02*
X55226168Y-69248831D01*
X55226168Y-69248831D02*
X55178549Y-69201212D01*
X55178549Y-69201212D02*
X55154739Y-69129784D01*
X55154739Y-69129784D02*
X55154739Y-69082165D01*
X55154739Y-69082165D02*
X55178549Y-69010736D01*
X55178549Y-69010736D02*
X55202358Y-68986927D01*
X55654739Y-68510736D02*
X55654739Y-68796450D01*
X55654739Y-68653593D02*
X55154739Y-68653593D01*
X55154739Y-68653593D02*
X55226168Y-68701212D01*
X55226168Y-68701212D02*
X55273787Y-68748831D01*
X55273787Y-68748831D02*
X55297596Y-68796450D01*
X55154739Y-68344070D02*
X55154739Y-68034546D01*
X55154739Y-68034546D02*
X55345215Y-68201213D01*
X55345215Y-68201213D02*
X55345215Y-68129784D01*
X55345215Y-68129784D02*
X55369025Y-68082165D01*
X55369025Y-68082165D02*
X55392834Y-68058356D01*
X55392834Y-68058356D02*
X55440453Y-68034546D01*
X55440453Y-68034546D02*
X55559501Y-68034546D01*
X55559501Y-68034546D02*
X55607120Y-68058356D01*
X55607120Y-68058356D02*
X55630930Y-68082165D01*
X55630930Y-68082165D02*
X55654739Y-68129784D01*
X55654739Y-68129784D02*
X55654739Y-68272641D01*
X55654739Y-68272641D02*
X55630930Y-68320260D01*
X55630930Y-68320260D02*
X55607120Y-68344070D01*
D11*
X60732409Y-65174666D02*
X60732409Y-65746094D01*
X60732409Y-65460380D02*
X59732409Y-65460380D01*
X59732409Y-65460380D02*
X59875266Y-65555618D01*
X59875266Y-65555618D02*
X59970504Y-65650856D01*
X59970504Y-65650856D02*
X60018123Y-65746094D01*
X59732409Y-64555618D02*
X59732409Y-64460380D01*
X59732409Y-64460380D02*
X59780028Y-64365142D01*
X59780028Y-64365142D02*
X59827647Y-64317523D01*
X59827647Y-64317523D02*
X59922885Y-64269904D01*
X59922885Y-64269904D02*
X60113361Y-64222285D01*
X60113361Y-64222285D02*
X60351456Y-64222285D01*
X60351456Y-64222285D02*
X60541932Y-64269904D01*
X60541932Y-64269904D02*
X60637170Y-64317523D01*
X60637170Y-64317523D02*
X60684790Y-64365142D01*
X60684790Y-64365142D02*
X60732409Y-64460380D01*
X60732409Y-64460380D02*
X60732409Y-64555618D01*
X60732409Y-64555618D02*
X60684790Y-64650856D01*
X60684790Y-64650856D02*
X60637170Y-64698475D01*
X60637170Y-64698475D02*
X60541932Y-64746094D01*
X60541932Y-64746094D02*
X60351456Y-64793713D01*
X60351456Y-64793713D02*
X60113361Y-64793713D01*
X60113361Y-64793713D02*
X59922885Y-64746094D01*
X59922885Y-64746094D02*
X59827647Y-64698475D01*
X59827647Y-64698475D02*
X59780028Y-64650856D01*
X59780028Y-64650856D02*
X59732409Y-64555618D01*
X59732409Y-63603237D02*
X59732409Y-63507999D01*
X59732409Y-63507999D02*
X59780028Y-63412761D01*
X59780028Y-63412761D02*
X59827647Y-63365142D01*
X59827647Y-63365142D02*
X59922885Y-63317523D01*
X59922885Y-63317523D02*
X60113361Y-63269904D01*
X60113361Y-63269904D02*
X60351456Y-63269904D01*
X60351456Y-63269904D02*
X60541932Y-63317523D01*
X60541932Y-63317523D02*
X60637170Y-63365142D01*
X60637170Y-63365142D02*
X60684790Y-63412761D01*
X60684790Y-63412761D02*
X60732409Y-63507999D01*
X60732409Y-63507999D02*
X60732409Y-63603237D01*
X60732409Y-63603237D02*
X60684790Y-63698475D01*
X60684790Y-63698475D02*
X60637170Y-63746094D01*
X60637170Y-63746094D02*
X60541932Y-63793713D01*
X60541932Y-63793713D02*
X60351456Y-63841332D01*
X60351456Y-63841332D02*
X60113361Y-63841332D01*
X60113361Y-63841332D02*
X59922885Y-63793713D01*
X59922885Y-63793713D02*
X59827647Y-63746094D01*
X59827647Y-63746094D02*
X59780028Y-63698475D01*
X59780028Y-63698475D02*
X59732409Y-63603237D01*
X60732409Y-62269904D02*
X60256218Y-62603237D01*
X60732409Y-62841332D02*
X59732409Y-62841332D01*
X59732409Y-62841332D02*
X59732409Y-62460380D01*
X59732409Y-62460380D02*
X59780028Y-62365142D01*
X59780028Y-62365142D02*
X59827647Y-62317523D01*
X59827647Y-62317523D02*
X59922885Y-62269904D01*
X59922885Y-62269904D02*
X60065742Y-62269904D01*
X60065742Y-62269904D02*
X60160980Y-62317523D01*
X60160980Y-62317523D02*
X60208599Y-62365142D01*
X60208599Y-62365142D02*
X60256218Y-62460380D01*
X60256218Y-62460380D02*
X60256218Y-62841332D01*
D12*
X62154739Y-64091333D02*
X61916644Y-64257999D01*
X62154739Y-64377047D02*
X61654739Y-64377047D01*
X61654739Y-64377047D02*
X61654739Y-64186571D01*
X61654739Y-64186571D02*
X61678549Y-64138952D01*
X61678549Y-64138952D02*
X61702358Y-64115142D01*
X61702358Y-64115142D02*
X61749977Y-64091333D01*
X61749977Y-64091333D02*
X61821406Y-64091333D01*
X61821406Y-64091333D02*
X61869025Y-64115142D01*
X61869025Y-64115142D02*
X61892834Y-64138952D01*
X61892834Y-64138952D02*
X61916644Y-64186571D01*
X61916644Y-64186571D02*
X61916644Y-64377047D01*
X62154739Y-63853237D02*
X62154739Y-63757999D01*
X62154739Y-63757999D02*
X62130930Y-63710380D01*
X62130930Y-63710380D02*
X62107120Y-63686571D01*
X62107120Y-63686571D02*
X62035691Y-63638952D01*
X62035691Y-63638952D02*
X61940453Y-63615142D01*
X61940453Y-63615142D02*
X61749977Y-63615142D01*
X61749977Y-63615142D02*
X61702358Y-63638952D01*
X61702358Y-63638952D02*
X61678549Y-63662761D01*
X61678549Y-63662761D02*
X61654739Y-63710380D01*
X61654739Y-63710380D02*
X61654739Y-63805618D01*
X61654739Y-63805618D02*
X61678549Y-63853237D01*
X61678549Y-63853237D02*
X61702358Y-63877047D01*
X61702358Y-63877047D02*
X61749977Y-63900856D01*
X61749977Y-63900856D02*
X61869025Y-63900856D01*
X61869025Y-63900856D02*
X61916644Y-63877047D01*
X61916644Y-63877047D02*
X61940453Y-63853237D01*
X61940453Y-63853237D02*
X61964263Y-63805618D01*
X61964263Y-63805618D02*
X61964263Y-63710380D01*
X61964263Y-63710380D02*
X61940453Y-63662761D01*
X61940453Y-63662761D02*
X61916644Y-63638952D01*
X61916644Y-63638952D02*
X61869025Y-63615142D01*
D11*
X51202410Y-64257165D02*
X51202410Y-64828593D01*
X51202410Y-64542879D02*
X50202410Y-64542879D01*
X50202410Y-64542879D02*
X50345267Y-64638117D01*
X50345267Y-64638117D02*
X50440505Y-64733355D01*
X50440505Y-64733355D02*
X50488124Y-64828593D01*
X50535743Y-63828593D02*
X51202410Y-63828593D01*
X50630981Y-63828593D02*
X50583362Y-63780974D01*
X50583362Y-63780974D02*
X50535743Y-63685736D01*
X50535743Y-63685736D02*
X50535743Y-63542879D01*
X50535743Y-63542879D02*
X50583362Y-63447641D01*
X50583362Y-63447641D02*
X50678600Y-63400022D01*
X50678600Y-63400022D02*
X51202410Y-63400022D01*
D12*
X52607120Y-64411927D02*
X52630930Y-64435736D01*
X52630930Y-64435736D02*
X52654739Y-64507165D01*
X52654739Y-64507165D02*
X52654739Y-64554784D01*
X52654739Y-64554784D02*
X52630930Y-64626212D01*
X52630930Y-64626212D02*
X52583310Y-64673831D01*
X52583310Y-64673831D02*
X52535691Y-64697641D01*
X52535691Y-64697641D02*
X52440453Y-64721450D01*
X52440453Y-64721450D02*
X52369025Y-64721450D01*
X52369025Y-64721450D02*
X52273787Y-64697641D01*
X52273787Y-64697641D02*
X52226168Y-64673831D01*
X52226168Y-64673831D02*
X52178549Y-64626212D01*
X52178549Y-64626212D02*
X52154739Y-64554784D01*
X52154739Y-64554784D02*
X52154739Y-64507165D01*
X52154739Y-64507165D02*
X52178549Y-64435736D01*
X52178549Y-64435736D02*
X52202358Y-64411927D01*
X52654739Y-63935736D02*
X52654739Y-64221450D01*
X52654739Y-64078593D02*
X52154739Y-64078593D01*
X52154739Y-64078593D02*
X52226168Y-64126212D01*
X52226168Y-64126212D02*
X52273787Y-64173831D01*
X52273787Y-64173831D02*
X52297596Y-64221450D01*
X52321406Y-63507165D02*
X52654739Y-63507165D01*
X52130930Y-63626213D02*
X52488072Y-63745260D01*
X52488072Y-63745260D02*
X52488072Y-63435737D01*
D10*
X124140207Y-20202317D02*
X124140207Y-18932317D01*
X124140207Y-18932317D02*
X124442588Y-18932317D01*
X124442588Y-18932317D02*
X124624017Y-18992793D01*
X124624017Y-18992793D02*
X124744969Y-19113745D01*
X124744969Y-19113745D02*
X124805446Y-19234698D01*
X124805446Y-19234698D02*
X124865922Y-19476602D01*
X124865922Y-19476602D02*
X124865922Y-19658031D01*
X124865922Y-19658031D02*
X124805446Y-19899936D01*
X124805446Y-19899936D02*
X124744969Y-20020888D01*
X124744969Y-20020888D02*
X124624017Y-20141841D01*
X124624017Y-20141841D02*
X124442588Y-20202317D01*
X124442588Y-20202317D02*
X124140207Y-20202317D01*
X126075446Y-20202317D02*
X125349731Y-20202317D01*
X125712588Y-20202317D02*
X125712588Y-18932317D01*
X125712588Y-18932317D02*
X125591636Y-19113745D01*
X125591636Y-19113745D02*
X125470684Y-19234698D01*
X125470684Y-19234698D02*
X125349731Y-19295174D01*
D11*
X98641875Y-64046151D02*
X98641875Y-64712818D01*
X98403780Y-63665199D02*
X98165685Y-64379484D01*
X98165685Y-64379484D02*
X98784732Y-64379484D01*
X99165685Y-64712818D02*
X99165685Y-63712818D01*
X99165685Y-63712818D02*
X99737113Y-64712818D01*
X99737113Y-64712818D02*
X99737113Y-63712818D01*
X100118066Y-63712818D02*
X100737113Y-63712818D01*
X100737113Y-63712818D02*
X100403780Y-64093770D01*
X100403780Y-64093770D02*
X100546637Y-64093770D01*
X100546637Y-64093770D02*
X100641875Y-64141389D01*
X100641875Y-64141389D02*
X100689494Y-64189008D01*
X100689494Y-64189008D02*
X100737113Y-64284246D01*
X100737113Y-64284246D02*
X100737113Y-64522341D01*
X100737113Y-64522341D02*
X100689494Y-64617579D01*
X100689494Y-64617579D02*
X100641875Y-64665199D01*
X100641875Y-64665199D02*
X100546637Y-64712818D01*
X100546637Y-64712818D02*
X100260923Y-64712818D01*
X100260923Y-64712818D02*
X100165685Y-64665199D01*
X100165685Y-64665199D02*
X100118066Y-64617579D01*
X101641875Y-63712818D02*
X101165685Y-63712818D01*
X101165685Y-63712818D02*
X101118066Y-64189008D01*
X101118066Y-64189008D02*
X101165685Y-64141389D01*
X101165685Y-64141389D02*
X101260923Y-64093770D01*
X101260923Y-64093770D02*
X101499018Y-64093770D01*
X101499018Y-64093770D02*
X101594256Y-64141389D01*
X101594256Y-64141389D02*
X101641875Y-64189008D01*
X101641875Y-64189008D02*
X101689494Y-64284246D01*
X101689494Y-64284246D02*
X101689494Y-64522341D01*
X101689494Y-64522341D02*
X101641875Y-64617579D01*
X101641875Y-64617579D02*
X101594256Y-64665199D01*
X101594256Y-64665199D02*
X101499018Y-64712818D01*
X101499018Y-64712818D02*
X101260923Y-64712818D01*
X101260923Y-64712818D02*
X101165685Y-64665199D01*
X101165685Y-64665199D02*
X101118066Y-64617579D01*
X99382409Y-69889903D02*
X100191932Y-69889903D01*
X100191932Y-69889903D02*
X100287170Y-69842284D01*
X100287170Y-69842284D02*
X100334790Y-69794665D01*
X100334790Y-69794665D02*
X100382409Y-69699427D01*
X100382409Y-69699427D02*
X100382409Y-69508951D01*
X100382409Y-69508951D02*
X100334790Y-69413713D01*
X100334790Y-69413713D02*
X100287170Y-69366094D01*
X100287170Y-69366094D02*
X100191932Y-69318475D01*
X100191932Y-69318475D02*
X99382409Y-69318475D01*
X100382409Y-68318475D02*
X100382409Y-68889903D01*
X100382409Y-68604189D02*
X99382409Y-68604189D01*
X99382409Y-68604189D02*
X99525266Y-68699427D01*
X99525266Y-68699427D02*
X99620504Y-68794665D01*
X99620504Y-68794665D02*
X99668123Y-68889903D01*
X55952410Y-64733356D02*
X55952410Y-65304784D01*
X55952410Y-65019070D02*
X54952410Y-65019070D01*
X54952410Y-65019070D02*
X55095267Y-65114308D01*
X55095267Y-65114308D02*
X55190505Y-65209546D01*
X55190505Y-65209546D02*
X55238124Y-65304784D01*
X55285743Y-64304784D02*
X55952410Y-64304784D01*
X55380981Y-64304784D02*
X55333362Y-64257165D01*
X55333362Y-64257165D02*
X55285743Y-64161927D01*
X55285743Y-64161927D02*
X55285743Y-64019070D01*
X55285743Y-64019070D02*
X55333362Y-63923832D01*
X55333362Y-63923832D02*
X55428600Y-63876213D01*
X55428600Y-63876213D02*
X55952410Y-63876213D01*
X55380981Y-63257165D02*
X55333362Y-63352403D01*
X55333362Y-63352403D02*
X55285743Y-63400022D01*
X55285743Y-63400022D02*
X55190505Y-63447641D01*
X55190505Y-63447641D02*
X55142886Y-63447641D01*
X55142886Y-63447641D02*
X55047648Y-63400022D01*
X55047648Y-63400022D02*
X55000029Y-63352403D01*
X55000029Y-63352403D02*
X54952410Y-63257165D01*
X54952410Y-63257165D02*
X54952410Y-63066689D01*
X54952410Y-63066689D02*
X55000029Y-62971451D01*
X55000029Y-62971451D02*
X55047648Y-62923832D01*
X55047648Y-62923832D02*
X55142886Y-62876213D01*
X55142886Y-62876213D02*
X55190505Y-62876213D01*
X55190505Y-62876213D02*
X55285743Y-62923832D01*
X55285743Y-62923832D02*
X55333362Y-62971451D01*
X55333362Y-62971451D02*
X55380981Y-63066689D01*
X55380981Y-63066689D02*
X55380981Y-63257165D01*
X55380981Y-63257165D02*
X55428600Y-63352403D01*
X55428600Y-63352403D02*
X55476219Y-63400022D01*
X55476219Y-63400022D02*
X55571457Y-63447641D01*
X55571457Y-63447641D02*
X55761933Y-63447641D01*
X55761933Y-63447641D02*
X55857171Y-63400022D01*
X55857171Y-63400022D02*
X55904791Y-63352403D01*
X55904791Y-63352403D02*
X55952410Y-63257165D01*
X55952410Y-63257165D02*
X55952410Y-63066689D01*
X55952410Y-63066689D02*
X55904791Y-62971451D01*
X55904791Y-62971451D02*
X55857171Y-62923832D01*
X55857171Y-62923832D02*
X55761933Y-62876213D01*
X55761933Y-62876213D02*
X55571457Y-62876213D01*
X55571457Y-62876213D02*
X55476219Y-62923832D01*
X55476219Y-62923832D02*
X55428600Y-62971451D01*
X55428600Y-62971451D02*
X55380981Y-63066689D01*
D12*
X57357120Y-64411927D02*
X57380930Y-64435736D01*
X57380930Y-64435736D02*
X57404739Y-64507165D01*
X57404739Y-64507165D02*
X57404739Y-64554784D01*
X57404739Y-64554784D02*
X57380930Y-64626212D01*
X57380930Y-64626212D02*
X57333310Y-64673831D01*
X57333310Y-64673831D02*
X57285691Y-64697641D01*
X57285691Y-64697641D02*
X57190453Y-64721450D01*
X57190453Y-64721450D02*
X57119025Y-64721450D01*
X57119025Y-64721450D02*
X57023787Y-64697641D01*
X57023787Y-64697641D02*
X56976168Y-64673831D01*
X56976168Y-64673831D02*
X56928549Y-64626212D01*
X56928549Y-64626212D02*
X56904739Y-64554784D01*
X56904739Y-64554784D02*
X56904739Y-64507165D01*
X56904739Y-64507165D02*
X56928549Y-64435736D01*
X56928549Y-64435736D02*
X56952358Y-64411927D01*
X57404739Y-63935736D02*
X57404739Y-64221450D01*
X57404739Y-64078593D02*
X56904739Y-64078593D01*
X56904739Y-64078593D02*
X56976168Y-64126212D01*
X56976168Y-64126212D02*
X57023787Y-64173831D01*
X57023787Y-64173831D02*
X57047596Y-64221450D01*
X57404739Y-63459546D02*
X57404739Y-63745260D01*
X57404739Y-63602403D02*
X56904739Y-63602403D01*
X56904739Y-63602403D02*
X56976168Y-63650022D01*
X56976168Y-63650022D02*
X57023787Y-63697641D01*
X57023787Y-63697641D02*
X57047596Y-63745260D01*
D11*
X41189495Y-67428056D02*
X41237114Y-67380437D01*
X41237114Y-67380437D02*
X41332352Y-67332818D01*
X41332352Y-67332818D02*
X41570447Y-67332818D01*
X41570447Y-67332818D02*
X41665685Y-67380437D01*
X41665685Y-67380437D02*
X41713304Y-67428056D01*
X41713304Y-67428056D02*
X41760923Y-67523294D01*
X41760923Y-67523294D02*
X41760923Y-67618532D01*
X41760923Y-67618532D02*
X41713304Y-67761389D01*
X41713304Y-67761389D02*
X41141876Y-68332818D01*
X41141876Y-68332818D02*
X41760923Y-68332818D01*
X42618066Y-67666151D02*
X42618066Y-68332818D01*
X42379971Y-67285199D02*
X42141876Y-67999484D01*
X42141876Y-67999484D02*
X42760923Y-67999484D01*
X43332352Y-67332818D02*
X43427590Y-67332818D01*
X43427590Y-67332818D02*
X43522828Y-67380437D01*
X43522828Y-67380437D02*
X43570447Y-67428056D01*
X43570447Y-67428056D02*
X43618066Y-67523294D01*
X43618066Y-67523294D02*
X43665685Y-67713770D01*
X43665685Y-67713770D02*
X43665685Y-67951865D01*
X43665685Y-67951865D02*
X43618066Y-68142341D01*
X43618066Y-68142341D02*
X43570447Y-68237579D01*
X43570447Y-68237579D02*
X43522828Y-68285199D01*
X43522828Y-68285199D02*
X43427590Y-68332818D01*
X43427590Y-68332818D02*
X43332352Y-68332818D01*
X43332352Y-68332818D02*
X43237114Y-68285199D01*
X43237114Y-68285199D02*
X43189495Y-68237579D01*
X43189495Y-68237579D02*
X43141876Y-68142341D01*
X43141876Y-68142341D02*
X43094257Y-67951865D01*
X43094257Y-67951865D02*
X43094257Y-67713770D01*
X43094257Y-67713770D02*
X43141876Y-67523294D01*
X43141876Y-67523294D02*
X43189495Y-67428056D01*
X43189495Y-67428056D02*
X43237114Y-67380437D01*
X43237114Y-67380437D02*
X43332352Y-67332818D01*
X44665685Y-68332818D02*
X44332352Y-67856627D01*
X44094257Y-68332818D02*
X44094257Y-67332818D01*
X44094257Y-67332818D02*
X44475209Y-67332818D01*
X44475209Y-67332818D02*
X44570447Y-67380437D01*
X44570447Y-67380437D02*
X44618066Y-67428056D01*
X44618066Y-67428056D02*
X44665685Y-67523294D01*
X44665685Y-67523294D02*
X44665685Y-67666151D01*
X44665685Y-67666151D02*
X44618066Y-67761389D01*
X44618066Y-67761389D02*
X44570447Y-67809008D01*
X44570447Y-67809008D02*
X44475209Y-67856627D01*
X44475209Y-67856627D02*
X44094257Y-67856627D01*
D12*
X42606161Y-66605148D02*
X42439495Y-66367053D01*
X42320447Y-66605148D02*
X42320447Y-66105148D01*
X42320447Y-66105148D02*
X42510923Y-66105148D01*
X42510923Y-66105148D02*
X42558542Y-66128958D01*
X42558542Y-66128958D02*
X42582352Y-66152767D01*
X42582352Y-66152767D02*
X42606161Y-66200386D01*
X42606161Y-66200386D02*
X42606161Y-66271815D01*
X42606161Y-66271815D02*
X42582352Y-66319434D01*
X42582352Y-66319434D02*
X42558542Y-66343243D01*
X42558542Y-66343243D02*
X42510923Y-66367053D01*
X42510923Y-66367053D02*
X42320447Y-66367053D01*
X43082352Y-66605148D02*
X42796638Y-66605148D01*
X42939495Y-66605148D02*
X42939495Y-66105148D01*
X42939495Y-66105148D02*
X42891876Y-66176577D01*
X42891876Y-66176577D02*
X42844257Y-66224196D01*
X42844257Y-66224196D02*
X42796638Y-66248005D01*
X43510923Y-66271815D02*
X43510923Y-66605148D01*
X43391875Y-66081339D02*
X43272828Y-66438481D01*
X43272828Y-66438481D02*
X43582351Y-66438481D01*
D11*
X111237113Y-67482819D02*
X110903780Y-67006628D01*
X110665685Y-67482819D02*
X110665685Y-66482819D01*
X110665685Y-66482819D02*
X111046637Y-66482819D01*
X111046637Y-66482819D02*
X111141875Y-66530438D01*
X111141875Y-66530438D02*
X111189494Y-66578057D01*
X111189494Y-66578057D02*
X111237113Y-66673295D01*
X111237113Y-66673295D02*
X111237113Y-66816152D01*
X111237113Y-66816152D02*
X111189494Y-66911390D01*
X111189494Y-66911390D02*
X111141875Y-66959009D01*
X111141875Y-66959009D02*
X111046637Y-67006628D01*
X111046637Y-67006628D02*
X110665685Y-67006628D01*
D12*
X110844256Y-65505149D02*
X110677590Y-65267054D01*
X110558542Y-65505149D02*
X110558542Y-65005149D01*
X110558542Y-65005149D02*
X110749018Y-65005149D01*
X110749018Y-65005149D02*
X110796637Y-65028959D01*
X110796637Y-65028959D02*
X110820447Y-65052768D01*
X110820447Y-65052768D02*
X110844256Y-65100387D01*
X110844256Y-65100387D02*
X110844256Y-65171816D01*
X110844256Y-65171816D02*
X110820447Y-65219435D01*
X110820447Y-65219435D02*
X110796637Y-65243244D01*
X110796637Y-65243244D02*
X110749018Y-65267054D01*
X110749018Y-65267054D02*
X110558542Y-65267054D01*
X111272828Y-65171816D02*
X111272828Y-65505149D01*
X111153780Y-64981340D02*
X111034733Y-65338482D01*
X111034733Y-65338482D02*
X111344256Y-65338482D01*
D11*
X50132409Y-66770856D02*
X50132409Y-67342284D01*
X50132409Y-67056570D02*
X49132409Y-67056570D01*
X49132409Y-67056570D02*
X49275266Y-67151808D01*
X49275266Y-67151808D02*
X49370504Y-67247046D01*
X49370504Y-67247046D02*
X49418123Y-67342284D01*
X50132409Y-66342284D02*
X49132409Y-66342284D01*
X49132409Y-66342284D02*
X50132409Y-65770856D01*
X50132409Y-65770856D02*
X49132409Y-65770856D01*
X49465742Y-64866094D02*
X50132409Y-64866094D01*
X49084790Y-65104189D02*
X49799075Y-65342284D01*
X49799075Y-65342284D02*
X49799075Y-64723237D01*
X49132409Y-64151808D02*
X49132409Y-64056570D01*
X49132409Y-64056570D02*
X49180028Y-63961332D01*
X49180028Y-63961332D02*
X49227647Y-63913713D01*
X49227647Y-63913713D02*
X49322885Y-63866094D01*
X49322885Y-63866094D02*
X49513361Y-63818475D01*
X49513361Y-63818475D02*
X49751456Y-63818475D01*
X49751456Y-63818475D02*
X49941932Y-63866094D01*
X49941932Y-63866094D02*
X50037170Y-63913713D01*
X50037170Y-63913713D02*
X50084790Y-63961332D01*
X50084790Y-63961332D02*
X50132409Y-64056570D01*
X50132409Y-64056570D02*
X50132409Y-64151808D01*
X50132409Y-64151808D02*
X50084790Y-64247046D01*
X50084790Y-64247046D02*
X50037170Y-64294665D01*
X50037170Y-64294665D02*
X49941932Y-64342284D01*
X49941932Y-64342284D02*
X49751456Y-64389903D01*
X49751456Y-64389903D02*
X49513361Y-64389903D01*
X49513361Y-64389903D02*
X49322885Y-64342284D01*
X49322885Y-64342284D02*
X49227647Y-64294665D01*
X49227647Y-64294665D02*
X49180028Y-64247046D01*
X49180028Y-64247046D02*
X49132409Y-64151808D01*
X49132409Y-63199427D02*
X49132409Y-63104189D01*
X49132409Y-63104189D02*
X49180028Y-63008951D01*
X49180028Y-63008951D02*
X49227647Y-62961332D01*
X49227647Y-62961332D02*
X49322885Y-62913713D01*
X49322885Y-62913713D02*
X49513361Y-62866094D01*
X49513361Y-62866094D02*
X49751456Y-62866094D01*
X49751456Y-62866094D02*
X49941932Y-62913713D01*
X49941932Y-62913713D02*
X50037170Y-62961332D01*
X50037170Y-62961332D02*
X50084790Y-63008951D01*
X50084790Y-63008951D02*
X50132409Y-63104189D01*
X50132409Y-63104189D02*
X50132409Y-63199427D01*
X50132409Y-63199427D02*
X50084790Y-63294665D01*
X50084790Y-63294665D02*
X50037170Y-63342284D01*
X50037170Y-63342284D02*
X49941932Y-63389903D01*
X49941932Y-63389903D02*
X49751456Y-63437522D01*
X49751456Y-63437522D02*
X49513361Y-63437522D01*
X49513361Y-63437522D02*
X49322885Y-63389903D01*
X49322885Y-63389903D02*
X49227647Y-63342284D01*
X49227647Y-63342284D02*
X49180028Y-63294665D01*
X49180028Y-63294665D02*
X49132409Y-63199427D01*
X49132409Y-61961332D02*
X49132409Y-62437522D01*
X49132409Y-62437522D02*
X49608599Y-62485141D01*
X49608599Y-62485141D02*
X49560980Y-62437522D01*
X49560980Y-62437522D02*
X49513361Y-62342284D01*
X49513361Y-62342284D02*
X49513361Y-62104189D01*
X49513361Y-62104189D02*
X49560980Y-62008951D01*
X49560980Y-62008951D02*
X49608599Y-61961332D01*
X49608599Y-61961332D02*
X49703837Y-61913713D01*
X49703837Y-61913713D02*
X49941932Y-61913713D01*
X49941932Y-61913713D02*
X50037170Y-61961332D01*
X50037170Y-61961332D02*
X50084790Y-62008951D01*
X50084790Y-62008951D02*
X50132409Y-62104189D01*
X50132409Y-62104189D02*
X50132409Y-62342284D01*
X50132409Y-62342284D02*
X50084790Y-62437522D01*
X50084790Y-62437522D02*
X50037170Y-62485141D01*
X47632409Y-65866093D02*
X46632409Y-65866093D01*
X46632409Y-65866093D02*
X46632409Y-65627998D01*
X46632409Y-65627998D02*
X46680028Y-65485141D01*
X46680028Y-65485141D02*
X46775266Y-65389903D01*
X46775266Y-65389903D02*
X46870504Y-65342284D01*
X46870504Y-65342284D02*
X47060980Y-65294665D01*
X47060980Y-65294665D02*
X47203837Y-65294665D01*
X47203837Y-65294665D02*
X47394313Y-65342284D01*
X47394313Y-65342284D02*
X47489551Y-65389903D01*
X47489551Y-65389903D02*
X47584790Y-65485141D01*
X47584790Y-65485141D02*
X47632409Y-65627998D01*
X47632409Y-65627998D02*
X47632409Y-65866093D01*
X46727647Y-64913712D02*
X46680028Y-64866093D01*
X46680028Y-64866093D02*
X46632409Y-64770855D01*
X46632409Y-64770855D02*
X46632409Y-64532760D01*
X46632409Y-64532760D02*
X46680028Y-64437522D01*
X46680028Y-64437522D02*
X46727647Y-64389903D01*
X46727647Y-64389903D02*
X46822885Y-64342284D01*
X46822885Y-64342284D02*
X46918123Y-64342284D01*
X46918123Y-64342284D02*
X47060980Y-64389903D01*
X47060980Y-64389903D02*
X47632409Y-64961331D01*
X47632409Y-64961331D02*
X47632409Y-64342284D01*
X49732409Y-59809903D02*
X48732409Y-59809903D01*
X49732409Y-59238475D02*
X49160980Y-59667046D01*
X48732409Y-59238475D02*
X49303837Y-59809903D01*
X31193305Y-65318057D02*
X31240924Y-65270438D01*
X31240924Y-65270438D02*
X31336162Y-65222819D01*
X31336162Y-65222819D02*
X31574257Y-65222819D01*
X31574257Y-65222819D02*
X31669495Y-65270438D01*
X31669495Y-65270438D02*
X31717114Y-65318057D01*
X31717114Y-65318057D02*
X31764733Y-65413295D01*
X31764733Y-65413295D02*
X31764733Y-65508533D01*
X31764733Y-65508533D02*
X31717114Y-65651390D01*
X31717114Y-65651390D02*
X31145686Y-66222819D01*
X31145686Y-66222819D02*
X31764733Y-66222819D01*
X32193305Y-66222819D02*
X32193305Y-65222819D01*
X32193305Y-65222819D02*
X32764733Y-66222819D01*
X32764733Y-66222819D02*
X32764733Y-65222819D01*
X33145686Y-65222819D02*
X33764733Y-65222819D01*
X33764733Y-65222819D02*
X33431400Y-65603771D01*
X33431400Y-65603771D02*
X33574257Y-65603771D01*
X33574257Y-65603771D02*
X33669495Y-65651390D01*
X33669495Y-65651390D02*
X33717114Y-65699009D01*
X33717114Y-65699009D02*
X33764733Y-65794247D01*
X33764733Y-65794247D02*
X33764733Y-66032342D01*
X33764733Y-66032342D02*
X33717114Y-66127580D01*
X33717114Y-66127580D02*
X33669495Y-66175200D01*
X33669495Y-66175200D02*
X33574257Y-66222819D01*
X33574257Y-66222819D02*
X33288543Y-66222819D01*
X33288543Y-66222819D02*
X33193305Y-66175200D01*
X33193305Y-66175200D02*
X33145686Y-66127580D01*
X34240924Y-66222819D02*
X34431400Y-66222819D01*
X34431400Y-66222819D02*
X34526638Y-66175200D01*
X34526638Y-66175200D02*
X34574257Y-66127580D01*
X34574257Y-66127580D02*
X34669495Y-65984723D01*
X34669495Y-65984723D02*
X34717114Y-65794247D01*
X34717114Y-65794247D02*
X34717114Y-65413295D01*
X34717114Y-65413295D02*
X34669495Y-65318057D01*
X34669495Y-65318057D02*
X34621876Y-65270438D01*
X34621876Y-65270438D02*
X34526638Y-65222819D01*
X34526638Y-65222819D02*
X34336162Y-65222819D01*
X34336162Y-65222819D02*
X34240924Y-65270438D01*
X34240924Y-65270438D02*
X34193305Y-65318057D01*
X34193305Y-65318057D02*
X34145686Y-65413295D01*
X34145686Y-65413295D02*
X34145686Y-65651390D01*
X34145686Y-65651390D02*
X34193305Y-65746628D01*
X34193305Y-65746628D02*
X34240924Y-65794247D01*
X34240924Y-65794247D02*
X34336162Y-65841866D01*
X34336162Y-65841866D02*
X34526638Y-65841866D01*
X34526638Y-65841866D02*
X34621876Y-65794247D01*
X34621876Y-65794247D02*
X34669495Y-65746628D01*
X34669495Y-65746628D02*
X34717114Y-65651390D01*
X35336162Y-65222819D02*
X35431400Y-65222819D01*
X35431400Y-65222819D02*
X35526638Y-65270438D01*
X35526638Y-65270438D02*
X35574257Y-65318057D01*
X35574257Y-65318057D02*
X35621876Y-65413295D01*
X35621876Y-65413295D02*
X35669495Y-65603771D01*
X35669495Y-65603771D02*
X35669495Y-65841866D01*
X35669495Y-65841866D02*
X35621876Y-66032342D01*
X35621876Y-66032342D02*
X35574257Y-66127580D01*
X35574257Y-66127580D02*
X35526638Y-66175200D01*
X35526638Y-66175200D02*
X35431400Y-66222819D01*
X35431400Y-66222819D02*
X35336162Y-66222819D01*
X35336162Y-66222819D02*
X35240924Y-66175200D01*
X35240924Y-66175200D02*
X35193305Y-66127580D01*
X35193305Y-66127580D02*
X35145686Y-66032342D01*
X35145686Y-66032342D02*
X35098067Y-65841866D01*
X35098067Y-65841866D02*
X35098067Y-65603771D01*
X35098067Y-65603771D02*
X35145686Y-65413295D01*
X35145686Y-65413295D02*
X35193305Y-65318057D01*
X35193305Y-65318057D02*
X35240924Y-65270438D01*
X35240924Y-65270438D02*
X35336162Y-65222819D01*
X36526638Y-65222819D02*
X36336162Y-65222819D01*
X36336162Y-65222819D02*
X36240924Y-65270438D01*
X36240924Y-65270438D02*
X36193305Y-65318057D01*
X36193305Y-65318057D02*
X36098067Y-65460914D01*
X36098067Y-65460914D02*
X36050448Y-65651390D01*
X36050448Y-65651390D02*
X36050448Y-66032342D01*
X36050448Y-66032342D02*
X36098067Y-66127580D01*
X36098067Y-66127580D02*
X36145686Y-66175200D01*
X36145686Y-66175200D02*
X36240924Y-66222819D01*
X36240924Y-66222819D02*
X36431400Y-66222819D01*
X36431400Y-66222819D02*
X36526638Y-66175200D01*
X36526638Y-66175200D02*
X36574257Y-66127580D01*
X36574257Y-66127580D02*
X36621876Y-66032342D01*
X36621876Y-66032342D02*
X36621876Y-65794247D01*
X36621876Y-65794247D02*
X36574257Y-65699009D01*
X36574257Y-65699009D02*
X36526638Y-65651390D01*
X36526638Y-65651390D02*
X36431400Y-65603771D01*
X36431400Y-65603771D02*
X36240924Y-65603771D01*
X36240924Y-65603771D02*
X36145686Y-65651390D01*
X36145686Y-65651390D02*
X36098067Y-65699009D01*
X36098067Y-65699009D02*
X36050448Y-65794247D01*
X33812352Y-69678056D02*
X33717114Y-69630437D01*
X33717114Y-69630437D02*
X33621876Y-69535199D01*
X33621876Y-69535199D02*
X33479019Y-69392341D01*
X33479019Y-69392341D02*
X33383781Y-69344722D01*
X33383781Y-69344722D02*
X33288543Y-69344722D01*
X33336162Y-69582818D02*
X33240924Y-69535199D01*
X33240924Y-69535199D02*
X33145686Y-69439960D01*
X33145686Y-69439960D02*
X33098067Y-69249484D01*
X33098067Y-69249484D02*
X33098067Y-68916151D01*
X33098067Y-68916151D02*
X33145686Y-68725675D01*
X33145686Y-68725675D02*
X33240924Y-68630437D01*
X33240924Y-68630437D02*
X33336162Y-68582818D01*
X33336162Y-68582818D02*
X33526638Y-68582818D01*
X33526638Y-68582818D02*
X33621876Y-68630437D01*
X33621876Y-68630437D02*
X33717114Y-68725675D01*
X33717114Y-68725675D02*
X33764733Y-68916151D01*
X33764733Y-68916151D02*
X33764733Y-69249484D01*
X33764733Y-69249484D02*
X33717114Y-69439960D01*
X33717114Y-69439960D02*
X33621876Y-69535199D01*
X33621876Y-69535199D02*
X33526638Y-69582818D01*
X33526638Y-69582818D02*
X33336162Y-69582818D01*
X34145686Y-68678056D02*
X34193305Y-68630437D01*
X34193305Y-68630437D02*
X34288543Y-68582818D01*
X34288543Y-68582818D02*
X34526638Y-68582818D01*
X34526638Y-68582818D02*
X34621876Y-68630437D01*
X34621876Y-68630437D02*
X34669495Y-68678056D01*
X34669495Y-68678056D02*
X34717114Y-68773294D01*
X34717114Y-68773294D02*
X34717114Y-68868532D01*
X34717114Y-68868532D02*
X34669495Y-69011389D01*
X34669495Y-69011389D02*
X34098067Y-69582818D01*
X34098067Y-69582818D02*
X34717114Y-69582818D01*
X114232409Y-71818475D02*
X113756218Y-72151808D01*
X114232409Y-72389903D02*
X113232409Y-72389903D01*
X113232409Y-72389903D02*
X113232409Y-72008951D01*
X113232409Y-72008951D02*
X113280028Y-71913713D01*
X113280028Y-71913713D02*
X113327647Y-71866094D01*
X113327647Y-71866094D02*
X113422885Y-71818475D01*
X113422885Y-71818475D02*
X113565742Y-71818475D01*
X113565742Y-71818475D02*
X113660980Y-71866094D01*
X113660980Y-71866094D02*
X113708599Y-71913713D01*
X113708599Y-71913713D02*
X113756218Y-72008951D01*
X113756218Y-72008951D02*
X113756218Y-72389903D01*
D12*
X115654739Y-72211332D02*
X115416644Y-72377998D01*
X115654739Y-72497046D02*
X115154739Y-72497046D01*
X115154739Y-72497046D02*
X115154739Y-72306570D01*
X115154739Y-72306570D02*
X115178549Y-72258951D01*
X115178549Y-72258951D02*
X115202358Y-72235141D01*
X115202358Y-72235141D02*
X115249977Y-72211332D01*
X115249977Y-72211332D02*
X115321406Y-72211332D01*
X115321406Y-72211332D02*
X115369025Y-72235141D01*
X115369025Y-72235141D02*
X115392834Y-72258951D01*
X115392834Y-72258951D02*
X115416644Y-72306570D01*
X115416644Y-72306570D02*
X115416644Y-72497046D01*
X115154739Y-72044665D02*
X115154739Y-71735141D01*
X115154739Y-71735141D02*
X115345215Y-71901808D01*
X115345215Y-71901808D02*
X115345215Y-71830379D01*
X115345215Y-71830379D02*
X115369025Y-71782760D01*
X115369025Y-71782760D02*
X115392834Y-71758951D01*
X115392834Y-71758951D02*
X115440453Y-71735141D01*
X115440453Y-71735141D02*
X115559501Y-71735141D01*
X115559501Y-71735141D02*
X115607120Y-71758951D01*
X115607120Y-71758951D02*
X115630930Y-71782760D01*
X115630930Y-71782760D02*
X115654739Y-71830379D01*
X115654739Y-71830379D02*
X115654739Y-71973236D01*
X115654739Y-71973236D02*
X115630930Y-72020855D01*
X115630930Y-72020855D02*
X115607120Y-72044665D01*
D11*
X120264494Y-37166151D02*
X120264494Y-37832818D01*
X120026399Y-36785199D02*
X119788304Y-37499484D01*
X119788304Y-37499484D02*
X120407351Y-37499484D01*
X120693066Y-36832818D02*
X121359732Y-36832818D01*
X121359732Y-36832818D02*
X120931161Y-37832818D01*
X122169256Y-37166151D02*
X122169256Y-37832818D01*
X121740685Y-37166151D02*
X121740685Y-37689960D01*
X121740685Y-37689960D02*
X121788304Y-37785199D01*
X121788304Y-37785199D02*
X121883542Y-37832818D01*
X121883542Y-37832818D02*
X122026399Y-37832818D01*
X122026399Y-37832818D02*
X122121637Y-37785199D01*
X122121637Y-37785199D02*
X122169256Y-37737579D01*
X120835923Y-31487579D02*
X120788304Y-31535199D01*
X120788304Y-31535199D02*
X120645447Y-31582818D01*
X120645447Y-31582818D02*
X120550209Y-31582818D01*
X120550209Y-31582818D02*
X120407352Y-31535199D01*
X120407352Y-31535199D02*
X120312114Y-31439960D01*
X120312114Y-31439960D02*
X120264495Y-31344722D01*
X120264495Y-31344722D02*
X120216876Y-31154246D01*
X120216876Y-31154246D02*
X120216876Y-31011389D01*
X120216876Y-31011389D02*
X120264495Y-30820913D01*
X120264495Y-30820913D02*
X120312114Y-30725675D01*
X120312114Y-30725675D02*
X120407352Y-30630437D01*
X120407352Y-30630437D02*
X120550209Y-30582818D01*
X120550209Y-30582818D02*
X120645447Y-30582818D01*
X120645447Y-30582818D02*
X120788304Y-30630437D01*
X120788304Y-30630437D02*
X120835923Y-30678056D01*
X121788304Y-31582818D02*
X121216876Y-31582818D01*
X121502590Y-31582818D02*
X121502590Y-30582818D01*
X121502590Y-30582818D02*
X121407352Y-30725675D01*
X121407352Y-30725675D02*
X121312114Y-30820913D01*
X121312114Y-30820913D02*
X121216876Y-30868532D01*
D10*
X75865923Y-72452317D02*
X75442589Y-71847555D01*
X75140208Y-72452317D02*
X75140208Y-71182317D01*
X75140208Y-71182317D02*
X75624018Y-71182317D01*
X75624018Y-71182317D02*
X75744970Y-71242793D01*
X75744970Y-71242793D02*
X75805447Y-71303269D01*
X75805447Y-71303269D02*
X75865923Y-71424221D01*
X75865923Y-71424221D02*
X75865923Y-71605650D01*
X75865923Y-71605650D02*
X75805447Y-71726602D01*
X75805447Y-71726602D02*
X75744970Y-71787079D01*
X75744970Y-71787079D02*
X75624018Y-71847555D01*
X75624018Y-71847555D02*
X75140208Y-71847555D01*
X76591637Y-71726602D02*
X76470685Y-71666126D01*
X76470685Y-71666126D02*
X76410208Y-71605650D01*
X76410208Y-71605650D02*
X76349732Y-71484698D01*
X76349732Y-71484698D02*
X76349732Y-71424221D01*
X76349732Y-71424221D02*
X76410208Y-71303269D01*
X76410208Y-71303269D02*
X76470685Y-71242793D01*
X76470685Y-71242793D02*
X76591637Y-71182317D01*
X76591637Y-71182317D02*
X76833542Y-71182317D01*
X76833542Y-71182317D02*
X76954494Y-71242793D01*
X76954494Y-71242793D02*
X77014970Y-71303269D01*
X77014970Y-71303269D02*
X77075447Y-71424221D01*
X77075447Y-71424221D02*
X77075447Y-71484698D01*
X77075447Y-71484698D02*
X77014970Y-71605650D01*
X77014970Y-71605650D02*
X76954494Y-71666126D01*
X76954494Y-71666126D02*
X76833542Y-71726602D01*
X76833542Y-71726602D02*
X76591637Y-71726602D01*
X76591637Y-71726602D02*
X76470685Y-71787079D01*
X76470685Y-71787079D02*
X76410208Y-71847555D01*
X76410208Y-71847555D02*
X76349732Y-71968507D01*
X76349732Y-71968507D02*
X76349732Y-72210412D01*
X76349732Y-72210412D02*
X76410208Y-72331364D01*
X76410208Y-72331364D02*
X76470685Y-72391841D01*
X76470685Y-72391841D02*
X76591637Y-72452317D01*
X76591637Y-72452317D02*
X76833542Y-72452317D01*
X76833542Y-72452317D02*
X76954494Y-72391841D01*
X76954494Y-72391841D02*
X77014970Y-72331364D01*
X77014970Y-72331364D02*
X77075447Y-72210412D01*
X77075447Y-72210412D02*
X77075447Y-71968507D01*
X77075447Y-71968507D02*
X77014970Y-71847555D01*
X77014970Y-71847555D02*
X76954494Y-71787079D01*
X76954494Y-71787079D02*
X76833542Y-71726602D01*
D11*
X42284732Y-71832818D02*
X41808542Y-71832818D01*
X41808542Y-71832818D02*
X41760923Y-72309008D01*
X41760923Y-72309008D02*
X41808542Y-72261389D01*
X41808542Y-72261389D02*
X41903780Y-72213770D01*
X41903780Y-72213770D02*
X42141875Y-72213770D01*
X42141875Y-72213770D02*
X42237113Y-72261389D01*
X42237113Y-72261389D02*
X42284732Y-72309008D01*
X42284732Y-72309008D02*
X42332351Y-72404246D01*
X42332351Y-72404246D02*
X42332351Y-72642341D01*
X42332351Y-72642341D02*
X42284732Y-72737579D01*
X42284732Y-72737579D02*
X42237113Y-72785199D01*
X42237113Y-72785199D02*
X42141875Y-72832818D01*
X42141875Y-72832818D02*
X41903780Y-72832818D01*
X41903780Y-72832818D02*
X41808542Y-72785199D01*
X41808542Y-72785199D02*
X41760923Y-72737579D01*
X42951399Y-71832818D02*
X43046637Y-71832818D01*
X43046637Y-71832818D02*
X43141875Y-71880437D01*
X43141875Y-71880437D02*
X43189494Y-71928056D01*
X43189494Y-71928056D02*
X43237113Y-72023294D01*
X43237113Y-72023294D02*
X43284732Y-72213770D01*
X43284732Y-72213770D02*
X43284732Y-72451865D01*
X43284732Y-72451865D02*
X43237113Y-72642341D01*
X43237113Y-72642341D02*
X43189494Y-72737579D01*
X43189494Y-72737579D02*
X43141875Y-72785199D01*
X43141875Y-72785199D02*
X43046637Y-72832818D01*
X43046637Y-72832818D02*
X42951399Y-72832818D01*
X42951399Y-72832818D02*
X42856161Y-72785199D01*
X42856161Y-72785199D02*
X42808542Y-72737579D01*
X42808542Y-72737579D02*
X42760923Y-72642341D01*
X42760923Y-72642341D02*
X42713304Y-72451865D01*
X42713304Y-72451865D02*
X42713304Y-72213770D01*
X42713304Y-72213770D02*
X42760923Y-72023294D01*
X42760923Y-72023294D02*
X42808542Y-71928056D01*
X42808542Y-71928056D02*
X42856161Y-71880437D01*
X42856161Y-71880437D02*
X42951399Y-71832818D01*
X43713304Y-72832818D02*
X43713304Y-71832818D01*
X43808542Y-72451865D02*
X44094256Y-72832818D01*
X44094256Y-72166151D02*
X43713304Y-72547103D01*
D12*
X42606161Y-71105148D02*
X42439495Y-70867053D01*
X42320447Y-71105148D02*
X42320447Y-70605148D01*
X42320447Y-70605148D02*
X42510923Y-70605148D01*
X42510923Y-70605148D02*
X42558542Y-70628958D01*
X42558542Y-70628958D02*
X42582352Y-70652767D01*
X42582352Y-70652767D02*
X42606161Y-70700386D01*
X42606161Y-70700386D02*
X42606161Y-70771815D01*
X42606161Y-70771815D02*
X42582352Y-70819434D01*
X42582352Y-70819434D02*
X42558542Y-70843243D01*
X42558542Y-70843243D02*
X42510923Y-70867053D01*
X42510923Y-70867053D02*
X42320447Y-70867053D01*
X43082352Y-71105148D02*
X42796638Y-71105148D01*
X42939495Y-71105148D02*
X42939495Y-70605148D01*
X42939495Y-70605148D02*
X42891876Y-70676577D01*
X42891876Y-70676577D02*
X42844257Y-70724196D01*
X42844257Y-70724196D02*
X42796638Y-70748005D01*
X43534732Y-70605148D02*
X43296637Y-70605148D01*
X43296637Y-70605148D02*
X43272828Y-70843243D01*
X43272828Y-70843243D02*
X43296637Y-70819434D01*
X43296637Y-70819434D02*
X43344256Y-70795624D01*
X43344256Y-70795624D02*
X43463304Y-70795624D01*
X43463304Y-70795624D02*
X43510923Y-70819434D01*
X43510923Y-70819434D02*
X43534732Y-70843243D01*
X43534732Y-70843243D02*
X43558542Y-70890862D01*
X43558542Y-70890862D02*
X43558542Y-71009910D01*
X43558542Y-71009910D02*
X43534732Y-71057529D01*
X43534732Y-71057529D02*
X43510923Y-71081339D01*
X43510923Y-71081339D02*
X43463304Y-71105148D01*
X43463304Y-71105148D02*
X43344256Y-71105148D01*
X43344256Y-71105148D02*
X43296637Y-71081339D01*
X43296637Y-71081339D02*
X43272828Y-71057529D01*
D11*
X56247232Y-58152819D02*
X55675804Y-58152819D01*
X55961518Y-58152819D02*
X55961518Y-57152819D01*
X55961518Y-57152819D02*
X55866280Y-57295676D01*
X55866280Y-57295676D02*
X55771042Y-57390914D01*
X55771042Y-57390914D02*
X55675804Y-57438533D01*
X56675804Y-57486152D02*
X56675804Y-58152819D01*
X56675804Y-57581390D02*
X56723423Y-57533771D01*
X56723423Y-57533771D02*
X56818661Y-57486152D01*
X56818661Y-57486152D02*
X56961518Y-57486152D01*
X56961518Y-57486152D02*
X57056756Y-57533771D01*
X57056756Y-57533771D02*
X57104375Y-57629009D01*
X57104375Y-57629009D02*
X57104375Y-58152819D01*
X57723423Y-57581390D02*
X57628185Y-57533771D01*
X57628185Y-57533771D02*
X57580566Y-57486152D01*
X57580566Y-57486152D02*
X57532947Y-57390914D01*
X57532947Y-57390914D02*
X57532947Y-57343295D01*
X57532947Y-57343295D02*
X57580566Y-57248057D01*
X57580566Y-57248057D02*
X57628185Y-57200438D01*
X57628185Y-57200438D02*
X57723423Y-57152819D01*
X57723423Y-57152819D02*
X57913899Y-57152819D01*
X57913899Y-57152819D02*
X58009137Y-57200438D01*
X58009137Y-57200438D02*
X58056756Y-57248057D01*
X58056756Y-57248057D02*
X58104375Y-57343295D01*
X58104375Y-57343295D02*
X58104375Y-57390914D01*
X58104375Y-57390914D02*
X58056756Y-57486152D01*
X58056756Y-57486152D02*
X58009137Y-57533771D01*
X58009137Y-57533771D02*
X57913899Y-57581390D01*
X57913899Y-57581390D02*
X57723423Y-57581390D01*
X57723423Y-57581390D02*
X57628185Y-57629009D01*
X57628185Y-57629009D02*
X57580566Y-57676628D01*
X57580566Y-57676628D02*
X57532947Y-57771866D01*
X57532947Y-57771866D02*
X57532947Y-57962342D01*
X57532947Y-57962342D02*
X57580566Y-58057580D01*
X57580566Y-58057580D02*
X57628185Y-58105200D01*
X57628185Y-58105200D02*
X57723423Y-58152819D01*
X57723423Y-58152819D02*
X57913899Y-58152819D01*
X57913899Y-58152819D02*
X58009137Y-58105200D01*
X58009137Y-58105200D02*
X58056756Y-58057580D01*
X58056756Y-58057580D02*
X58104375Y-57962342D01*
X58104375Y-57962342D02*
X58104375Y-57771866D01*
X58104375Y-57771866D02*
X58056756Y-57676628D01*
X58056756Y-57676628D02*
X58009137Y-57629009D01*
X58009137Y-57629009D02*
X57913899Y-57581390D01*
D12*
X56568661Y-59557529D02*
X56544852Y-59581339D01*
X56544852Y-59581339D02*
X56473423Y-59605148D01*
X56473423Y-59605148D02*
X56425804Y-59605148D01*
X56425804Y-59605148D02*
X56354376Y-59581339D01*
X56354376Y-59581339D02*
X56306757Y-59533719D01*
X56306757Y-59533719D02*
X56282947Y-59486100D01*
X56282947Y-59486100D02*
X56259138Y-59390862D01*
X56259138Y-59390862D02*
X56259138Y-59319434D01*
X56259138Y-59319434D02*
X56282947Y-59224196D01*
X56282947Y-59224196D02*
X56306757Y-59176577D01*
X56306757Y-59176577D02*
X56354376Y-59128958D01*
X56354376Y-59128958D02*
X56425804Y-59105148D01*
X56425804Y-59105148D02*
X56473423Y-59105148D01*
X56473423Y-59105148D02*
X56544852Y-59128958D01*
X56544852Y-59128958D02*
X56568661Y-59152767D01*
X57044852Y-59605148D02*
X56759138Y-59605148D01*
X56901995Y-59605148D02*
X56901995Y-59105148D01*
X56901995Y-59105148D02*
X56854376Y-59176577D01*
X56854376Y-59176577D02*
X56806757Y-59224196D01*
X56806757Y-59224196D02*
X56759138Y-59248005D01*
X57235328Y-59152767D02*
X57259137Y-59128958D01*
X57259137Y-59128958D02*
X57306756Y-59105148D01*
X57306756Y-59105148D02*
X57425804Y-59105148D01*
X57425804Y-59105148D02*
X57473423Y-59128958D01*
X57473423Y-59128958D02*
X57497232Y-59152767D01*
X57497232Y-59152767D02*
X57521042Y-59200386D01*
X57521042Y-59200386D02*
X57521042Y-59248005D01*
X57521042Y-59248005D02*
X57497232Y-59319434D01*
X57497232Y-59319434D02*
X57211518Y-59605148D01*
X57211518Y-59605148D02*
X57521042Y-59605148D01*
D11*
X44539861Y-36737579D02*
X44492242Y-36785199D01*
X44492242Y-36785199D02*
X44349385Y-36832818D01*
X44349385Y-36832818D02*
X44254147Y-36832818D01*
X44254147Y-36832818D02*
X44111290Y-36785199D01*
X44111290Y-36785199D02*
X44016052Y-36689960D01*
X44016052Y-36689960D02*
X43968433Y-36594722D01*
X43968433Y-36594722D02*
X43920814Y-36404246D01*
X43920814Y-36404246D02*
X43920814Y-36261389D01*
X43920814Y-36261389D02*
X43968433Y-36070913D01*
X43968433Y-36070913D02*
X44016052Y-35975675D01*
X44016052Y-35975675D02*
X44111290Y-35880437D01*
X44111290Y-35880437D02*
X44254147Y-35832818D01*
X44254147Y-35832818D02*
X44349385Y-35832818D01*
X44349385Y-35832818D02*
X44492242Y-35880437D01*
X44492242Y-35880437D02*
X44539861Y-35928056D01*
X44873195Y-35832818D02*
X45539861Y-35832818D01*
X45539861Y-35832818D02*
X45111290Y-36832818D01*
X74010923Y-25237579D02*
X73963304Y-25285199D01*
X73963304Y-25285199D02*
X73820447Y-25332818D01*
X73820447Y-25332818D02*
X73725209Y-25332818D01*
X73725209Y-25332818D02*
X73582352Y-25285199D01*
X73582352Y-25285199D02*
X73487114Y-25189960D01*
X73487114Y-25189960D02*
X73439495Y-25094722D01*
X73439495Y-25094722D02*
X73391876Y-24904246D01*
X73391876Y-24904246D02*
X73391876Y-24761389D01*
X73391876Y-24761389D02*
X73439495Y-24570913D01*
X73439495Y-24570913D02*
X73487114Y-24475675D01*
X73487114Y-24475675D02*
X73582352Y-24380437D01*
X73582352Y-24380437D02*
X73725209Y-24332818D01*
X73725209Y-24332818D02*
X73820447Y-24332818D01*
X73820447Y-24332818D02*
X73963304Y-24380437D01*
X73963304Y-24380437D02*
X74010923Y-24428056D01*
X74582352Y-24761389D02*
X74487114Y-24713770D01*
X74487114Y-24713770D02*
X74439495Y-24666151D01*
X74439495Y-24666151D02*
X74391876Y-24570913D01*
X74391876Y-24570913D02*
X74391876Y-24523294D01*
X74391876Y-24523294D02*
X74439495Y-24428056D01*
X74439495Y-24428056D02*
X74487114Y-24380437D01*
X74487114Y-24380437D02*
X74582352Y-24332818D01*
X74582352Y-24332818D02*
X74772828Y-24332818D01*
X74772828Y-24332818D02*
X74868066Y-24380437D01*
X74868066Y-24380437D02*
X74915685Y-24428056D01*
X74915685Y-24428056D02*
X74963304Y-24523294D01*
X74963304Y-24523294D02*
X74963304Y-24570913D01*
X74963304Y-24570913D02*
X74915685Y-24666151D01*
X74915685Y-24666151D02*
X74868066Y-24713770D01*
X74868066Y-24713770D02*
X74772828Y-24761389D01*
X74772828Y-24761389D02*
X74582352Y-24761389D01*
X74582352Y-24761389D02*
X74487114Y-24809008D01*
X74487114Y-24809008D02*
X74439495Y-24856627D01*
X74439495Y-24856627D02*
X74391876Y-24951865D01*
X74391876Y-24951865D02*
X74391876Y-25142341D01*
X74391876Y-25142341D02*
X74439495Y-25237579D01*
X74439495Y-25237579D02*
X74487114Y-25285199D01*
X74487114Y-25285199D02*
X74582352Y-25332818D01*
X74582352Y-25332818D02*
X74772828Y-25332818D01*
X74772828Y-25332818D02*
X74868066Y-25285199D01*
X74868066Y-25285199D02*
X74915685Y-25237579D01*
X74915685Y-25237579D02*
X74963304Y-25142341D01*
X74963304Y-25142341D02*
X74963304Y-24951865D01*
X74963304Y-24951865D02*
X74915685Y-24856627D01*
X74915685Y-24856627D02*
X74868066Y-24809008D01*
X74868066Y-24809008D02*
X74772828Y-24761389D01*
X44510923Y-25702579D02*
X44463304Y-25750199D01*
X44463304Y-25750199D02*
X44320447Y-25797818D01*
X44320447Y-25797818D02*
X44225209Y-25797818D01*
X44225209Y-25797818D02*
X44082352Y-25750199D01*
X44082352Y-25750199D02*
X43987114Y-25654960D01*
X43987114Y-25654960D02*
X43939495Y-25559722D01*
X43939495Y-25559722D02*
X43891876Y-25369246D01*
X43891876Y-25369246D02*
X43891876Y-25226389D01*
X43891876Y-25226389D02*
X43939495Y-25035913D01*
X43939495Y-25035913D02*
X43987114Y-24940675D01*
X43987114Y-24940675D02*
X44082352Y-24845437D01*
X44082352Y-24845437D02*
X44225209Y-24797818D01*
X44225209Y-24797818D02*
X44320447Y-24797818D01*
X44320447Y-24797818D02*
X44463304Y-24845437D01*
X44463304Y-24845437D02*
X44510923Y-24893056D01*
X45368066Y-24797818D02*
X45177590Y-24797818D01*
X45177590Y-24797818D02*
X45082352Y-24845437D01*
X45082352Y-24845437D02*
X45034733Y-24893056D01*
X45034733Y-24893056D02*
X44939495Y-25035913D01*
X44939495Y-25035913D02*
X44891876Y-25226389D01*
X44891876Y-25226389D02*
X44891876Y-25607341D01*
X44891876Y-25607341D02*
X44939495Y-25702579D01*
X44939495Y-25702579D02*
X44987114Y-25750199D01*
X44987114Y-25750199D02*
X45082352Y-25797818D01*
X45082352Y-25797818D02*
X45272828Y-25797818D01*
X45272828Y-25797818D02*
X45368066Y-25750199D01*
X45368066Y-25750199D02*
X45415685Y-25702579D01*
X45415685Y-25702579D02*
X45463304Y-25607341D01*
X45463304Y-25607341D02*
X45463304Y-25369246D01*
X45463304Y-25369246D02*
X45415685Y-25274008D01*
X45415685Y-25274008D02*
X45368066Y-25226389D01*
X45368066Y-25226389D02*
X45272828Y-25178770D01*
X45272828Y-25178770D02*
X45082352Y-25178770D01*
X45082352Y-25178770D02*
X44987114Y-25226389D01*
X44987114Y-25226389D02*
X44939495Y-25274008D01*
X44939495Y-25274008D02*
X44891876Y-25369246D01*
X83145523Y-67890819D02*
X82574095Y-67890819D01*
X82859809Y-67890819D02*
X82859809Y-66890819D01*
X82859809Y-66890819D02*
X82764571Y-67033676D01*
X82764571Y-67033676D02*
X82669333Y-67128914D01*
X82669333Y-67128914D02*
X82574095Y-67176533D01*
X83764571Y-66890819D02*
X83859809Y-66890819D01*
X83859809Y-66890819D02*
X83955047Y-66938438D01*
X83955047Y-66938438D02*
X84002666Y-66986057D01*
X84002666Y-66986057D02*
X84050285Y-67081295D01*
X84050285Y-67081295D02*
X84097904Y-67271771D01*
X84097904Y-67271771D02*
X84097904Y-67509866D01*
X84097904Y-67509866D02*
X84050285Y-67700342D01*
X84050285Y-67700342D02*
X84002666Y-67795580D01*
X84002666Y-67795580D02*
X83955047Y-67843200D01*
X83955047Y-67843200D02*
X83859809Y-67890819D01*
X83859809Y-67890819D02*
X83764571Y-67890819D01*
X83764571Y-67890819D02*
X83669333Y-67843200D01*
X83669333Y-67843200D02*
X83621714Y-67795580D01*
X83621714Y-67795580D02*
X83574095Y-67700342D01*
X83574095Y-67700342D02*
X83526476Y-67509866D01*
X83526476Y-67509866D02*
X83526476Y-67271771D01*
X83526476Y-67271771D02*
X83574095Y-67081295D01*
X83574095Y-67081295D02*
X83621714Y-66986057D01*
X83621714Y-66986057D02*
X83669333Y-66938438D01*
X83669333Y-66938438D02*
X83764571Y-66890819D01*
X85097904Y-67890819D02*
X84764571Y-67414628D01*
X84526476Y-67890819D02*
X84526476Y-66890819D01*
X84526476Y-66890819D02*
X84907428Y-66890819D01*
X84907428Y-66890819D02*
X85002666Y-66938438D01*
X85002666Y-66938438D02*
X85050285Y-66986057D01*
X85050285Y-66986057D02*
X85097904Y-67081295D01*
X85097904Y-67081295D02*
X85097904Y-67224152D01*
X85097904Y-67224152D02*
X85050285Y-67319390D01*
X85050285Y-67319390D02*
X85002666Y-67367009D01*
X85002666Y-67367009D02*
X84907428Y-67414628D01*
X84907428Y-67414628D02*
X84526476Y-67414628D01*
D12*
X83752666Y-66013149D02*
X83586000Y-65775054D01*
X83466952Y-66013149D02*
X83466952Y-65513149D01*
X83466952Y-65513149D02*
X83657428Y-65513149D01*
X83657428Y-65513149D02*
X83705047Y-65536959D01*
X83705047Y-65536959D02*
X83728857Y-65560768D01*
X83728857Y-65560768D02*
X83752666Y-65608387D01*
X83752666Y-65608387D02*
X83752666Y-65679816D01*
X83752666Y-65679816D02*
X83728857Y-65727435D01*
X83728857Y-65727435D02*
X83705047Y-65751244D01*
X83705047Y-65751244D02*
X83657428Y-65775054D01*
X83657428Y-65775054D02*
X83466952Y-65775054D01*
X84205047Y-65513149D02*
X83966952Y-65513149D01*
X83966952Y-65513149D02*
X83943143Y-65751244D01*
X83943143Y-65751244D02*
X83966952Y-65727435D01*
X83966952Y-65727435D02*
X84014571Y-65703625D01*
X84014571Y-65703625D02*
X84133619Y-65703625D01*
X84133619Y-65703625D02*
X84181238Y-65727435D01*
X84181238Y-65727435D02*
X84205047Y-65751244D01*
X84205047Y-65751244D02*
X84228857Y-65798863D01*
X84228857Y-65798863D02*
X84228857Y-65917911D01*
X84228857Y-65917911D02*
X84205047Y-65965530D01*
X84205047Y-65965530D02*
X84181238Y-65989340D01*
X84181238Y-65989340D02*
X84133619Y-66013149D01*
X84133619Y-66013149D02*
X84014571Y-66013149D01*
X84014571Y-66013149D02*
X83966952Y-65989340D01*
X83966952Y-65989340D02*
X83943143Y-65965530D01*
D11*
X111199613Y-74917579D02*
X111151994Y-74965199D01*
X111151994Y-74965199D02*
X111009137Y-75012818D01*
X111009137Y-75012818D02*
X110913899Y-75012818D01*
X110913899Y-75012818D02*
X110771042Y-74965199D01*
X110771042Y-74965199D02*
X110675804Y-74869960D01*
X110675804Y-74869960D02*
X110628185Y-74774722D01*
X110628185Y-74774722D02*
X110580566Y-74584246D01*
X110580566Y-74584246D02*
X110580566Y-74441389D01*
X110580566Y-74441389D02*
X110628185Y-74250913D01*
X110628185Y-74250913D02*
X110675804Y-74155675D01*
X110675804Y-74155675D02*
X110771042Y-74060437D01*
X110771042Y-74060437D02*
X110913899Y-74012818D01*
X110913899Y-74012818D02*
X111009137Y-74012818D01*
X111009137Y-74012818D02*
X111151994Y-74060437D01*
X111151994Y-74060437D02*
X111199613Y-74108056D01*
D12*
X110568661Y-73057529D02*
X110544852Y-73081339D01*
X110544852Y-73081339D02*
X110473423Y-73105148D01*
X110473423Y-73105148D02*
X110425804Y-73105148D01*
X110425804Y-73105148D02*
X110354376Y-73081339D01*
X110354376Y-73081339D02*
X110306757Y-73033719D01*
X110306757Y-73033719D02*
X110282947Y-72986100D01*
X110282947Y-72986100D02*
X110259138Y-72890862D01*
X110259138Y-72890862D02*
X110259138Y-72819434D01*
X110259138Y-72819434D02*
X110282947Y-72724196D01*
X110282947Y-72724196D02*
X110306757Y-72676577D01*
X110306757Y-72676577D02*
X110354376Y-72628958D01*
X110354376Y-72628958D02*
X110425804Y-72605148D01*
X110425804Y-72605148D02*
X110473423Y-72605148D01*
X110473423Y-72605148D02*
X110544852Y-72628958D01*
X110544852Y-72628958D02*
X110568661Y-72652767D01*
X111044852Y-73105148D02*
X110759138Y-73105148D01*
X110901995Y-73105148D02*
X110901995Y-72605148D01*
X110901995Y-72605148D02*
X110854376Y-72676577D01*
X110854376Y-72676577D02*
X110806757Y-72724196D01*
X110806757Y-72724196D02*
X110759138Y-72748005D01*
X111354375Y-72605148D02*
X111401994Y-72605148D01*
X111401994Y-72605148D02*
X111449613Y-72628958D01*
X111449613Y-72628958D02*
X111473423Y-72652767D01*
X111473423Y-72652767D02*
X111497232Y-72700386D01*
X111497232Y-72700386D02*
X111521042Y-72795624D01*
X111521042Y-72795624D02*
X111521042Y-72914672D01*
X111521042Y-72914672D02*
X111497232Y-73009910D01*
X111497232Y-73009910D02*
X111473423Y-73057529D01*
X111473423Y-73057529D02*
X111449613Y-73081339D01*
X111449613Y-73081339D02*
X111401994Y-73105148D01*
X111401994Y-73105148D02*
X111354375Y-73105148D01*
X111354375Y-73105148D02*
X111306756Y-73081339D01*
X111306756Y-73081339D02*
X111282947Y-73057529D01*
X111282947Y-73057529D02*
X111259137Y-73009910D01*
X111259137Y-73009910D02*
X111235328Y-72914672D01*
X111235328Y-72914672D02*
X111235328Y-72795624D01*
X111235328Y-72795624D02*
X111259137Y-72700386D01*
X111259137Y-72700386D02*
X111282947Y-72652767D01*
X111282947Y-72652767D02*
X111306756Y-72628958D01*
X111306756Y-72628958D02*
X111354375Y-72605148D01*
D10*
X99121815Y-40134433D02*
X98694183Y-39706802D01*
X98694183Y-39706802D02*
X99592209Y-38808776D01*
X99891551Y-40904169D02*
X99378393Y-40391012D01*
X99634972Y-40647591D02*
X100532998Y-39749565D01*
X100532998Y-39749565D02*
X100319182Y-39792328D01*
X100319182Y-39792328D02*
X100148129Y-39792328D01*
X100148129Y-39792328D02*
X100019840Y-39749565D01*
X109687827Y-70252317D02*
X109687827Y-68982317D01*
X111018304Y-70131364D02*
X110957828Y-70191841D01*
X110957828Y-70191841D02*
X110776399Y-70252317D01*
X110776399Y-70252317D02*
X110655447Y-70252317D01*
X110655447Y-70252317D02*
X110474018Y-70191841D01*
X110474018Y-70191841D02*
X110353066Y-70070888D01*
X110353066Y-70070888D02*
X110292589Y-69949936D01*
X110292589Y-69949936D02*
X110232113Y-69708031D01*
X110232113Y-69708031D02*
X110232113Y-69526602D01*
X110232113Y-69526602D02*
X110292589Y-69284698D01*
X110292589Y-69284698D02*
X110353066Y-69163745D01*
X110353066Y-69163745D02*
X110474018Y-69042793D01*
X110474018Y-69042793D02*
X110655447Y-68982317D01*
X110655447Y-68982317D02*
X110776399Y-68982317D01*
X110776399Y-68982317D02*
X110957828Y-69042793D01*
X110957828Y-69042793D02*
X111018304Y-69103269D01*
X111502113Y-69103269D02*
X111562589Y-69042793D01*
X111562589Y-69042793D02*
X111683542Y-68982317D01*
X111683542Y-68982317D02*
X111985923Y-68982317D01*
X111985923Y-68982317D02*
X112106875Y-69042793D01*
X112106875Y-69042793D02*
X112167351Y-69103269D01*
X112167351Y-69103269D02*
X112227828Y-69224221D01*
X112227828Y-69224221D02*
X112227828Y-69345174D01*
X112227828Y-69345174D02*
X112167351Y-69526602D01*
X112167351Y-69526602D02*
X111441637Y-70252317D01*
X111441637Y-70252317D02*
X112227828Y-70252317D01*
D11*
X61634761Y-57478819D02*
X61063333Y-57478819D01*
X61349047Y-57478819D02*
X61349047Y-56478819D01*
X61349047Y-56478819D02*
X61253809Y-56621676D01*
X61253809Y-56621676D02*
X61158571Y-56716914D01*
X61158571Y-56716914D02*
X61063333Y-56764533D01*
X62253809Y-56478819D02*
X62349047Y-56478819D01*
X62349047Y-56478819D02*
X62444285Y-56526438D01*
X62444285Y-56526438D02*
X62491904Y-56574057D01*
X62491904Y-56574057D02*
X62539523Y-56669295D01*
X62539523Y-56669295D02*
X62587142Y-56859771D01*
X62587142Y-56859771D02*
X62587142Y-57097866D01*
X62587142Y-57097866D02*
X62539523Y-57288342D01*
X62539523Y-57288342D02*
X62491904Y-57383580D01*
X62491904Y-57383580D02*
X62444285Y-57431200D01*
X62444285Y-57431200D02*
X62349047Y-57478819D01*
X62349047Y-57478819D02*
X62253809Y-57478819D01*
X62253809Y-57478819D02*
X62158571Y-57431200D01*
X62158571Y-57431200D02*
X62110952Y-57383580D01*
X62110952Y-57383580D02*
X62063333Y-57288342D01*
X62063333Y-57288342D02*
X62015714Y-57097866D01*
X62015714Y-57097866D02*
X62015714Y-56859771D01*
X62015714Y-56859771D02*
X62063333Y-56669295D01*
X62063333Y-56669295D02*
X62110952Y-56574057D01*
X62110952Y-56574057D02*
X62158571Y-56526438D01*
X62158571Y-56526438D02*
X62253809Y-56478819D01*
X63015714Y-57478819D02*
X63015714Y-56478819D01*
X63110952Y-57097866D02*
X63396666Y-57478819D01*
X63396666Y-56812152D02*
X63015714Y-57193104D01*
D12*
X61408571Y-58901149D02*
X61241905Y-58663054D01*
X61122857Y-58901149D02*
X61122857Y-58401149D01*
X61122857Y-58401149D02*
X61313333Y-58401149D01*
X61313333Y-58401149D02*
X61360952Y-58424959D01*
X61360952Y-58424959D02*
X61384762Y-58448768D01*
X61384762Y-58448768D02*
X61408571Y-58496387D01*
X61408571Y-58496387D02*
X61408571Y-58567816D01*
X61408571Y-58567816D02*
X61384762Y-58615435D01*
X61384762Y-58615435D02*
X61360952Y-58639244D01*
X61360952Y-58639244D02*
X61313333Y-58663054D01*
X61313333Y-58663054D02*
X61122857Y-58663054D01*
X61884762Y-58901149D02*
X61599048Y-58901149D01*
X61741905Y-58901149D02*
X61741905Y-58401149D01*
X61741905Y-58401149D02*
X61694286Y-58472578D01*
X61694286Y-58472578D02*
X61646667Y-58520197D01*
X61646667Y-58520197D02*
X61599048Y-58544006D01*
X62194285Y-58401149D02*
X62241904Y-58401149D01*
X62241904Y-58401149D02*
X62289523Y-58424959D01*
X62289523Y-58424959D02*
X62313333Y-58448768D01*
X62313333Y-58448768D02*
X62337142Y-58496387D01*
X62337142Y-58496387D02*
X62360952Y-58591625D01*
X62360952Y-58591625D02*
X62360952Y-58710673D01*
X62360952Y-58710673D02*
X62337142Y-58805911D01*
X62337142Y-58805911D02*
X62313333Y-58853530D01*
X62313333Y-58853530D02*
X62289523Y-58877340D01*
X62289523Y-58877340D02*
X62241904Y-58901149D01*
X62241904Y-58901149D02*
X62194285Y-58901149D01*
X62194285Y-58901149D02*
X62146666Y-58877340D01*
X62146666Y-58877340D02*
X62122857Y-58853530D01*
X62122857Y-58853530D02*
X62099047Y-58805911D01*
X62099047Y-58805911D02*
X62075238Y-58710673D01*
X62075238Y-58710673D02*
X62075238Y-58591625D01*
X62075238Y-58591625D02*
X62099047Y-58496387D01*
X62099047Y-58496387D02*
X62122857Y-58448768D01*
X62122857Y-58448768D02*
X62146666Y-58424959D01*
X62146666Y-58424959D02*
X62194285Y-58401149D01*
D11*
X135577409Y-51149903D02*
X135577409Y-50530856D01*
X135577409Y-50530856D02*
X135958361Y-50864189D01*
X135958361Y-50864189D02*
X135958361Y-50721332D01*
X135958361Y-50721332D02*
X136005980Y-50626094D01*
X136005980Y-50626094D02*
X136053599Y-50578475D01*
X136053599Y-50578475D02*
X136148837Y-50530856D01*
X136148837Y-50530856D02*
X136386932Y-50530856D01*
X136386932Y-50530856D02*
X136482170Y-50578475D01*
X136482170Y-50578475D02*
X136529790Y-50626094D01*
X136529790Y-50626094D02*
X136577409Y-50721332D01*
X136577409Y-50721332D02*
X136577409Y-51007046D01*
X136577409Y-51007046D02*
X136529790Y-51102284D01*
X136529790Y-51102284D02*
X136482170Y-51149903D01*
X135910742Y-49673713D02*
X136577409Y-49673713D01*
X135910742Y-50102284D02*
X136434551Y-50102284D01*
X136434551Y-50102284D02*
X136529790Y-50054665D01*
X136529790Y-50054665D02*
X136577409Y-49959427D01*
X136577409Y-49959427D02*
X136577409Y-49816570D01*
X136577409Y-49816570D02*
X136529790Y-49721332D01*
X136529790Y-49721332D02*
X136482170Y-49673713D01*
X135577409Y-49292760D02*
X135577409Y-48673713D01*
X135577409Y-48673713D02*
X135958361Y-49007046D01*
X135958361Y-49007046D02*
X135958361Y-48864189D01*
X135958361Y-48864189D02*
X136005980Y-48768951D01*
X136005980Y-48768951D02*
X136053599Y-48721332D01*
X136053599Y-48721332D02*
X136148837Y-48673713D01*
X136148837Y-48673713D02*
X136386932Y-48673713D01*
X136386932Y-48673713D02*
X136482170Y-48721332D01*
X136482170Y-48721332D02*
X136529790Y-48768951D01*
X136529790Y-48768951D02*
X136577409Y-48864189D01*
X136577409Y-48864189D02*
X136577409Y-49149903D01*
X136577409Y-49149903D02*
X136529790Y-49245141D01*
X136529790Y-49245141D02*
X136482170Y-49292760D01*
X131482170Y-48804665D02*
X131529790Y-48852284D01*
X131529790Y-48852284D02*
X131577409Y-48995141D01*
X131577409Y-48995141D02*
X131577409Y-49090379D01*
X131577409Y-49090379D02*
X131529790Y-49233236D01*
X131529790Y-49233236D02*
X131434551Y-49328474D01*
X131434551Y-49328474D02*
X131339313Y-49376093D01*
X131339313Y-49376093D02*
X131148837Y-49423712D01*
X131148837Y-49423712D02*
X131005980Y-49423712D01*
X131005980Y-49423712D02*
X130815504Y-49376093D01*
X130815504Y-49376093D02*
X130720266Y-49328474D01*
X130720266Y-49328474D02*
X130625028Y-49233236D01*
X130625028Y-49233236D02*
X130577409Y-49090379D01*
X130577409Y-49090379D02*
X130577409Y-48995141D01*
X130577409Y-48995141D02*
X130625028Y-48852284D01*
X130625028Y-48852284D02*
X130672647Y-48804665D01*
X130672647Y-48423712D02*
X130625028Y-48376093D01*
X130625028Y-48376093D02*
X130577409Y-48280855D01*
X130577409Y-48280855D02*
X130577409Y-48042760D01*
X130577409Y-48042760D02*
X130625028Y-47947522D01*
X130625028Y-47947522D02*
X130672647Y-47899903D01*
X130672647Y-47899903D02*
X130767885Y-47852284D01*
X130767885Y-47852284D02*
X130863123Y-47852284D01*
X130863123Y-47852284D02*
X131005980Y-47899903D01*
X131005980Y-47899903D02*
X131577409Y-48471331D01*
X131577409Y-48471331D02*
X131577409Y-47852284D01*
X74010923Y-36237579D02*
X73963304Y-36285199D01*
X73963304Y-36285199D02*
X73820447Y-36332818D01*
X73820447Y-36332818D02*
X73725209Y-36332818D01*
X73725209Y-36332818D02*
X73582352Y-36285199D01*
X73582352Y-36285199D02*
X73487114Y-36189960D01*
X73487114Y-36189960D02*
X73439495Y-36094722D01*
X73439495Y-36094722D02*
X73391876Y-35904246D01*
X73391876Y-35904246D02*
X73391876Y-35761389D01*
X73391876Y-35761389D02*
X73439495Y-35570913D01*
X73439495Y-35570913D02*
X73487114Y-35475675D01*
X73487114Y-35475675D02*
X73582352Y-35380437D01*
X73582352Y-35380437D02*
X73725209Y-35332818D01*
X73725209Y-35332818D02*
X73820447Y-35332818D01*
X73820447Y-35332818D02*
X73963304Y-35380437D01*
X73963304Y-35380437D02*
X74010923Y-35428056D01*
X74487114Y-36332818D02*
X74677590Y-36332818D01*
X74677590Y-36332818D02*
X74772828Y-36285199D01*
X74772828Y-36285199D02*
X74820447Y-36237579D01*
X74820447Y-36237579D02*
X74915685Y-36094722D01*
X74915685Y-36094722D02*
X74963304Y-35904246D01*
X74963304Y-35904246D02*
X74963304Y-35523294D01*
X74963304Y-35523294D02*
X74915685Y-35428056D01*
X74915685Y-35428056D02*
X74868066Y-35380437D01*
X74868066Y-35380437D02*
X74772828Y-35332818D01*
X74772828Y-35332818D02*
X74582352Y-35332818D01*
X74582352Y-35332818D02*
X74487114Y-35380437D01*
X74487114Y-35380437D02*
X74439495Y-35428056D01*
X74439495Y-35428056D02*
X74391876Y-35523294D01*
X74391876Y-35523294D02*
X74391876Y-35761389D01*
X74391876Y-35761389D02*
X74439495Y-35856627D01*
X74439495Y-35856627D02*
X74487114Y-35904246D01*
X74487114Y-35904246D02*
X74582352Y-35951865D01*
X74582352Y-35951865D02*
X74772828Y-35951865D01*
X74772828Y-35951865D02*
X74868066Y-35904246D01*
X74868066Y-35904246D02*
X74915685Y-35856627D01*
X74915685Y-35856627D02*
X74963304Y-35761389D01*
X81354819Y-62031428D02*
X81354819Y-62602856D01*
X81354819Y-62317142D02*
X80354819Y-62317142D01*
X80354819Y-62317142D02*
X80497676Y-62412380D01*
X80497676Y-62412380D02*
X80592914Y-62507618D01*
X80592914Y-62507618D02*
X80640533Y-62602856D01*
X80450057Y-61650475D02*
X80402438Y-61602856D01*
X80402438Y-61602856D02*
X80354819Y-61507618D01*
X80354819Y-61507618D02*
X80354819Y-61269523D01*
X80354819Y-61269523D02*
X80402438Y-61174285D01*
X80402438Y-61174285D02*
X80450057Y-61126666D01*
X80450057Y-61126666D02*
X80545295Y-61079047D01*
X80545295Y-61079047D02*
X80640533Y-61079047D01*
X80640533Y-61079047D02*
X80783390Y-61126666D01*
X80783390Y-61126666D02*
X81354819Y-61698094D01*
X81354819Y-61698094D02*
X81354819Y-61079047D01*
X81354819Y-60650475D02*
X80354819Y-60650475D01*
X80973866Y-60555237D02*
X81354819Y-60269523D01*
X80688152Y-60269523D02*
X81069104Y-60650475D01*
X80354819Y-59936189D02*
X80354819Y-59317142D01*
X80354819Y-59317142D02*
X80735771Y-59650475D01*
X80735771Y-59650475D02*
X80735771Y-59507618D01*
X80735771Y-59507618D02*
X80783390Y-59412380D01*
X80783390Y-59412380D02*
X80831009Y-59364761D01*
X80831009Y-59364761D02*
X80926247Y-59317142D01*
X80926247Y-59317142D02*
X81164342Y-59317142D01*
X81164342Y-59317142D02*
X81259580Y-59364761D01*
X81259580Y-59364761D02*
X81307200Y-59412380D01*
X81307200Y-59412380D02*
X81354819Y-59507618D01*
X81354819Y-59507618D02*
X81354819Y-59793332D01*
X81354819Y-59793332D02*
X81307200Y-59888570D01*
X81307200Y-59888570D02*
X81259580Y-59936189D01*
D12*
X82777149Y-61281428D02*
X82539054Y-61448094D01*
X82777149Y-61567142D02*
X82277149Y-61567142D01*
X82277149Y-61567142D02*
X82277149Y-61376666D01*
X82277149Y-61376666D02*
X82300959Y-61329047D01*
X82300959Y-61329047D02*
X82324768Y-61305237D01*
X82324768Y-61305237D02*
X82372387Y-61281428D01*
X82372387Y-61281428D02*
X82443816Y-61281428D01*
X82443816Y-61281428D02*
X82491435Y-61305237D01*
X82491435Y-61305237D02*
X82515244Y-61329047D01*
X82515244Y-61329047D02*
X82539054Y-61376666D01*
X82539054Y-61376666D02*
X82539054Y-61567142D01*
X82777149Y-60805237D02*
X82777149Y-61090951D01*
X82777149Y-60948094D02*
X82277149Y-60948094D01*
X82277149Y-60948094D02*
X82348578Y-60995713D01*
X82348578Y-60995713D02*
X82396197Y-61043332D01*
X82396197Y-61043332D02*
X82420006Y-61090951D01*
X82777149Y-60329047D02*
X82777149Y-60614761D01*
X82777149Y-60471904D02*
X82277149Y-60471904D01*
X82277149Y-60471904D02*
X82348578Y-60519523D01*
X82348578Y-60519523D02*
X82396197Y-60567142D01*
X82396197Y-60567142D02*
X82420006Y-60614761D01*
D10*
X71574318Y-63739762D02*
X70304318Y-63739762D01*
X71453365Y-62409285D02*
X71513842Y-62469761D01*
X71513842Y-62469761D02*
X71574318Y-62651190D01*
X71574318Y-62651190D02*
X71574318Y-62772142D01*
X71574318Y-62772142D02*
X71513842Y-62953571D01*
X71513842Y-62953571D02*
X71392889Y-63074523D01*
X71392889Y-63074523D02*
X71271937Y-63135000D01*
X71271937Y-63135000D02*
X71030032Y-63195476D01*
X71030032Y-63195476D02*
X70848603Y-63195476D01*
X70848603Y-63195476D02*
X70606699Y-63135000D01*
X70606699Y-63135000D02*
X70485746Y-63074523D01*
X70485746Y-63074523D02*
X70364794Y-62953571D01*
X70364794Y-62953571D02*
X70304318Y-62772142D01*
X70304318Y-62772142D02*
X70304318Y-62651190D01*
X70304318Y-62651190D02*
X70364794Y-62469761D01*
X70364794Y-62469761D02*
X70425270Y-62409285D01*
X71574318Y-61199761D02*
X71574318Y-61925476D01*
X71574318Y-61562619D02*
X70304318Y-61562619D01*
X70304318Y-61562619D02*
X70485746Y-61683571D01*
X70485746Y-61683571D02*
X70606699Y-61804523D01*
X70606699Y-61804523D02*
X70667175Y-61925476D01*
X75865923Y-68202317D02*
X75442589Y-67597555D01*
X75140208Y-68202317D02*
X75140208Y-66932317D01*
X75140208Y-66932317D02*
X75624018Y-66932317D01*
X75624018Y-66932317D02*
X75744970Y-66992793D01*
X75744970Y-66992793D02*
X75805447Y-67053269D01*
X75805447Y-67053269D02*
X75865923Y-67174221D01*
X75865923Y-67174221D02*
X75865923Y-67355650D01*
X75865923Y-67355650D02*
X75805447Y-67476602D01*
X75805447Y-67476602D02*
X75744970Y-67537079D01*
X75744970Y-67537079D02*
X75624018Y-67597555D01*
X75624018Y-67597555D02*
X75140208Y-67597555D01*
X76289256Y-66932317D02*
X77135923Y-66932317D01*
X77135923Y-66932317D02*
X76591637Y-68202317D01*
D11*
X32631333Y-60928056D02*
X32678952Y-60880437D01*
X32678952Y-60880437D02*
X32774190Y-60832818D01*
X32774190Y-60832818D02*
X33012285Y-60832818D01*
X33012285Y-60832818D02*
X33107523Y-60880437D01*
X33107523Y-60880437D02*
X33155142Y-60928056D01*
X33155142Y-60928056D02*
X33202761Y-61023294D01*
X33202761Y-61023294D02*
X33202761Y-61118532D01*
X33202761Y-61118532D02*
X33155142Y-61261389D01*
X33155142Y-61261389D02*
X32583714Y-61832818D01*
X32583714Y-61832818D02*
X33202761Y-61832818D01*
X33631333Y-61832818D02*
X33631333Y-60832818D01*
X33726571Y-61451865D02*
X34012285Y-61832818D01*
X34012285Y-61166151D02*
X33631333Y-61547103D01*
X34345619Y-60832818D02*
X35012285Y-60832818D01*
X35012285Y-60832818D02*
X34583714Y-61832818D01*
D12*
X33476571Y-63105148D02*
X33309905Y-62867053D01*
X33190857Y-63105148D02*
X33190857Y-62605148D01*
X33190857Y-62605148D02*
X33381333Y-62605148D01*
X33381333Y-62605148D02*
X33428952Y-62628958D01*
X33428952Y-62628958D02*
X33452762Y-62652767D01*
X33452762Y-62652767D02*
X33476571Y-62700386D01*
X33476571Y-62700386D02*
X33476571Y-62771815D01*
X33476571Y-62771815D02*
X33452762Y-62819434D01*
X33452762Y-62819434D02*
X33428952Y-62843243D01*
X33428952Y-62843243D02*
X33381333Y-62867053D01*
X33381333Y-62867053D02*
X33190857Y-62867053D01*
X33952762Y-63105148D02*
X33667048Y-63105148D01*
X33809905Y-63105148D02*
X33809905Y-62605148D01*
X33809905Y-62605148D02*
X33762286Y-62676577D01*
X33762286Y-62676577D02*
X33714667Y-62724196D01*
X33714667Y-62724196D02*
X33667048Y-62748005D01*
X34119428Y-62605148D02*
X34428952Y-62605148D01*
X34428952Y-62605148D02*
X34262285Y-62795624D01*
X34262285Y-62795624D02*
X34333714Y-62795624D01*
X34333714Y-62795624D02*
X34381333Y-62819434D01*
X34381333Y-62819434D02*
X34405142Y-62843243D01*
X34405142Y-62843243D02*
X34428952Y-62890862D01*
X34428952Y-62890862D02*
X34428952Y-63009910D01*
X34428952Y-63009910D02*
X34405142Y-63057529D01*
X34405142Y-63057529D02*
X34381333Y-63081339D01*
X34381333Y-63081339D02*
X34333714Y-63105148D01*
X34333714Y-63105148D02*
X34190857Y-63105148D01*
X34190857Y-63105148D02*
X34143238Y-63081339D01*
X34143238Y-63081339D02*
X34119428Y-63057529D01*
D11*
X133357409Y-30548712D02*
X134357409Y-30215379D01*
X134357409Y-30215379D02*
X133357409Y-29882046D01*
X134357409Y-29405855D02*
X134309790Y-29501093D01*
X134309790Y-29501093D02*
X134262170Y-29548712D01*
X134262170Y-29548712D02*
X134166932Y-29596331D01*
X134166932Y-29596331D02*
X133881218Y-29596331D01*
X133881218Y-29596331D02*
X133785980Y-29548712D01*
X133785980Y-29548712D02*
X133738361Y-29501093D01*
X133738361Y-29501093D02*
X133690742Y-29405855D01*
X133690742Y-29405855D02*
X133690742Y-29262998D01*
X133690742Y-29262998D02*
X133738361Y-29167760D01*
X133738361Y-29167760D02*
X133785980Y-29120141D01*
X133785980Y-29120141D02*
X133881218Y-29072522D01*
X133881218Y-29072522D02*
X134166932Y-29072522D01*
X134166932Y-29072522D02*
X134262170Y-29120141D01*
X134262170Y-29120141D02*
X134309790Y-29167760D01*
X134309790Y-29167760D02*
X134357409Y-29262998D01*
X134357409Y-29262998D02*
X134357409Y-29405855D01*
X130789256Y-29217818D02*
X130789256Y-29932103D01*
X130789256Y-29932103D02*
X130741637Y-30074960D01*
X130741637Y-30074960D02*
X130646399Y-30170199D01*
X130646399Y-30170199D02*
X130503542Y-30217818D01*
X130503542Y-30217818D02*
X130408304Y-30217818D01*
X131217828Y-29313056D02*
X131265447Y-29265437D01*
X131265447Y-29265437D02*
X131360685Y-29217818D01*
X131360685Y-29217818D02*
X131598780Y-29217818D01*
X131598780Y-29217818D02*
X131694018Y-29265437D01*
X131694018Y-29265437D02*
X131741637Y-29313056D01*
X131741637Y-29313056D02*
X131789256Y-29408294D01*
X131789256Y-29408294D02*
X131789256Y-29503532D01*
X131789256Y-29503532D02*
X131741637Y-29646389D01*
X131741637Y-29646389D02*
X131170209Y-30217818D01*
X131170209Y-30217818D02*
X131789256Y-30217818D01*
D10*
X90056637Y-71304269D02*
X89935685Y-71243793D01*
X89935685Y-71243793D02*
X89814732Y-71122841D01*
X89814732Y-71122841D02*
X89633304Y-70941412D01*
X89633304Y-70941412D02*
X89512351Y-70880936D01*
X89512351Y-70880936D02*
X89391399Y-70880936D01*
X89451875Y-71183317D02*
X89330923Y-71122841D01*
X89330923Y-71122841D02*
X89209970Y-71001888D01*
X89209970Y-71001888D02*
X89149494Y-70759983D01*
X89149494Y-70759983D02*
X89149494Y-70336650D01*
X89149494Y-70336650D02*
X89209970Y-70094745D01*
X89209970Y-70094745D02*
X89330923Y-69973793D01*
X89330923Y-69973793D02*
X89451875Y-69913317D01*
X89451875Y-69913317D02*
X89693780Y-69913317D01*
X89693780Y-69913317D02*
X89814732Y-69973793D01*
X89814732Y-69973793D02*
X89935685Y-70094745D01*
X89935685Y-70094745D02*
X89996161Y-70336650D01*
X89996161Y-70336650D02*
X89996161Y-70759983D01*
X89996161Y-70759983D02*
X89935685Y-71001888D01*
X89935685Y-71001888D02*
X89814732Y-71122841D01*
X89814732Y-71122841D02*
X89693780Y-71183317D01*
X89693780Y-71183317D02*
X89451875Y-71183317D01*
X91205685Y-71183317D02*
X90479970Y-71183317D01*
X90842827Y-71183317D02*
X90842827Y-69913317D01*
X90842827Y-69913317D02*
X90721875Y-70094745D01*
X90721875Y-70094745D02*
X90600923Y-70215698D01*
X90600923Y-70215698D02*
X90479970Y-70276174D01*
D11*
X42939495Y-53047817D02*
X43558542Y-53047817D01*
X43558542Y-53047817D02*
X43225209Y-53428769D01*
X43225209Y-53428769D02*
X43368066Y-53428769D01*
X43368066Y-53428769D02*
X43463304Y-53476388D01*
X43463304Y-53476388D02*
X43510923Y-53524007D01*
X43510923Y-53524007D02*
X43558542Y-53619245D01*
X43558542Y-53619245D02*
X43558542Y-53857340D01*
X43558542Y-53857340D02*
X43510923Y-53952578D01*
X43510923Y-53952578D02*
X43463304Y-54000198D01*
X43463304Y-54000198D02*
X43368066Y-54047817D01*
X43368066Y-54047817D02*
X43082352Y-54047817D01*
X43082352Y-54047817D02*
X42987114Y-54000198D01*
X42987114Y-54000198D02*
X42939495Y-53952578D01*
X44034733Y-54047817D02*
X44225209Y-54047817D01*
X44225209Y-54047817D02*
X44320447Y-54000198D01*
X44320447Y-54000198D02*
X44368066Y-53952578D01*
X44368066Y-53952578D02*
X44463304Y-53809721D01*
X44463304Y-53809721D02*
X44510923Y-53619245D01*
X44510923Y-53619245D02*
X44510923Y-53238293D01*
X44510923Y-53238293D02*
X44463304Y-53143055D01*
X44463304Y-53143055D02*
X44415685Y-53095436D01*
X44415685Y-53095436D02*
X44320447Y-53047817D01*
X44320447Y-53047817D02*
X44129971Y-53047817D01*
X44129971Y-53047817D02*
X44034733Y-53095436D01*
X44034733Y-53095436D02*
X43987114Y-53143055D01*
X43987114Y-53143055D02*
X43939495Y-53238293D01*
X43939495Y-53238293D02*
X43939495Y-53476388D01*
X43939495Y-53476388D02*
X43987114Y-53571626D01*
X43987114Y-53571626D02*
X44034733Y-53619245D01*
X44034733Y-53619245D02*
X44129971Y-53666864D01*
X44129971Y-53666864D02*
X44320447Y-53666864D01*
X44320447Y-53666864D02*
X44415685Y-53619245D01*
X44415685Y-53619245D02*
X44463304Y-53571626D01*
X44463304Y-53571626D02*
X44510923Y-53476388D01*
X45129971Y-53047817D02*
X45225209Y-53047817D01*
X45225209Y-53047817D02*
X45320447Y-53095436D01*
X45320447Y-53095436D02*
X45368066Y-53143055D01*
X45368066Y-53143055D02*
X45415685Y-53238293D01*
X45415685Y-53238293D02*
X45463304Y-53428769D01*
X45463304Y-53428769D02*
X45463304Y-53666864D01*
X45463304Y-53666864D02*
X45415685Y-53857340D01*
X45415685Y-53857340D02*
X45368066Y-53952578D01*
X45368066Y-53952578D02*
X45320447Y-54000198D01*
X45320447Y-54000198D02*
X45225209Y-54047817D01*
X45225209Y-54047817D02*
X45129971Y-54047817D01*
X45129971Y-54047817D02*
X45034733Y-54000198D01*
X45034733Y-54000198D02*
X44987114Y-53952578D01*
X44987114Y-53952578D02*
X44939495Y-53857340D01*
X44939495Y-53857340D02*
X44891876Y-53666864D01*
X44891876Y-53666864D02*
X44891876Y-53428769D01*
X44891876Y-53428769D02*
X44939495Y-53238293D01*
X44939495Y-53238293D02*
X44987114Y-53143055D01*
X44987114Y-53143055D02*
X45034733Y-53095436D01*
X45034733Y-53095436D02*
X45129971Y-53047817D01*
X46320447Y-53381150D02*
X46320447Y-54047817D01*
X45891876Y-53381150D02*
X45891876Y-53904959D01*
X45891876Y-53904959D02*
X45939495Y-54000198D01*
X45939495Y-54000198D02*
X46034733Y-54047817D01*
X46034733Y-54047817D02*
X46177590Y-54047817D01*
X46177590Y-54047817D02*
X46272828Y-54000198D01*
X46272828Y-54000198D02*
X46320447Y-53952578D01*
X44510923Y-47702579D02*
X44463304Y-47750199D01*
X44463304Y-47750199D02*
X44320447Y-47797818D01*
X44320447Y-47797818D02*
X44225209Y-47797818D01*
X44225209Y-47797818D02*
X44082352Y-47750199D01*
X44082352Y-47750199D02*
X43987114Y-47654960D01*
X43987114Y-47654960D02*
X43939495Y-47559722D01*
X43939495Y-47559722D02*
X43891876Y-47369246D01*
X43891876Y-47369246D02*
X43891876Y-47226389D01*
X43891876Y-47226389D02*
X43939495Y-47035913D01*
X43939495Y-47035913D02*
X43987114Y-46940675D01*
X43987114Y-46940675D02*
X44082352Y-46845437D01*
X44082352Y-46845437D02*
X44225209Y-46797818D01*
X44225209Y-46797818D02*
X44320447Y-46797818D01*
X44320447Y-46797818D02*
X44463304Y-46845437D01*
X44463304Y-46845437D02*
X44510923Y-46893056D01*
X45368066Y-47131151D02*
X45368066Y-47797818D01*
X45129971Y-46750199D02*
X44891876Y-47464484D01*
X44891876Y-47464484D02*
X45510923Y-47464484D01*
X38249018Y-56916151D02*
X38249018Y-57582818D01*
X38010923Y-56535199D02*
X37772828Y-57249484D01*
X37772828Y-57249484D02*
X38391875Y-57249484D01*
X39201399Y-56916151D02*
X39201399Y-57582818D01*
X38963304Y-56535199D02*
X38725209Y-57249484D01*
X38725209Y-57249484D02*
X39344256Y-57249484D01*
X40201399Y-56582818D02*
X39725209Y-56582818D01*
X39725209Y-56582818D02*
X39677590Y-57059008D01*
X39677590Y-57059008D02*
X39725209Y-57011389D01*
X39725209Y-57011389D02*
X39820447Y-56963770D01*
X39820447Y-56963770D02*
X40058542Y-56963770D01*
X40058542Y-56963770D02*
X40153780Y-57011389D01*
X40153780Y-57011389D02*
X40201399Y-57059008D01*
X40201399Y-57059008D02*
X40249018Y-57154246D01*
X40249018Y-57154246D02*
X40249018Y-57392341D01*
X40249018Y-57392341D02*
X40201399Y-57487579D01*
X40201399Y-57487579D02*
X40153780Y-57535199D01*
X40153780Y-57535199D02*
X40058542Y-57582818D01*
X40058542Y-57582818D02*
X39820447Y-57582818D01*
X39820447Y-57582818D02*
X39725209Y-57535199D01*
X39725209Y-57535199D02*
X39677590Y-57487579D01*
X40677590Y-57582818D02*
X40677590Y-56916151D01*
X40677590Y-57011389D02*
X40725209Y-56963770D01*
X40725209Y-56963770D02*
X40820447Y-56916151D01*
X40820447Y-56916151D02*
X40963304Y-56916151D01*
X40963304Y-56916151D02*
X41058542Y-56963770D01*
X41058542Y-56963770D02*
X41106161Y-57059008D01*
X41106161Y-57059008D02*
X41106161Y-57582818D01*
X41106161Y-57059008D02*
X41153780Y-56963770D01*
X41153780Y-56963770D02*
X41249018Y-56916151D01*
X41249018Y-56916151D02*
X41391875Y-56916151D01*
X41391875Y-56916151D02*
X41487114Y-56963770D01*
X41487114Y-56963770D02*
X41534733Y-57059008D01*
X41534733Y-57059008D02*
X41534733Y-57582818D01*
D12*
X39559256Y-55605148D02*
X39392590Y-55367053D01*
X39273542Y-55605148D02*
X39273542Y-55105148D01*
X39273542Y-55105148D02*
X39464018Y-55105148D01*
X39464018Y-55105148D02*
X39511637Y-55128958D01*
X39511637Y-55128958D02*
X39535447Y-55152767D01*
X39535447Y-55152767D02*
X39559256Y-55200386D01*
X39559256Y-55200386D02*
X39559256Y-55271815D01*
X39559256Y-55271815D02*
X39535447Y-55319434D01*
X39535447Y-55319434D02*
X39511637Y-55343243D01*
X39511637Y-55343243D02*
X39464018Y-55367053D01*
X39464018Y-55367053D02*
X39273542Y-55367053D01*
X40035447Y-55605148D02*
X39749733Y-55605148D01*
X39892590Y-55605148D02*
X39892590Y-55105148D01*
X39892590Y-55105148D02*
X39844971Y-55176577D01*
X39844971Y-55176577D02*
X39797352Y-55224196D01*
X39797352Y-55224196D02*
X39749733Y-55248005D01*
D11*
X120356817Y-55946151D02*
X120356817Y-56612818D01*
X120118722Y-55565199D02*
X119880627Y-56279484D01*
X119880627Y-56279484D02*
X120499674Y-56279484D01*
X120785389Y-55612818D02*
X121452055Y-55612818D01*
X121452055Y-55612818D02*
X121023484Y-56612818D01*
X122261579Y-55946151D02*
X122261579Y-56612818D01*
X121833008Y-55946151D02*
X121833008Y-56469960D01*
X121833008Y-56469960D02*
X121880627Y-56565199D01*
X121880627Y-56565199D02*
X121975865Y-56612818D01*
X121975865Y-56612818D02*
X122118722Y-56612818D01*
X122118722Y-56612818D02*
X122213960Y-56565199D01*
X122213960Y-56565199D02*
X122261579Y-56517579D01*
X120928246Y-50267579D02*
X120880627Y-50315199D01*
X120880627Y-50315199D02*
X120737770Y-50362818D01*
X120737770Y-50362818D02*
X120642532Y-50362818D01*
X120642532Y-50362818D02*
X120499675Y-50315199D01*
X120499675Y-50315199D02*
X120404437Y-50219960D01*
X120404437Y-50219960D02*
X120356818Y-50124722D01*
X120356818Y-50124722D02*
X120309199Y-49934246D01*
X120309199Y-49934246D02*
X120309199Y-49791389D01*
X120309199Y-49791389D02*
X120356818Y-49600913D01*
X120356818Y-49600913D02*
X120404437Y-49505675D01*
X120404437Y-49505675D02*
X120499675Y-49410437D01*
X120499675Y-49410437D02*
X120642532Y-49362818D01*
X120642532Y-49362818D02*
X120737770Y-49362818D01*
X120737770Y-49362818D02*
X120880627Y-49410437D01*
X120880627Y-49410437D02*
X120928246Y-49458056D01*
X121261580Y-49362818D02*
X121880627Y-49362818D01*
X121880627Y-49362818D02*
X121547294Y-49743770D01*
X121547294Y-49743770D02*
X121690151Y-49743770D01*
X121690151Y-49743770D02*
X121785389Y-49791389D01*
X121785389Y-49791389D02*
X121833008Y-49839008D01*
X121833008Y-49839008D02*
X121880627Y-49934246D01*
X121880627Y-49934246D02*
X121880627Y-50172341D01*
X121880627Y-50172341D02*
X121833008Y-50267579D01*
X121833008Y-50267579D02*
X121785389Y-50315199D01*
X121785389Y-50315199D02*
X121690151Y-50362818D01*
X121690151Y-50362818D02*
X121404437Y-50362818D01*
X121404437Y-50362818D02*
X121309199Y-50315199D01*
X121309199Y-50315199D02*
X121261580Y-50267579D01*
D10*
X122081908Y-68791093D02*
X123351908Y-68367760D01*
X123351908Y-68367760D02*
X122081908Y-67944426D01*
X123351908Y-66795379D02*
X122747146Y-67218713D01*
X123351908Y-67521094D02*
X122081908Y-67521094D01*
X122081908Y-67521094D02*
X122081908Y-67037284D01*
X122081908Y-67037284D02*
X122142384Y-66916332D01*
X122142384Y-66916332D02*
X122202860Y-66855855D01*
X122202860Y-66855855D02*
X122323812Y-66795379D01*
X122323812Y-66795379D02*
X122505241Y-66795379D01*
X122505241Y-66795379D02*
X122626193Y-66855855D01*
X122626193Y-66855855D02*
X122686670Y-66916332D01*
X122686670Y-66916332D02*
X122747146Y-67037284D01*
X122747146Y-67037284D02*
X122747146Y-67521094D01*
X123351908Y-65585855D02*
X123351908Y-66311570D01*
X123351908Y-65948713D02*
X122081908Y-65948713D01*
X122081908Y-65948713D02*
X122263336Y-66069665D01*
X122263336Y-66069665D02*
X122384289Y-66190617D01*
X122384289Y-66190617D02*
X122444765Y-66311570D01*
D11*
X53632409Y-37497046D02*
X53632409Y-38068474D01*
X53632409Y-37782760D02*
X52632409Y-37782760D01*
X52632409Y-37782760D02*
X52775266Y-37877998D01*
X52775266Y-37877998D02*
X52870504Y-37973236D01*
X52870504Y-37973236D02*
X52918123Y-38068474D01*
X52727647Y-37116093D02*
X52680028Y-37068474D01*
X52680028Y-37068474D02*
X52632409Y-36973236D01*
X52632409Y-36973236D02*
X52632409Y-36735141D01*
X52632409Y-36735141D02*
X52680028Y-36639903D01*
X52680028Y-36639903D02*
X52727647Y-36592284D01*
X52727647Y-36592284D02*
X52822885Y-36544665D01*
X52822885Y-36544665D02*
X52918123Y-36544665D01*
X52918123Y-36544665D02*
X53060980Y-36592284D01*
X53060980Y-36592284D02*
X53632409Y-37163712D01*
X53632409Y-37163712D02*
X53632409Y-36544665D01*
X52632409Y-36211331D02*
X52632409Y-35592284D01*
X52632409Y-35592284D02*
X53013361Y-35925617D01*
X53013361Y-35925617D02*
X53013361Y-35782760D01*
X53013361Y-35782760D02*
X53060980Y-35687522D01*
X53060980Y-35687522D02*
X53108599Y-35639903D01*
X53108599Y-35639903D02*
X53203837Y-35592284D01*
X53203837Y-35592284D02*
X53441932Y-35592284D01*
X53441932Y-35592284D02*
X53537170Y-35639903D01*
X53537170Y-35639903D02*
X53584790Y-35687522D01*
X53584790Y-35687522D02*
X53632409Y-35782760D01*
X53632409Y-35782760D02*
X53632409Y-36068474D01*
X53632409Y-36068474D02*
X53584790Y-36163712D01*
X53584790Y-36163712D02*
X53537170Y-36211331D01*
X52965742Y-34735141D02*
X53632409Y-34735141D01*
X52965742Y-35163712D02*
X53489551Y-35163712D01*
X53489551Y-35163712D02*
X53584790Y-35116093D01*
X53584790Y-35116093D02*
X53632409Y-35020855D01*
X53632409Y-35020855D02*
X53632409Y-34877998D01*
X53632409Y-34877998D02*
X53584790Y-34782760D01*
X53584790Y-34782760D02*
X53537170Y-34735141D01*
X59632409Y-36544665D02*
X59632409Y-37020855D01*
X59632409Y-37020855D02*
X58632409Y-37020855D01*
X58632409Y-36306569D02*
X58632409Y-35687522D01*
X58632409Y-35687522D02*
X59013361Y-36020855D01*
X59013361Y-36020855D02*
X59013361Y-35877998D01*
X59013361Y-35877998D02*
X59060980Y-35782760D01*
X59060980Y-35782760D02*
X59108599Y-35735141D01*
X59108599Y-35735141D02*
X59203837Y-35687522D01*
X59203837Y-35687522D02*
X59441932Y-35687522D01*
X59441932Y-35687522D02*
X59537170Y-35735141D01*
X59537170Y-35735141D02*
X59584790Y-35782760D01*
X59584790Y-35782760D02*
X59632409Y-35877998D01*
X59632409Y-35877998D02*
X59632409Y-36163712D01*
X59632409Y-36163712D02*
X59584790Y-36258950D01*
X59584790Y-36258950D02*
X59537170Y-36306569D01*
X20852409Y-65901807D02*
X21852409Y-65568474D01*
X21852409Y-65568474D02*
X20852409Y-65235141D01*
X21852409Y-64901807D02*
X21185742Y-64901807D01*
X20852409Y-64901807D02*
X20900028Y-64949426D01*
X20900028Y-64949426D02*
X20947647Y-64901807D01*
X20947647Y-64901807D02*
X20900028Y-64854188D01*
X20900028Y-64854188D02*
X20852409Y-64901807D01*
X20852409Y-64901807D02*
X20947647Y-64901807D01*
X21185742Y-64425617D02*
X21852409Y-64425617D01*
X21280980Y-64425617D02*
X21233361Y-64377998D01*
X21233361Y-64377998D02*
X21185742Y-64282760D01*
X21185742Y-64282760D02*
X21185742Y-64139903D01*
X21185742Y-64139903D02*
X21233361Y-64044665D01*
X21233361Y-64044665D02*
X21328599Y-63997046D01*
X21328599Y-63997046D02*
X21852409Y-63997046D01*
X73832351Y-60332818D02*
X73260923Y-60332818D01*
X73546637Y-60332818D02*
X73546637Y-59332818D01*
X73546637Y-59332818D02*
X73451399Y-59475675D01*
X73451399Y-59475675D02*
X73356161Y-59570913D01*
X73356161Y-59570913D02*
X73260923Y-59618532D01*
X74784732Y-60332818D02*
X74213304Y-60332818D01*
X74499018Y-60332818D02*
X74499018Y-59332818D01*
X74499018Y-59332818D02*
X74403780Y-59475675D01*
X74403780Y-59475675D02*
X74308542Y-59570913D01*
X74308542Y-59570913D02*
X74213304Y-59618532D01*
X75118066Y-59332818D02*
X75784732Y-59332818D01*
X75784732Y-59332818D02*
X75356161Y-60332818D01*
X76356161Y-59332818D02*
X76451399Y-59332818D01*
X76451399Y-59332818D02*
X76546637Y-59380437D01*
X76546637Y-59380437D02*
X76594256Y-59428056D01*
X76594256Y-59428056D02*
X76641875Y-59523294D01*
X76641875Y-59523294D02*
X76689494Y-59713770D01*
X76689494Y-59713770D02*
X76689494Y-59951865D01*
X76689494Y-59951865D02*
X76641875Y-60142341D01*
X76641875Y-60142341D02*
X76594256Y-60237579D01*
X76594256Y-60237579D02*
X76546637Y-60285199D01*
X76546637Y-60285199D02*
X76451399Y-60332818D01*
X76451399Y-60332818D02*
X76356161Y-60332818D01*
X76356161Y-60332818D02*
X76260923Y-60285199D01*
X76260923Y-60285199D02*
X76213304Y-60237579D01*
X76213304Y-60237579D02*
X76165685Y-60142341D01*
X76165685Y-60142341D02*
X76118066Y-59951865D01*
X76118066Y-59951865D02*
X76118066Y-59713770D01*
X76118066Y-59713770D02*
X76165685Y-59523294D01*
X76165685Y-59523294D02*
X76213304Y-59428056D01*
X76213304Y-59428056D02*
X76260923Y-59380437D01*
X76260923Y-59380437D02*
X76356161Y-59332818D01*
X77546637Y-59666151D02*
X77546637Y-60332818D01*
X77118066Y-59666151D02*
X77118066Y-60189960D01*
X77118066Y-60189960D02*
X77165685Y-60285199D01*
X77165685Y-60285199D02*
X77260923Y-60332818D01*
X77260923Y-60332818D02*
X77403780Y-60332818D01*
X77403780Y-60332818D02*
X77499018Y-60285199D01*
X77499018Y-60285199D02*
X77546637Y-60237579D01*
X75260923Y-50987579D02*
X75213304Y-51035199D01*
X75213304Y-51035199D02*
X75070447Y-51082818D01*
X75070447Y-51082818D02*
X74975209Y-51082818D01*
X74975209Y-51082818D02*
X74832352Y-51035199D01*
X74832352Y-51035199D02*
X74737114Y-50939960D01*
X74737114Y-50939960D02*
X74689495Y-50844722D01*
X74689495Y-50844722D02*
X74641876Y-50654246D01*
X74641876Y-50654246D02*
X74641876Y-50511389D01*
X74641876Y-50511389D02*
X74689495Y-50320913D01*
X74689495Y-50320913D02*
X74737114Y-50225675D01*
X74737114Y-50225675D02*
X74832352Y-50130437D01*
X74832352Y-50130437D02*
X74975209Y-50082818D01*
X74975209Y-50082818D02*
X75070447Y-50082818D01*
X75070447Y-50082818D02*
X75213304Y-50130437D01*
X75213304Y-50130437D02*
X75260923Y-50178056D01*
X76165685Y-50082818D02*
X75689495Y-50082818D01*
X75689495Y-50082818D02*
X75641876Y-50559008D01*
X75641876Y-50559008D02*
X75689495Y-50511389D01*
X75689495Y-50511389D02*
X75784733Y-50463770D01*
X75784733Y-50463770D02*
X76022828Y-50463770D01*
X76022828Y-50463770D02*
X76118066Y-50511389D01*
X76118066Y-50511389D02*
X76165685Y-50559008D01*
X76165685Y-50559008D02*
X76213304Y-50654246D01*
X76213304Y-50654246D02*
X76213304Y-50892341D01*
X76213304Y-50892341D02*
X76165685Y-50987579D01*
X76165685Y-50987579D02*
X76118066Y-51035199D01*
X76118066Y-51035199D02*
X76022828Y-51082818D01*
X76022828Y-51082818D02*
X75784733Y-51082818D01*
X75784733Y-51082818D02*
X75689495Y-51035199D01*
X75689495Y-51035199D02*
X75641876Y-50987579D01*
X33665685Y-57466151D02*
X33665685Y-58132818D01*
X33237114Y-57466151D02*
X33237114Y-57989960D01*
X33237114Y-57989960D02*
X33284733Y-58085199D01*
X33284733Y-58085199D02*
X33379971Y-58132818D01*
X33379971Y-58132818D02*
X33522828Y-58132818D01*
X33522828Y-58132818D02*
X33618066Y-58085199D01*
X33618066Y-58085199D02*
X33665685Y-58037579D01*
X34665685Y-58132818D02*
X34094257Y-58132818D01*
X34379971Y-58132818D02*
X34379971Y-57132818D01*
X34379971Y-57132818D02*
X34284733Y-57275675D01*
X34284733Y-57275675D02*
X34189495Y-57370913D01*
X34189495Y-57370913D02*
X34094257Y-57418532D01*
D12*
X33568661Y-59217528D02*
X33544852Y-59241338D01*
X33544852Y-59241338D02*
X33473423Y-59265147D01*
X33473423Y-59265147D02*
X33425804Y-59265147D01*
X33425804Y-59265147D02*
X33354376Y-59241338D01*
X33354376Y-59241338D02*
X33306757Y-59193718D01*
X33306757Y-59193718D02*
X33282947Y-59146099D01*
X33282947Y-59146099D02*
X33259138Y-59050861D01*
X33259138Y-59050861D02*
X33259138Y-58979433D01*
X33259138Y-58979433D02*
X33282947Y-58884195D01*
X33282947Y-58884195D02*
X33306757Y-58836576D01*
X33306757Y-58836576D02*
X33354376Y-58788957D01*
X33354376Y-58788957D02*
X33425804Y-58765147D01*
X33425804Y-58765147D02*
X33473423Y-58765147D01*
X33473423Y-58765147D02*
X33544852Y-58788957D01*
X33544852Y-58788957D02*
X33568661Y-58812766D01*
X34044852Y-59265147D02*
X33759138Y-59265147D01*
X33901995Y-59265147D02*
X33901995Y-58765147D01*
X33901995Y-58765147D02*
X33854376Y-58836576D01*
X33854376Y-58836576D02*
X33806757Y-58884195D01*
X33806757Y-58884195D02*
X33759138Y-58908004D01*
X34497232Y-58765147D02*
X34259137Y-58765147D01*
X34259137Y-58765147D02*
X34235328Y-59003242D01*
X34235328Y-59003242D02*
X34259137Y-58979433D01*
X34259137Y-58979433D02*
X34306756Y-58955623D01*
X34306756Y-58955623D02*
X34425804Y-58955623D01*
X34425804Y-58955623D02*
X34473423Y-58979433D01*
X34473423Y-58979433D02*
X34497232Y-59003242D01*
X34497232Y-59003242D02*
X34521042Y-59050861D01*
X34521042Y-59050861D02*
X34521042Y-59169909D01*
X34521042Y-59169909D02*
X34497232Y-59217528D01*
X34497232Y-59217528D02*
X34473423Y-59241338D01*
X34473423Y-59241338D02*
X34425804Y-59265147D01*
X34425804Y-59265147D02*
X34306756Y-59265147D01*
X34306756Y-59265147D02*
X34259137Y-59241338D01*
X34259137Y-59241338D02*
X34235328Y-59217528D01*
D13*
%TO.C,R6*%
X59147590Y-66637999D02*
X70707590Y-66637999D01*
X59147590Y-73617999D02*
X59147590Y-66637999D01*
X70707590Y-66637999D02*
X70707590Y-73617999D01*
X70707590Y-73617999D02*
X59147590Y-73617999D01*
%TO.C,R2*%
X116052590Y-67377999D02*
X114802590Y-67377999D01*
X114802590Y-65377999D01*
X116052590Y-65377999D01*
X116052590Y-67377999D01*
%TO.C,L4*%
X29677590Y-17377999D02*
X29677590Y-21452998D01*
X29677590Y-55377999D02*
X29677590Y-51302999D01*
X36662590Y-51302999D02*
X22692590Y-51302999D01*
X22692591Y-21452999D01*
X36662589Y-21452999D01*
X36662590Y-51302999D01*
%TO.C,R12*%
X53052590Y-60627999D02*
X51802590Y-60627999D01*
X51802590Y-58627999D01*
X53052590Y-58627999D01*
X53052590Y-60627999D01*
%TO.C,IC4*%
X38477590Y-58427999D02*
X42377590Y-58427999D01*
X38477590Y-59697999D02*
X39747590Y-58427999D01*
X38477590Y-63327999D02*
X38477590Y-58427999D01*
X42377590Y-58427999D02*
X42377590Y-63327999D01*
X42377590Y-63327999D02*
X38477590Y-63327999D01*
%TO.C,C16*%
X39302590Y-69840499D02*
X38052590Y-69840499D01*
X38052590Y-67840499D01*
X39302590Y-67840499D01*
X39302590Y-69840499D01*
%TO.C,C13*%
X56052590Y-69665499D02*
X54802590Y-69665499D01*
X54802590Y-67665499D01*
X56052590Y-67665499D01*
X56052590Y-69665499D01*
%TO.C,R9*%
X62552590Y-65008000D02*
X61302590Y-65008000D01*
X61302590Y-63008000D01*
X62552590Y-63008000D01*
X62552590Y-65008000D01*
%TO.C,C14*%
X53052590Y-65090499D02*
X51802590Y-65090499D01*
X51802590Y-63090499D01*
X53052590Y-63090499D01*
X53052590Y-65090499D01*
%TO.C,D1*%
X122427589Y-16527999D02*
X132827590Y-16527999D01*
X122427589Y-17802999D02*
X123702589Y-16527999D01*
X122427589Y-21127999D02*
X122427589Y-16527999D01*
X132827589Y-21127999D02*
X122427589Y-21127999D01*
X132827590Y-16527999D02*
X132827589Y-21127999D01*
%TO.C,U1*%
X96752590Y-65317999D02*
X103102590Y-65317999D01*
X96752590Y-72937999D02*
X96752590Y-65317999D01*
X102102590Y-72937999D02*
X96752590Y-72937999D01*
X103102590Y-65317999D02*
X103102590Y-71937999D01*
X103102590Y-71937999D02*
X102102590Y-72937999D01*
X105007590Y-72997999D02*
X94847590Y-72997999D01*
X94847590Y-65257999D01*
X105007590Y-65257999D01*
X105007590Y-72997999D01*
%TO.C,C11*%
X57802590Y-65090499D02*
X56552590Y-65090499D01*
X56552590Y-63090499D01*
X57802590Y-63090499D01*
X57802590Y-65090499D01*
%TO.C,R14*%
X43927590Y-67002999D02*
X41927590Y-67002999D01*
X41927590Y-65752999D01*
X43927590Y-65752999D01*
X43927590Y-67002999D01*
%TO.C,R4*%
X111927590Y-65903000D02*
X109927590Y-65903000D01*
X109927590Y-64653000D01*
X111927590Y-64653000D01*
X111927590Y-65903000D01*
%TO.C,D2*%
X47177590Y-59547999D02*
X47177590Y-62027999D01*
X47177590Y-69707999D02*
X47177590Y-67227999D01*
X48527590Y-62707999D02*
X45827590Y-62707999D01*
X48527590Y-62807999D02*
X45827590Y-62807999D01*
X48527590Y-62907999D02*
X45827590Y-62907999D01*
X48527590Y-67227999D02*
X45827590Y-67227999D01*
X45827590Y-62027999D01*
X48527590Y-62027999D01*
X48527590Y-67227999D01*
%TO.C,Q2*%
X32137590Y-70877998D02*
X35637590Y-70877999D01*
X32153965Y-70881625D02*
G75*
G02*
X33907590Y-66647999I1753626J1753625D01*
G01*
X33907590Y-66647999D02*
G75*
G02*
X35661215Y-70881624I0J-2480000D01*
G01*
%TO.C,R3*%
X116052590Y-73127999D02*
X114802590Y-73127999D01*
X114802590Y-71127999D01*
X116052590Y-71127999D01*
X116052590Y-73127999D01*
%TO.C,C1*%
X116713729Y-28940499D02*
X117713729Y-28940499D01*
X117213729Y-28440499D02*
X117213729Y-29440499D01*
X126002590Y-31127999D02*
G75*
G02*
X116002590Y-31127999I-5000000J0D01*
G01*
X116002590Y-31127999D02*
G75*
G02*
X126002590Y-31127999I5000000J0D01*
G01*
%TO.C,R8*%
X72852590Y-70202999D02*
X79302590Y-70202999D01*
X72852590Y-73552999D02*
X72852590Y-70202999D01*
X79302590Y-70202999D02*
X79302590Y-73552999D01*
X79302590Y-73552999D02*
X72852590Y-73552999D01*
%TO.C,R15*%
X43927590Y-71502999D02*
X41927590Y-71502999D01*
X41927590Y-70252999D01*
X43927590Y-70252999D01*
X43927590Y-71502999D01*
%TO.C,C12*%
X57890090Y-60002999D02*
X55890090Y-60002999D01*
X55890090Y-58752999D01*
X57890090Y-58752999D01*
X57890090Y-60002999D01*
%TO.C,C7*%
X40417667Y-34190499D02*
X41417667Y-34190499D01*
X40917667Y-33690499D02*
X40917667Y-34690499D01*
X49706528Y-36377999D02*
G75*
G02*
X39706528Y-36377999I-5000000J0D01*
G01*
X39706528Y-36377999D02*
G75*
G02*
X49706528Y-36377999I5000000J0D01*
G01*
%TO.C,C8*%
X69888729Y-22690499D02*
X70888729Y-22690499D01*
X70388729Y-22190499D02*
X70388729Y-23190499D01*
X79177590Y-24877999D02*
G75*
G02*
X69177590Y-24877999I-5000000J0D01*
G01*
X69177590Y-24877999D02*
G75*
G02*
X79177590Y-24877999I5000000J0D01*
G01*
%TO.C,C6*%
X40388729Y-23155499D02*
X41388729Y-23155499D01*
X40888729Y-22655499D02*
X40888729Y-23655499D01*
X49677590Y-25342999D02*
G75*
G02*
X39677590Y-25342999I-5000000J0D01*
G01*
X39677590Y-25342999D02*
G75*
G02*
X49677590Y-25342999I5000000J0D01*
G01*
%TO.C,R5*%
X84836000Y-66411000D02*
X82836000Y-66411000D01*
X82836000Y-65161000D01*
X84836000Y-65161000D01*
X84836000Y-66411000D01*
%TO.C,C10*%
X109890090Y-72252999D02*
X111890090Y-72252999D01*
X111890090Y-73502999D01*
X109890090Y-73502999D01*
X109890090Y-72252999D01*
%TO.C,L1*%
X92252969Y-32453378D02*
X92252969Y-32453378D01*
X94289437Y-27305641D02*
X96085488Y-25509590D01*
X94289437Y-30897743D02*
X94289437Y-27305641D01*
X94289437Y-48858256D02*
X94289437Y-52450358D01*
X94289437Y-52450358D02*
X96085488Y-54246409D01*
X96085488Y-25509590D02*
X103269693Y-25509590D01*
X96085488Y-54246409D02*
X103269693Y-54246409D01*
X103269693Y-25509590D02*
X105065744Y-27305641D01*
X103269693Y-54246409D02*
X105065744Y-52450358D01*
X105065744Y-27305641D02*
X105065744Y-30897743D01*
X105065744Y-52450358D02*
X105065744Y-48858256D01*
X107102211Y-47302621D02*
X107102211Y-47302621D01*
X92252969Y-32453378D02*
G75*
G02*
X107102212Y-47302622I7424621J-7424622D01*
G01*
X107102211Y-47302621D02*
G75*
G02*
X92252969Y-32453379I-7424621J7424621D01*
G01*
%TO.C,IC2*%
X110127590Y-68227999D02*
X111727590Y-68227999D01*
X110127590Y-71127999D02*
X110127590Y-68227999D01*
X111727590Y-68227999D02*
X111727590Y-71127999D01*
X111727590Y-70177999D02*
X110777590Y-71127999D01*
X111727590Y-71127999D02*
X110127590Y-71127999D01*
%TO.C,R10*%
X63230000Y-59299000D02*
X61230000Y-59299000D01*
X61230000Y-58049000D01*
X63230000Y-58049000D01*
X63230000Y-59299000D01*
%TO.C,C2*%
X131122590Y-41137999D02*
X131122590Y-42637999D01*
X131122590Y-56137999D02*
X131122590Y-54638000D01*
X134872590Y-54637999D02*
X127372590Y-54637999D01*
X127372590Y-42637999D01*
X134872590Y-42637999D01*
X134872590Y-54637999D01*
%TO.C,C9*%
X69888729Y-33690499D02*
X70888729Y-33690499D01*
X70388729Y-33190499D02*
X70388729Y-34190499D01*
X79177590Y-35877999D02*
G75*
G02*
X69177590Y-35877999I-5000000J0D01*
G01*
X69177590Y-35877999D02*
G75*
G02*
X79177590Y-35877999I5000000J0D01*
G01*
%TO.C,H1*%
X85437590Y-20687999D02*
X85437590Y-59087999D01*
X85437590Y-59087999D02*
X113837590Y-59087999D01*
X86937590Y-20687999D02*
X86937590Y-17287999D01*
X86937590Y-59087999D02*
X86937590Y-62487999D01*
X92017590Y-20687999D02*
X92017590Y-17287999D01*
X92017590Y-59087999D02*
X92017590Y-62487999D01*
X97097590Y-20687999D02*
X97097590Y-17287999D01*
X97097590Y-59087999D02*
X97097590Y-62487999D01*
X102177590Y-20687999D02*
X102177590Y-17287999D01*
X102177590Y-59087999D02*
X102177590Y-62487999D01*
X107257590Y-20687999D02*
X107257590Y-17287999D01*
X107257590Y-59087999D02*
X107257590Y-62487999D01*
X112337590Y-20687999D02*
X112337590Y-17287999D01*
X112337590Y-59087999D02*
X112337590Y-62487999D01*
X113837590Y-20687999D02*
X85437590Y-20687999D01*
X113837590Y-59087999D02*
X113837590Y-20687999D01*
%TO.C,R11*%
X83175000Y-61960000D02*
X81925000Y-61960000D01*
X81925000Y-59960000D01*
X83175000Y-59960000D01*
X83175000Y-61960000D01*
%TO.C,IC1*%
X66477590Y-59927999D02*
X70377590Y-59927999D01*
X66477590Y-61197999D02*
X67747590Y-59927999D01*
X66477590Y-64827999D02*
X66477590Y-59927999D01*
X70377590Y-59927999D02*
X70377590Y-64827999D01*
X70377590Y-64827999D02*
X66477590Y-64827999D01*
%TO.C,R7*%
X72852590Y-65952999D02*
X79302590Y-65952999D01*
X72852590Y-69302999D02*
X72852590Y-65952999D01*
X79302590Y-65952999D02*
X79302590Y-69302999D01*
X79302590Y-69302999D02*
X72852590Y-69302999D01*
%TO.C,R13*%
X34798000Y-63502999D02*
X32798000Y-63502999D01*
X32798000Y-62252999D01*
X34798000Y-62252999D01*
X34798000Y-63502999D01*
%TO.C,J2*%
X132622590Y-26762999D02*
G75*
G02*
X129622590Y-26762999I-1500000J0D01*
G01*
X129622590Y-26762999D02*
G75*
G02*
X132622590Y-26762999I1500000J0D01*
G01*
X132622590Y-32762999D02*
G75*
G02*
X129622590Y-32762999I-1500000J0D01*
G01*
X129622590Y-32762999D02*
G75*
G02*
X132622590Y-32762999I1500000J0D01*
G01*
%TO.C,Q1*%
X82277590Y-69077999D02*
X92677589Y-69077999D01*
X82277590Y-73677999D02*
X82277590Y-69077999D01*
X92677589Y-69077999D02*
X92677590Y-73677999D01*
X92677590Y-72328000D02*
X91327590Y-73677999D01*
X92677590Y-73677999D02*
X82277590Y-73677999D01*
%TO.C,C4*%
X40388729Y-45155499D02*
X41388729Y-45155499D01*
X40888729Y-44655499D02*
X40888729Y-45655499D01*
X49677590Y-47342999D02*
G75*
G02*
X39677590Y-47342999I-5000000J0D01*
G01*
X39677590Y-47342999D02*
G75*
G02*
X49677590Y-47342999I5000000J0D01*
G01*
%TO.C,R1*%
X40677590Y-56002999D02*
X38677590Y-56002999D01*
X38677590Y-54752999D01*
X40677590Y-54752999D01*
X40677590Y-56002999D01*
%TO.C,C3*%
X116806052Y-47720499D02*
X117806052Y-47720499D01*
X117306052Y-47220499D02*
X117306052Y-48220499D01*
X126094913Y-49907999D02*
G75*
G02*
X116094913Y-49907999I-5000000J0D01*
G01*
X116094913Y-49907999D02*
G75*
G02*
X126094913Y-49907999I5000000J0D01*
G01*
D14*
%TO.C,VR1*%
X120427590Y-61777999D02*
X132927590Y-61777999D01*
X120427590Y-71477999D02*
X120427590Y-61777999D01*
X132927590Y-61777999D02*
X132927590Y-71477999D01*
X132927590Y-71477999D02*
X120427590Y-71477999D01*
D13*
%TO.C,L3*%
X59177590Y-17377999D02*
X59177590Y-21452999D01*
X59177590Y-55377999D02*
X59177590Y-51303000D01*
X66162589Y-51302999D02*
X52192591Y-51302999D01*
X52192590Y-21452999D01*
X66162590Y-21452999D01*
X66162589Y-51302999D01*
%TO.C,J1*%
X25677590Y-61877999D02*
G75*
G02*
X22677590Y-61877999I-1500000J0D01*
G01*
X22677590Y-61877999D02*
G75*
G02*
X25677590Y-61877999I1500000J0D01*
G01*
X25677590Y-67877999D02*
G75*
G02*
X22677590Y-67877999I-1500000J0D01*
G01*
X22677590Y-67877999D02*
G75*
G02*
X25677590Y-67877999I1500000J0D01*
G01*
%TO.C,C5*%
X68552422Y-47120499D02*
X70152422Y-47120499D01*
X69352422Y-46320499D02*
X69352422Y-47920499D01*
X83427590Y-50627999D02*
G75*
G02*
X67427590Y-50627999I-8000000J0D01*
G01*
X67427590Y-50627999D02*
G75*
G02*
X83427590Y-50627999I8000000J0D01*
G01*
%TO.C,C15*%
X34890090Y-59752999D02*
X32890090Y-59752999D01*
X32890090Y-58502999D01*
X34890090Y-58502999D01*
X34890090Y-59752999D01*
%TD*%
M02*
