%TF.GenerationSoftware,KiCad,Pcbnew,9.0.7*%
%TF.CreationDate,2026-01-07T19:43:00+01:00*%
%TF.ProjectId,power-electronics2,706f7765-722d-4656-9c65-6374726f6e69,rev?*%
%TF.SameCoordinates,Original*%
%TF.FileFunction,Soldermask,Bot*%
%TF.FilePolarity,Negative*%
%FSLAX46Y46*%
G04 Gerber Fmt 4.6, Leading zero omitted, Abs format (unit mm)*
G04 Created by KiCad (PCBNEW 9.0.7) date 2026-01-07 19:43:00*
%MOMM*%
%LPD*%
G01*
G04 APERTURE LIST*
G04 Aperture macros list*
%AMRoundRect*
0 Rectangle with rounded corners*
0 $1 Rounding radius*
0 $2 $3 $4 $5 $6 $7 $8 $9 X,Y pos of 4 corners*
0 Add a 4 corners polygon primitive as box body*
4,1,4,$2,$3,$4,$5,$6,$7,$8,$9,$2,$3,0*
0 Add four circle primitives for the rounded corners*
1,1,$1+$1,$2,$3*
1,1,$1+$1,$4,$5*
1,1,$1+$1,$6,$7*
1,1,$1+$1,$8,$9*
0 Add four rect primitives between the rounded corners*
20,1,$1+$1,$2,$3,$4,$5,0*
20,1,$1+$1,$4,$5,$6,$7,0*
20,1,$1+$1,$6,$7,$8,$9,0*
20,1,$1+$1,$8,$9,$2,$3,0*%
G04 Aperture macros list end*
%ADD10C,2.400000*%
%ADD11R,2.130000X2.130000*%
%ADD12C,2.130000*%
%ADD13RoundRect,0.249999X-0.850001X0.850001X-0.850001X-0.850001X0.850001X-0.850001X0.850001X0.850001X0*%
%ADD14C,2.200000*%
%ADD15R,1.050000X1.500000*%
%ADD16O,1.050000X1.500000*%
%ADD17RoundRect,0.250000X-0.750000X-0.750000X0.750000X-0.750000X0.750000X0.750000X-0.750000X0.750000X0*%
%ADD18C,2.000000*%
%ADD19C,1.500000*%
%ADD20C,1.950000*%
%ADD21C,1.600000*%
%ADD22R,2.400000X2.400000*%
%ADD23RoundRect,0.250000X1.325000X-1.325000X1.325000X1.325000X-1.325000X1.325000X-1.325000X-1.325000X0*%
%ADD24C,3.150000*%
%ADD25R,1.980000X1.980000*%
%ADD26C,1.980000*%
%ADD27C,1.800000*%
%ADD28C,4.460000*%
%ADD29RoundRect,0.250000X-1.325000X1.325000X-1.325000X-1.325000X1.325000X-1.325000X1.325000X1.325000X0*%
%ADD30RoundRect,0.250001X-0.949999X-0.949999X0.949999X-0.949999X0.949999X0.949999X-0.949999X0.949999X0*%
G04 APERTURE END LIST*
D10*
%TO.C,L4*%
X29677590Y-55377999D03*
X29677590Y-17377999D03*
%TD*%
D11*
%TO.C,D1*%
X125077589Y-19627999D03*
D12*
X127627589Y-19627999D03*
X130177590Y-19627999D03*
%TD*%
D13*
%TO.C,D2*%
X47177590Y-59547999D03*
D14*
X47177590Y-69707999D03*
%TD*%
D15*
%TO.C,Q2*%
X32637590Y-69127999D03*
D16*
X33907591Y-69127999D03*
X35177590Y-69127999D03*
%TD*%
D17*
%TO.C,C1*%
X118502590Y-31127999D03*
D18*
X123502590Y-31127999D03*
%TD*%
D17*
%TO.C,C7*%
X42206528Y-36377999D03*
D18*
X47206528Y-36377999D03*
%TD*%
D17*
%TO.C,C8*%
X71677590Y-24877999D03*
D18*
X76677590Y-24877999D03*
%TD*%
D17*
%TO.C,C6*%
X42177590Y-25342999D03*
D18*
X47177590Y-25342999D03*
%TD*%
D19*
%TO.C,L1*%
X97881539Y-27305641D03*
X96085488Y-29101692D03*
X97881539Y-30897743D03*
X97881539Y-48858256D03*
X96085488Y-50654307D03*
X97881539Y-52450358D03*
X101473641Y-52450358D03*
X103269693Y-50654307D03*
X101473641Y-48858256D03*
X101473641Y-30897743D03*
X103269693Y-29101692D03*
X101473641Y-27305641D03*
D20*
X85309180Y-39878000D03*
X114046000Y-39878000D03*
%TD*%
D21*
%TO.C,C2*%
X131122590Y-41137999D03*
X131122590Y-56137999D03*
%TD*%
D17*
%TO.C,C9*%
X71677590Y-35877999D03*
D18*
X76677590Y-35877999D03*
%TD*%
D22*
%TO.C,H1*%
X112337590Y-23377999D03*
D10*
X107257591Y-23377999D03*
X102177590Y-23377999D03*
X97097590Y-23377999D03*
X92017590Y-23377999D03*
X86937590Y-23377999D03*
X86937590Y-56397999D03*
X92017590Y-56397999D03*
X97097590Y-56397999D03*
X102177590Y-56397999D03*
X107257590Y-56397998D03*
X112337590Y-56397999D03*
%TD*%
D23*
%TO.C,J2*%
X131122590Y-32762999D03*
D24*
X131122590Y-26762999D03*
%TD*%
D25*
%TO.C,Q1*%
X90177590Y-70608999D03*
D26*
X87477590Y-70608999D03*
X84777589Y-70608999D03*
%TD*%
D17*
%TO.C,C4*%
X42177590Y-47342999D03*
D18*
X47177590Y-47342999D03*
%TD*%
D17*
%TO.C,C3*%
X118594913Y-49907999D03*
D18*
X123594913Y-49907999D03*
%TD*%
D27*
%TO.C,VR1*%
X120427590Y-64127999D03*
X120427590Y-66627999D03*
X120427590Y-69127999D03*
D28*
X127427590Y-62227999D03*
X127427590Y-71027999D03*
%TD*%
D10*
%TO.C,L3*%
X59177590Y-17377999D03*
X59177590Y-55377999D03*
%TD*%
D29*
%TO.C,J1*%
X24177590Y-61877999D03*
D24*
X24177590Y-67877999D03*
%TD*%
D30*
%TO.C,C5*%
X71677590Y-50627999D03*
D10*
X79177590Y-50627999D03*
%TD*%
M02*
